<?xml version="1.0" encoding="utf-8"?>
<!-- Generator: Adobe Illustrator 15.0.2, SVG Export Plug-In . SVG Version: 6.00 Build 0)  -->
<!DOCTYPE svg PUBLIC "-//W3C//DTD SVG 1.1//EN" "http://www.w3.org/Graphics/SVG/1.1/DTD/svg11.dtd">
<svg version="1.1" xmlns="http://www.w3.org/2000/svg" xmlns:xlink="http://www.w3.org/1999/xlink" x="0px" y="0px"
	 width="2248.689px" height="5419.579px" viewBox="0 0 2248.689 5419.579" enable-background="new 0 0 2248.689 5419.579"
	 xml:space="preserve">
<g id="Ebene_2">
	<path fill="none" stroke="#E50C7E" stroke-width="15" stroke-miterlimit="10" stroke-opacity="0.5" d="M1129.051,2127.774
		c4.16,8.851,17.855,5.41,23.487,6.826c5.116,1.286,15.393,3.678,20.499,5.001c2.51,0.65,7.524,1.984,10.002,2.747
		c2.588,0.797,7.838,2.271,10.25,3.502c2.997,1.528,8.361,5.663,11,7.75c2.291,1.812,6.656,5.71,8.75,7.748
		c1.901,1.851,5.267,5.987,7.249,7.75c2.204,1.961,7.04,5.373,9.501,7c3.692,2.44,11.268,7.065,15.25,8.998
		c3.258,1.581,10.075,4.073,13.5,5.251c3.702,1.273,11.229,3.447,15,4.5c3.606,1.007,10.973,2.497,14.501,3.75
		c3.821,1.356,11.265,4.677,14.75,6.748c2.149,1.277,6.221,4.243,7.999,6c2.188,2.161,5.878,7.138,7.501,9.75
		c1.947,3.134,4.956,9.897,6.499,13.249c1.85,4.019,5.148,12.231,7,16.249c1.661,3.605,5.275,10.677,7.003,14.251
		c1.837,3.8,5.537,11.39,7.247,15.248c1.396,3.151,3.451,9.812,5.252,12.751c1.505,2.457,5.374,6.805,7.499,8.75
		c1.586,1.452,5.253,3.745,7.001,4.998c2.002,1.435,6.152,4.125,8.001,5.752c1.925,1.694,5.239,5.635,6.998,7.5
		c2.548,2.701,7.802,7.956,10.25,10.748c1.905,2.173,5.602,6.626,7.25,8.999c1.535,2.21,4.199,6.896,5.5,9.252
		c1.46,2.643,4.138,8.056,5.5,10.749c1.388,2.743,4.137,8.242,5.5,10.998c1.45,2.932,4.581,8.695,5.752,11.749
		c0.682,1.779,1.681,5.472,2.082,7.334c0.417,1.936,0.87,5.877,1.167,7.834c0.328,2.167,0.982,6.502,1.332,8.665
		c0.478,2.962,1.749,8.843,2,11.832c0.174,2.077-0.118,6.253,0,8.334c0.188,3.307,1.313,9.859,1.501,13.166
		c0.158,2.786-0.557,8.431,0,11.166c0.298,1.464,1.703,4.146,2.335,5.5c0.969,2.077,3.141,6.116,4.164,8.167
		c0.891,1.783,2.634,5.369,3.502,7.163c0.966,1.996,2.829,6.024,3.833,8.002c0.878,1.729,2.774,5.111,3.666,6.832
		c0.857,1.655,2.639,4.937,3.335,6.666c0.733,1.821,2.038,5.559,2.333,7.5c0.169,1.112,0,3.375,0,4.5c0,2.792,0.236,8.386,0,11.168
		c-0.146,1.728-0.387,5.285-1.167,6.834c-0.623,1.236-2.882,2.992-3.834,3.999c-1.176,1.242-3.367,3.888-4.666,4.999
		c-1.071,0.917-3.53,2.334-4.669,3.166c-1.797,1.312-5.314,4.047-6.998,5.502c-2.52,2.178-7.233,6.891-9.667,9.163
		c-2.069,1.933-6.333,5.665-8.334,7.668c-1.479,1.481-4.283,4.592-5.664,6.166c-1.54,1.756-4.596,5.299-6.001,7.165
		c-1.21,1.605-3.329,5.033-4.501,6.666c-1.283,1.788-3.888,5.346-5.336,7.003c-2.016,2.307-6.489,6.508-8.664,8.665
		c-2.573,2.552-7.5,7.908-10.335,10.165c-2.668,2.123-8.488,5.732-11.5,7.332c-2.687,1.427-8.364,3.65-11.165,4.836
		c-2.408,1.02-7.237,3.029-9.667,3.999c-2.156,0.86-6.587,2.303-8.668,3.332c-2.279,1.128-6.94,3.462-8.666,5.332
		c-1.681,1.822-3.803,6.456-4.5,8.835c-0.471,1.606-0.708,4.991-0.665,6.665c0.05,1.939,0.838,5.758,1.167,7.67
		c0.41,2.383,1.289,7.142,1.83,9.498c0.579,2.521,2.008,7.498,2.669,10c0.715,2.705,2.055,8.143,2.833,10.83
		c0.766,2.646,2.533,7.865,3.334,10.5c0.782,2.574,2.581,7.677,3,10.335c0.429,2.718,0.337,8.25,0.334,11.001
		c-0.005,3.834-0.336,11.5-0.503,15.33c-0.167,3.835-0.65,11.499-0.833,15.333c-0.145,3.041-0.312,9.127-0.5,12.166
		c-0.219,3.547-0.95,10.618-1.165,14.166c-0.26,4.287-0.652,12.871-0.667,17.166c-0.009,2.626,0.162,7.88,0.334,10.501
		c0.137,2.089,0.562,6.258,0.833,8.334c0.372,2.846,1.239,8.523,1.833,11.331c0.544,2.571,1.97,7.632,2.667,10.166
		c0.839,3.051,2.677,9.109,3.498,12.165c0.981,3.65,3.018,10.944,3.668,14.668c0.642,3.671,1.277,11.111,1.499,14.832
		c0.137,2.288,0.188,6.875,0.169,9.167c-0.029,3.627-0.255,10.88-0.5,14.499c-0.28,4.137-1.072,12.396-1.669,16.499
		c-0.385,2.645-1.621,7.854-2.001,10.5c-0.429,2.983-0.602,9.039-1.166,12c-0.819,4.301-3.561,12.644-4.833,16.833
		c-0.991,3.265-3.152,9.739-4.166,12.997c-0.686,2.202-1.859,6.672-2.665,8.833c-1.069,2.866-3.582,8.457-5,11.168
		c-1.196,2.286-4.012,6.618-5.334,8.834c-1.513,2.534-4.471,7.643-6,10.166c-1.882,3.104-5.92,9.15-7.668,12.332
		c-1.804,3.283-4.78,10.172-6.5,13.5c-1.027,1.988-3.087,5.974-4.332,7.833c-1.781,2.659-5.648,7.823-8,9.995
		c-2.183,2.016-7.377,5.002-9.836,6.67c-2.458,1.666-7.331,5.065-9.833,6.666c-4.016,2.568-12.227,7.416-16.333,9.834
		c-2.734,1.609-8.134,4.97-11,6.332c-5.801,2.757-17.923,7.087-23.999,9.168c-6.098,2.089-18.512,5.585-24.667,7.499
		c-4.593,1.429-13.741,4.404-18.335,5.832c-4.657,1.447-13.981,4.309-18.666,5.666c-4.815,1.395-14.504,3.984-19.333,5.333
		c-5.755,1.606-17.239,4.915-23,6.501c-5.115,1.408-15.338,4.269-20.5,5.497c-4.969,1.183-14.982,3.214-20,4.169
		c-4.569,0.87-13.738,2.46-18.336,3.166c-4.944,0.76-14.859,2.122-19.832,2.667c-4.904,0.537-14.742,1.36-19.666,1.667
		c-5.244,0.326-15.747,0.728-21,0.832c-4.541,0.09-13.636,0.287-18.169,0c-4.274-0.271-12.761-1.538-16.998-2.164
		c-3.972-0.587-11.903-1.857-15.835-2.668c-3.781-0.779-11.222-2.865-14.998-3.668c-5.261-1.118-15.896-2.767-21.168-3.829
		c-5.272-1.062-15.787-3.347-21-4.67c-6.174-1.567-18.331-5.411-24.5-7.001c-3.76-0.969-11.445-2.229-15.168-3.33
		c-6.389-1.891-18.491-7.634-24.836-9.669c-6.264-2.01-19.039-5.246-25.496-6.502c-7.306-1.421-22.059-3.879-29.5-3.996
		c-4.104-0.064-12.287,0.961-16.326,1.689c-5.02,0.906-14.929,3.458-19.75,5.125c-2.602,0.899-10.09,4.41-10.09,4.41"/>
	<path fill="none" stroke="#E50C7E" stroke-width="15" stroke-miterlimit="10" stroke-opacity="0.5" d="M339.782,4501.583"/>
	<path fill="none" stroke="#E50C7E" stroke-width="15" stroke-miterlimit="10" stroke-opacity="0.5" d="M2169.211,60.002
		c0,3.01-5.584,7.205-8.001,8.998c-2.874,2.132-10.399,3.539-12.998,6c-1.746,1.653-3.568,6.284-4.502,8.5
		c-1.273,3.024-1.926,9.957-3.999,12.5c-1.45,1.778-5.794,3.87-8,4.5c-2.226,0.637-7.228-0.716-9.248,0.414
		c-1.361,0.762-3.253,3.627-3.501,5.168c-0.207,1.282,1.206,3.717,1.415,5c0.211,1.297,0.492,3.958,0.25,5.25
		c-0.265,1.412-1.694,3.963-2.332,5.25c-0.75,1.512-2.597,4.362-3.25,5.918c-0.783,1.865-1.683,5.833-2.335,7.748
		c-0.51,1.499-1.963,4.361-2.249,5.917c-0.29,1.577-0.32,4.843,0,6.414c0.245,1.199,1.232,3.488,1.917,4.501
		c0.709,1.05,2.47,2.98,3.584,3.583c1.067,0.578,3.549,0.824,4.749,1.001c1.199,0.177,3.631,0.259,4.833,0.415
		c1.09,0.141,3.307,0.357,4.333,0.751c1.058,0.406,2.837,1.878,3.834,2.416c0.886,0.478,2.766,1.219,3.666,1.668
		c1.168,0.583,3.451,1.848,4.584,2.498c1.119,0.642,3.369,1.914,4.416,2.666c0.864,0.621,2.666,1.861,3.252,2.75
		c0.312,0.473,0.696,1.602,0.666,2.167c-0.034,0.634-0.636,1.814-1,2.333c-0.509,0.725-1.888,1.873-2.586,2.417
		c-0.879,0.686-2.847,1.758-3.746,2.416c-0.818,0.599-2.694,1.666-3.127,2.584c-0.213,0.452-0.036,1.501,0,2
		c0.058,0.798,0.298,2.383,0.457,3.167c0.163,0.802,0.754,2.351,0.833,3.165c0.062,0.644-0.095,1.94-0.165,2.584
		c-0.118,1.09-0.392,3.272-0.668,4.333c-0.18,0.688-0.791,1.985-0.998,2.667c-0.212,0.696-0.584,2.111-0.668,2.834
		c-0.101,0.869-0.071,2.627,0,3.499c0.084,1.031,0.421,3.08,0.668,4.084c0.173,0.704,0.646,2.078,0.916,2.75
		c0.38,0.942,1.295,2.759,1.75,3.667c0.422,0.841,1.251,2.533,1.749,3.332c0.41,0.657,1.53,1.787,1.833,2.5
		c0.24,0.564,0.365,1.806,0.418,2.417c0.059,0.685,0.149,2.08,0,2.75c-0.16,0.719-0.906,2.016-1.251,2.667
		c-0.362,0.685-1.116,2.047-1.583,2.666c-0.639,0.846-2.199,2.301-2.916,3.083c-0.679,0.74-1.993,2.257-2.667,3.001
		c-0.742,0.819-2.257,2.43-3,3.249c-0.883,0.972-2.592,2.968-3.5,3.917c-0.805,0.84-2.492,2.444-3.331,3.25
		c-0.786,0.756-2.419,2.206-3.167,3c-0.822,0.872-2.343,2.726-3.085,3.667c-0.554,0.702-1.848,2.026-2.127,2.875
		c-0.205,0.624-0.067,1.972,0,2.625c0.078,0.762,0.304,2.305,0.626,3c0.534,1.151,2.421,2.945,3.125,4.001
		c0.318,0.478,0.786,1.538,1.126,2c0.459,0.623,1.717,1.594,2.126,2.25c0.424,0.679,1.19,2.2,1.124,2.998
		c-0.057,0.684-0.909,1.872-1.375,2.376c-0.412,0.446-1.438,1.147-2,1.376c-1.175,0.48-3.735,0.765-5,0.874
		c-1.37,0.119-4.131-0.128-5.5,0c-1.172,0.109-3.473,0.636-4.625,0.874c-0.847,0.174-2.537,0.538-3.375,0.751
		c-0.882,0.224-2.693,0.582-3.501,1c-0.927,0.481-2.597,1.81-3.251,2.624c-0.613,0.762-1.523,2.548-1.748,3.5
		c-0.251,1.064,0,3.282,0,4.375c0,0.844,0,2.53,0,3.374c0,0.688,0.271,2.12,0,2.751c-0.314,0.731-1.651,1.745-2.312,2.188
		c-0.697,0.467-2.312,0.997-3.062,1.374c-0.687,0.346-2.054,1.062-2.686,1.501c-0.573,0.398-1.651,1.3-2.126,1.812
		c-0.289,0.312-0.9,0.961-1.002,1.374c-0.177,0.721,0.195,2.236,0.439,2.937c0.154,0.443,0.591,1.309,0.937,1.626
		c0.381,0.35,1.398,0.672,1.874,0.875c0.478,0.204,1.496,0.478,1.938,0.75c0.537,0.33,1.565,1.138,1.874,1.688
		c0.334,0.596,0.548,2.005,0.501,2.687c-0.027,0.395-0.268,1.181-0.501,1.5c-0.331,0.452-1.334,1.023-1.812,1.313
		c-0.507,0.308-1.545,0.925-2.122,1.062c-0.503,0.119-1.551-0.047-2.065,0c-0.68,0.063-2.022,0.34-2.686,0.5
		c-0.429,0.104-1.321,0.259-1.689,0.502c-0.694,0.458-1.716,1.837-2.125,2.562c-0.326,0.576-0.732,1.853-0.876,2.5
		c-0.167,0.751-0.141,2.311-0.311,3.062c-0.194,0.858-0.848,2.501-1.188,3.313c-0.348,0.832-1.083,2.487-1.562,3.25
		c-0.64,1.016-2.3,2.775-3,3.75c-0.607,0.845-1.637,2.66-2.252,3.5c-0.78,1.065-2.578,3.009-3.375,4.062
		c-0.698,0.922-1.979,2.852-2.623,3.812c-0.667,0.993-2.177,2.892-2.625,4c-0.251,0.619-0.439,1.96-0.502,2.625
		c-0.075,0.793-0.116,2.398,0,3.187c0.126,0.856,0.638,2.527,1.001,3.312c0.375,0.81,1.449,2.253,1.938,3
		c0.48,0.737,1.501,2.174,1.938,2.938c0.388,0.68,1.051,2.1,1.376,2.812c0.332,0.726,1.062,2.162,1.25,2.937
		c0.199,0.823,0.281,2.53,0.249,3.376c-0.052,1.373-0.733,4.064-0.814,5.436c-0.031,0.53-0.016,1.599,0.065,2.124
		c0.097,0.626,0.594,1.812,0.686,2.438c0.136,0.928,0.268,2.834,0.063,3.749c-0.201,0.9-1.298,2.45-1.624,3.313
		c-0.4,1.061-0.887,3.282-1.189,4.375c-0.199,0.72-0.606,2.155-0.811,2.874c-0.279,0.985-0.862,2.947-1.125,3.937
		c-0.152,0.575-0.425,1.735-0.564,2.313c-0.158,0.655-0.597,1.951-0.625,2.625c-0.03,0.727,0.202,2.186,0.438,2.873
		c0.187,0.542,0.811,1.521,1.124,2.001c0.342,0.523,1.075,1.544,1.501,2.001c0.423,0.454,1.441,1.182,1.876,1.624
		c0.529,0.538,1.548,1.668,1.938,2.313c0.341,0.563,0.798,1.811,1,2.438c0.207,0.643,0.754,1.962,0.624,2.624
		c-0.145,0.736-1.288,1.849-1.751,2.438c-0.444,0.566-1.416,1.631-1.873,2.188c-0.466,0.568-1.312,1.774-1.813,2.312
		c-0.589,0.631-1.932,1.723-2.562,2.312c-0.589,0.552-1.645,1.8-2.314,2.25c-0.551,0.37-1.808,0.846-2.435,1.062
		c-0.764,0.264-2.338,0.638-3.127,0.813c-0.745,0.166-2.245,0.46-3.001,0.562c-0.963,0.129-2.907,0.206-3.873,0.313
		c-0.549,0.062-1.697,0.057-2.188,0.312c-0.548,0.286-1.363,1.282-1.688,1.809c-0.307,0.496-0.71,1.614-0.813,2.188
		c-0.066,0.369-0.053,1.13,0,1.501c0.071,0.5,0.426,1.453,0.565,1.938c0.158,0.547,0.489,1.635,0.624,2.188
		c0.186,0.759,0.61,2.281,0.624,3.062c0.012,0.665-0.219,1.994-0.437,2.623c-0.234,0.675-1.052,1.867-1.377,2.503
		c-0.48,0.939-1.294,2.894-1.811,3.813c-0.476,0.847-1.579,2.445-2.125,3.248c-0.441,0.648-1.413,1.888-1.812,2.562
		c-0.363,0.613-1.009,1.892-1.25,2.562c-0.271,0.756-0.502,2.362-0.751,3.126c-0.188,0.578-0.718,1.68-0.938,2.248
		c-0.335,0.866-0.891,2.643-1.249,3.5c-0.348,0.832-1.114,2.468-1.563,3.249c-0.319,0.556-0.981,1.674-1.437,2.126
		c-0.479,0.477-1.638,1.218-2.252,1.5c-0.737,0.339-2.385,0.54-3.124,0.875c-0.781,0.354-2.209,1.333-2.875,1.874
		c-0.583,0.474-1.642,1.552-2.126,2.126c-0.506,0.6-1.274,1.991-1.812,2.563c-0.715,0.762-2.41,2.001-3.249,2.623
		c-0.76,0.563-2.33,1.617-3.127,2.125c-0.645,0.41-1.977,1.16-2.625,1.563c-0.633,0.394-1.848,1.263-2.498,1.626
		c-0.573,0.32-1.786,0.837-2.377,1.124c-0.66,0.321-1.917,1.119-2.624,1.313c-1.027,0.282-3.444-0.385-4.251,0.311
		c-0.485,0.418-0.437,1.872-0.562,2.5c-0.143,0.716-0.103,2.262-0.499,2.874c-0.41,0.633-1.895,1.239-2.5,1.688
		c-0.518,0.384-1.725,1.043-2.002,1.625c-0.229,0.479,0.025,1.595,0,2.125c-0.055,1.16-0.383,3.463-0.438,4.623
		c-0.046,0.968,0,2.907,0,3.876c0,0.781,0.127,2.355,0,3.126c-0.087,0.531-0.444,1.562-0.688,2.041
		c-0.236,0.466-0.797,1.383-1.205,1.708c-0.388,0.309-1.358,0.616-1.836,0.75c-0.314,0.088-0.966,0.182-1.291,0.208
		c-0.872,0.069-2.63,0.096-3.5,0c-0.478-0.053-1.399-0.35-1.875-0.417c-0.176-0.024-0.557-0.135-0.707-0.041
		c-0.412,0.257-0.73,1.308-0.75,1.793c-0.021,0.504,0.46,1.439,0.623,1.916c0.259,0.754,0.861,2.233,1.085,2.998
		c0.146,0.502,0.36,1.529,0.458,2.044c0.113,0.6,0.425,1.807,0.374,2.415c-0.033,0.394-0.308,1.155-0.502,1.5
		c-0.229,0.405-0.897,1.068-1.205,1.417c-0.317,0.359-0.865,1.198-1.292,1.416c-0.411,0.21-1.389,0.329-1.834,0.208
		c-0.603-0.163-1.515-1.105-2.001-1.497c-0.483-0.389-1.389-1.244-1.876-1.627c-0.452-0.355-1.397-1.011-1.874-1.332
		c-0.369-0.249-1.064-0.864-1.5-0.959c-0.288-0.062-0.906,0.024-1.166,0.165c-0.487,0.264-1.189,1.184-1.458,1.668
		c-0.279,0.504-0.534,1.647-0.668,2.208c-0.167,0.699-0.29,2.146-0.499,2.833c-0.173,0.566-0.63,1.673-0.958,2.166
		c-0.293,0.441-1.037,1.216-1.457,1.541c-0.649,0.503-2.124,1.259-2.878,1.586c-0.493,0.214-1.532,0.494-2.042,0.664
		c-0.49,0.163-1.483,0.46-1.957,0.668c-0.479,0.21-1.567,0.551-1.834,1c-0.239,0.403,0,1.405,0,1.874c0,0.303,0,0.906,0,1.209
		c0,0.636,0,1.906,0,2.542c0,0.333,0.222,1.085,0,1.334c-0.481,0.54-2.151,0.318-2.875,0.331c-0.512,0.009-1.53-0.134-2.041-0.165
		c-0.749-0.046-2.271,0.045-3.002-0.124c-0.764-0.176-2.091-1.294-2.873-1.252c-0.442,0.023-1.178,0.621-1.54,0.875
		c-0.83,0.581-2.343,1.936-3.085,2.625c-0.675,0.627-1.955,1.953-2.586,2.625c-0.545,0.581-1.622,1.756-2.124,2.375
		c-0.544,0.672-1.395,2.217-2.041,2.791c-0.617,0.549-2.132,1.267-2.875,1.625c-0.8,0.386-2.466,1.004-3.291,1.333
		c-0.718,0.286-2.227,0.708-2.875,1.127c-0.501,0.323-1.312,1.219-1.71,1.664c-0.431,0.481-1.158,1.557-1.582,2.044
		c-0.401,0.461-1.309,1.285-1.708,1.748c-0.394,0.456-0.948,1.599-1.46,1.917c-0.324,0.202-1.124,0.216-1.498,0.294
		c-0.793,0.166-2.401,0.438-3.166,0.707c-0.8,0.282-2.265,1.164-3.044,1.499c-0.745,0.32-2.251,0.94-3.041,1.125
		c-0.765,0.179-2.349,0.222-3.126,0.333c-0.807,0.116-2.429,0.34-3.207,0.582c-0.678,0.211-1.973,0.809-2.584,1.169
		c-0.525,0.31-1.448,1.119-1.957,1.456c-0.755,0.501-2.266,1.555-3.127,1.835c-1.124,0.365-3.534,0.318-4.708,0.458
		c-1.106,0.132-3.362,0.26-4.415,0.625c-1.036,0.359-2.923,1.539-3.792,2.209c-0.816,0.629-2.093,2.294-2.916,2.916
		c-0.628,0.475-2.024,1.229-2.751,1.531c-0.92,0.382-2.847,0.957-3.833,1.095c-1.218,0.17-3.69,0.066-4.918,0
		c-0.868-0.047-2.588-0.397-3.457-0.376c-0.601,0.015-1.784,0.272-2.376,0.376c-0.814,0.143-2.423,0.689-3.247,0.624
		c-0.818-0.065-2.363-0.734-3.086-1.124c-0.767-0.414-2.068-1.598-2.791-2.083c-0.787-0.529-2.313-1.808-3.25-1.96
		c-0.654-0.106-1.951,0.39-2.585,0.583c-0.802,0.244-2.371,0.843-3.125,1.209c-0.729,0.354-2.106,1.222-2.791,1.656
		c-0.775,0.491-2.182,1.733-3.042,2.053c-0.846,0.313-2.684,0.363-3.584,0.416c-1.311,0.076-3.937-0.035-5.249,0
		c-1.168,0.031-3.499,0.219-4.667,0.25c-1.125,0.03-3.379,0.104-4.499,0c-0.95-0.089-2.823-0.481-3.75-0.709
		c-1.078-0.265-3.203-0.92-4.25-1.291c-0.806-0.285-2.37-0.982-3.168-1.291c-0.932-0.36-2.818-1.019-3.751-1.375
		c-0.659-0.252-1.932-0.9-2.622-1.042c-0.796-0.163-2.439-0.079-3.252-0.084c-0.791-0.005-2.382,0.158-3.164,0.042
		c-0.778-0.116-2.304-0.592-3.001-0.957c-0.758-0.396-1.926-1.742-2.71-2.084c-0.92-0.401-2.962-0.543-3.957-0.666
		c-1.058-0.13-3.185-0.292-4.25-0.334c-0.677-0.026-2.034-0.06-2.709,0c-0.653,0.058-1.978,0.205-2.582,0.458
		c-0.565,0.236-1.458,1.134-2.001,1.418c-0.619,0.325-1.983,0.682-2.627,0.956c-0.672,0.287-1.951,1.006-2.623,1.293
		c-0.674,0.287-2.09,0.687-2.752,1c-0.646,0.306-1.977,0.928-2.456,1.457c-0.596,0.656-1.192,2.379-1.503,3.209
		c-0.159,0.426-0.346,1.323-0.5,1.751c-0.228,0.631-0.824,1.837-1.081,2.457c-0.231,0.558-0.66,1.687-0.876,2.25
		c-0.286,0.748-0.712,2.313-1.124,3c-0.365,0.607-1.383,1.614-1.873,2.126c-0.55,0.574-1.711,1.665-2.294,2.207
		c-0.492,0.457-1.463,1.388-1.999,1.792c-0.53,0.4-1.717,1.021-2.251,1.417c-0.398,0.294-1.109,0.989-1.502,1.291
		c-0.642,0.493-1.985,1.396-2.666,1.834c-0.797,0.514-2.466,1.423-3.249,1.958c-0.717,0.49-2.08,1.571-2.749,2.126
		c-0.772,0.64-2.229,2.026-3.001,2.666c-0.709,0.587-2.232,1.632-2.916,2.248c-0.695,0.626-1.924,2.045-2.583,2.708
		c-0.582,0.585-1.806,1.696-2.376,2.293c-0.632,0.662-1.749,2.123-2.416,2.749c-0.585,0.549-1.911,1.463-2.542,1.959
		c-0.693,0.545-1.989,1.763-2.75,2.209c-0.697,0.408-2.234,0.948-3,1.207c-0.706,0.238-2.151,0.612-2.875,0.791
		c-0.892,0.221-2.672,0.692-3.585,0.792c-0.932,0.102-2.812,0.048-3.749,0c-0.815-0.042-2.435-0.284-3.25-0.333
		c-0.572-0.034-1.72-0.021-2.293-0.043c-0.719-0.027-2.154-0.145-2.873-0.165c-0.802-0.022-2.435-0.208-3.209,0
		c-0.441,0.118-1.229,0.625-1.582,0.915c-0.343,0.282-0.879,1-1.169,1.335c-0.377,0.436-1.164,1.279-1.498,1.749
		c-0.336,0.472-0.833,1.527-1.168,2c-0.308,0.435-0.984,1.268-1.377,1.627c-0.441,0.403-1.461,1.039-1.957,1.374
		c-0.587,0.396-1.767,1.179-2.375,1.54c-0.469,0.279-1.438,0.782-1.917,1.042c-0.521,0.282-1.527,0.918-2.081,1.126
		c-0.53,0.199-1.646,0.437-2.209,0.499c-0.59,0.065-1.782,0.022-2.376,0c-0.679-0.026-2.03-0.175-2.708-0.209
		c-0.822-0.042-2.469-0.062-3.292-0.081c-0.542-0.012-1.65-0.211-2.166-0.043c-0.509,0.165-1.326,0.918-1.709,1.293
		c-0.36,0.353-0.98,1.155-1.249,1.582c-0.327,0.52-0.842,1.643-1.083,2.208c-0.179,0.418-0.402,1.312-0.626,1.708
		c-0.311,0.548-1.218,1.447-1.583,1.959c-0.422,0.591-1.115,1.871-1.542,2.459c-0.486,0.67-1.582,1.916-2.124,2.542
		c-0.604,0.697-1.878,2.033-2.459,2.748c-0.531,0.653-1.519,2.019-2,2.71c-0.392,0.562-1.13,1.718-1.506,2.29
		c-0.499,0.761-1.495,2.279-1.992,3.041c-0.293,0.448-0.857,1.355-1.167,1.792c-0.554,0.782-1.821,2.232-2.336,3.041
		c-0.365,0.573-0.93,1.815-1.248,2.416c-0.472,0.89-1.414,2.672-1.919,3.543c-0.387,0.668-1.183,1.993-1.626,2.625
		c-0.332,0.474-0.858,1.77-1.436,1.812c-1.915,0.141-4.296-3.846-5.604-5.252c-1.149-1.236-3.194-3.93-4.249-5.249
		c-0.944-1.182-2.67-3.69-3.75-4.75c-1.4-1.375-4.792-3.438-6.251-4.75c-1.084-0.976-2.838-3.367-4.001-4.247
		c-1.404-1.062-4.709-2.396-6.248-3.251c-1.396-0.775-4.058-2.564-5.5-3.251c-1.625-0.773-5.045-1.925-6.75-2.5
		c-1.424-0.479-4.408-1.076-5.751-1.75c-1.318-0.662-3.425-2.851-4.75-3.498c-1.867-0.912-6.03-1.592-8.001-2.249
		c-1.97-0.657-5.972-1.925-7.748-3.001c-1.637-0.991-4.338-3.805-6.001-4.751c-1.978-1.125-6.407-2.355-8.499-3.251
		c-1.336-0.572-3.977-1.797-5.25-2.497c-1.747-0.961-5.222-2.97-6.75-4.251c-1.186-0.994-2.936-3.685-4.251-4.5
		c-1.277-0.791-4.314-1.303-5.749-1.75c-1.566-0.489-4.666-1.576-6.252-2.001c-1.421-0.381-4.34-0.828-5.749-1.25
		c-1.668-0.499-4.804-2.105-6.5-2.498c-2.078-0.481-6.374-0.579-8.5-0.752c-2.093-0.17-6.31-0.247-8.375-0.623
		c-1.635-0.298-4.769-1.456-6.376-1.875c-1.364-0.355-4.099-1.093-5.5-1.25c-1.739-0.195-5.271-0.265-7,0
		c-2.169,0.332-6.278,1.975-8.374,2.623c-1.529,0.474-4.568,1.505-6.126,1.877c-1.604,0.383-4.87,0.872-6.5,1.123
		c-1.621,0.25-4.878,0.633-6.499,0.877c-2.067,0.312-6.203,0.953-8.251,1.375c-1.923,0.396-5.719,1.399-7.624,1.873
		c-1.824,0.453-5.466,1.388-7.292,1.835c-2.454,0.601-7.355,1.844-9.834,2.334c-2.069,0.41-6.259,0.941-8.332,1.329
		c-1.76,0.329-5.272,1.037-7.001,1.503c-1.818,0.49-5.363,1.787-7.166,2.332c-2.071,0.627-6.235,1.811-8.335,2.334
		c-1.696,0.423-5.139,1.074-6.834,1.501c-0.588,0.148-2.043,0.134-2.333,0.666c-0.688,1.262,1.329,4.104,1.668,5.5
		c0.38,1.564,0.812,4.763,1.167,6.333c0.39,1.725,1.438,5.108,1.833,6.832c0.247,1.076,0.596,3.257,0.834,4.335
		c0.334,1.51,1.188,4.483,1.498,5.998c0.263,1.281,0.549,3.89,0.834,5.166c0.33,1.48,1.399,4.341,1.667,5.833
		c0.192,1.07,0.291,3.25,0.333,4.336c0.054,1.395,0.326,4.228,0,5.584c-0.278,1.159-1.534,3.238-2.168,4.248
		c-0.806,1.284-2.702,3.66-3.664,4.832c-0.955,1.163-3.342,3.148-4.002,4.501c-0.91,1.866-1.311,6.1-1.498,8.167
		c-0.098,1.078-0.222,3.271,0,4.331c0.298,1.424,1.743,4.003,2.332,5.333c0.536,1.211,1.599,3.638,2.168,4.833
		c0.283,0.595,0.935,1.85,0.832,2.5c-0.12,0.766-1.354,1.891-1.833,2.5c-1.079,1.371-3.569,3.858-4.501,5.333
		c-0.538,0.852-1.261,2.745-1.665,3.667c-0.472,1.078-1.238,3.318-1.833,4.334c-0.48,0.819-1.768,2.235-2.333,2.999
		c-0.818,1.105-2.402,3.356-3.167,4.501c-1.342,2.009-3.92,6.097-5.168,8.165c-1.167,1.934-3.313,5.91-4.499,7.832
		c-1.626,2.636-5.54,7.521-6.834,10.334c-0.888,1.93-1.638,6.16-2.334,8.166c-0.575,1.659-1.997,4.875-2.666,6.498
		c-0.498,1.21-1.566,3.601-2.001,4.835c-0.491,1.393-1.229,4.257-1.664,5.668c-0.36,1.171-1.312,3.455-1.502,4.665
		c-0.284,1.811-0.471,5.562,0,7.334c0.345,1.298,2.107,3.444,2.669,4.665c0.776,1.688,1.841,5.263,2.498,7.001
		c0.715,1.889,2.24,5.629,2.999,7.5c0.948,2.338,3.04,6.939,3.835,9.333c1.003,3.021,2.392,9.244,3.166,12.332
		c0.512,2.039,1.515,6.122,2.001,8.167c0.643,2.704,1.771,8.15,2.499,10.832c0.584,2.149,1.969,6.386,2.666,8.501
		c0.718,2.178,2.376,6.461,3.001,8.667c0.732,2.587,1.753,7.873,2.334,10.499c0.461,2.082,1.422,6.238,1.833,8.331
		c0.424,2.158,1.041,6.517,1.5,8.667c0.529,2.481,1.961,7.355,2.5,9.835c0.495,2.275,1.229,6.878,1.666,9.165
		c0.438,2.295,1.304,6.89,1.833,9.165c0.479,2.058,1.72,6.102,2.168,8.166c0.475,2.188,1.175,6.617,1.498,8.833
		c0.248,1.703,0.652,5.122,0.835,6.833c0.195,1.83,0.378,5.516,0.667,7.333c0.235,1.478,1.02,4.371,1.333,5.835
		c0.355,1.662,1.068,4.988,1.334,6.667c0.111,0.704-0.201,2.358,0.331,2.832c0.405,0.36,1.627,0.042,2.167,0
		c1.893-0.146,5.604-1.159,7.502-1.168c2.021-0.01,6.002,0.855,7.999,1.168c1.753,0.274,5.262,0.816,7.001,1.167
		c1.595,0.321,4.816,0.904,6.331,1.499c1.338,0.525,3.731,2.158,5,2.834c0.74,0.395,2.338,0.987,3.002,1.499
		c1.1,0.847,2.941,2.984,3.668,4.166c0.822,1.338,1.98,4.304,2.331,5.834c0.4,1.751,0.417,5.373,0.501,7.167
		c0.083,1.79,0.145,5.374,0.166,7.165c0.036,3.042,0.032,9.124,0,12.166c-0.021,1.917-0.052,5.754-0.166,7.668
		c-0.103,1.713-0.555,5.119-0.668,6.832c-0.159,2.412-0.314,7.248-0.334,9.665c-0.019,2.292-0.021,6.884,0.169,9.168
		c0.164,1.973,0.741,5.899,1.167,7.833c0.317,1.442,1.148,4.283,1.666,5.667c0.385,1.03,1.163,3.127,1.831,4.001
		c0.988,1.293,3.711,3.174,5.001,4.166c1.255,0.966,3.816,2.84,5.168,3.665c1.001,0.611,3.104,1.664,4.165,2.166
		c0.861,0.407,2.623,1.132,3.502,1.501c1.413,0.593,4.28,1.678,5.666,2.331c0.823,0.388,2.413,1.279,3.212,1.716
		c0.532,0.291,1.857,0.636,2.118,1.183c0.396,0.83-0.424,2.728-0.623,3.625c-0.951,4.28-3.398,12.707-4.62,16.918
		c-0.929,3.202-3.051,9.53-3.917,12.75c-0.53,1.971-1.281,5.991-1.839,7.954c-0.613,2.158-2.155,6.375-2.873,8.5
		c-0.938,2.781-2.748,8.366-3.751,11.125c-0.939,2.585-3.022,7.68-4.002,10.25c-1.021,2.679-2.98,8.068-3.998,10.748
		c-0.737,1.943-2.398,5.764-3.001,7.753c-0.334,1.103-0.852,3.354-0.998,4.497c-0.276,2.155-0.207,6.516-0.315,8.687
		c-0.147,2.939-0.655,8.808-0.749,11.75c-0.048,1.499,0.062,4.501,0,6c-0.062,1.52-0.332,4.551-0.5,6.062
		c-0.211,1.897-0.889,5.661-1.062,7.562c-0.167,1.822-0.196,5.487-0.312,7.313c-0.118,1.877-0.421,5.628-0.625,7.497
		c-0.228,2.085-0.983,6.221-1.124,8.313c-0.116,1.73,0.049,5.205,0,6.938c-0.071,2.503-0.368,7.503-0.565,9.999
		c-0.146,1.848-0.517,5.535-0.748,7.374c-0.209,1.662-0.81,4.959-1.001,6.623c-0.27,2.337-0.457,7.044-0.75,9.378
		c-0.253,2.014-1.202,5.977-1.375,7.999c-0.138,1.619,0,4.873,0,6.498c0,1.375,0.111,4.129,0,5.499
		c-0.125,1.548-0.763,4.593-1,6.127c-0.329,2.121-0.851,6.387-1.248,8.497c-0.284,1.513-1.043,4.5-1.378,6.002
		c-0.258,1.154-0.797,3.46-1,4.625c-0.244,1.397-0.654,4.208-0.748,5.624c-0.068,1.029-0.092,3.097,0,4.124
		c0.094,1.044,0.537,3.1,0.748,4.126c0.252,1.226,0.845,3.655,1.127,4.874c0.218,0.938,0.61,2.823,0.872,3.75
		c0.322,1.142,1.048,3.405,1.502,4.501c0.401,0.968,1.371,2.83,1.875,3.749c0.351,0.639,1.176,1.847,1.502,2.499
		c0.89,1.78,2.181,5.562,3,7.375c0.316,0.7,1.066,2.045,1.372,2.75c0.339,0.781,0.905,2.387,1.188,3.189
		c0.214,0.605,0.75,1.797,0.812,2.436c0.08,0.831-0.307,2.486-0.436,3.312c-0.162,1.035-0.542,3.099-0.749,4.126
		c-0.215,1.066-0.699,3.188-0.939,4.25c-0.291,1.282-0.847,3.854-1.186,5.124c-0.265,0.993-0.98,2.93-1.188,3.937
		c-0.253,1.232-0.484,3.743-0.564,4.999c-0.066,1.045,0.05,3.147-0.062,4.188c-0.102,0.937-0.477,2.789-0.75,3.69
		c-0.348,1.146-1.429,3.301-1.812,4.436c-0.307,0.904-0.803,2.753-1,3.688c-0.3,1.422-0.676,4.308-0.874,5.747
		c-0.174,1.264-0.504,3.794-0.626,5.063c-0.131,1.356-0.312,4.076-0.374,5.438c-0.062,1.327-0.05,3.986-0.124,5.312
		c-0.069,1.237-0.273,3.709-0.439,4.938c-0.188,1.385-0.72,4.129-0.999,5.498c-0.1,0.486-0.35,1.451-0.438,1.939
		c-0.33,1.831-0.797,5.524-1,7.374c-0.143,1.294-0.383,3.888-0.438,5.188c-0.061,1.436,0.099,4.313,0,5.747
		c-0.062,0.914-0.437,2.713-0.499,3.627c-0.087,1.263-0.118,3.803,0,5.062c0.118,1.251,0.712,3.7,0.937,4.937
		c0.213,1.17,0.653,3.511,0.812,4.689c0.132,0.98,0.185,2.966,0.376,3.936c0.187,0.945,0.843,2.766,1.122,3.688
		c0.283,0.938,0.784,2.833,1.128,3.75c0.452,1.205,1.507,3.559,2.124,4.688c0.51,0.932,1.74,2.667,2.313,3.561
		c0.489,0.763,1.482,2.28,1.938,3.063c0.384,0.658,1.01,2.058,1.438,2.688c0.367,0.541,1.209,1.552,1.686,2
		c0.553,0.521,1.837,1.35,2.438,1.812c0.617,0.475,1.862,1.41,2.437,1.936c0.669,0.611,1.951,1.906,2.5,2.627
		c0.441,0.579,1.101,1.889,1.5,2.497c0.412,0.628,1.352,1.804,1.75,2.44c0.557,0.889,1.514,2.757,2.002,3.686
		c0.433,0.822,1.187,2.528,1.685,3.312c0.383,0.602,1.269,1.726,1.752,2.25c0.518,0.561,1.619,1.633,2.249,2.063
		c0.819,0.56,2.617,1.453,3.564,1.748c0.724,0.225,2.249,0.325,2.998,0.439c0.688,0.104,2.073,0.273,2.75,0.437
		c0.639,0.153,1.895,0.561,2.501,0.814c0.715,0.3,2.051,1.099,2.749,1.435c0.662,0.318,1.986,0.974,2.689,1.188
		c0.698,0.212,2.159,0.352,2.873,0.503c0.756,0.16,2.247,0.58,3.002,0.748c0.715,0.159,2.183,0.322,2.875,0.562
		c0.614,0.213,1.758,0.85,2.313,1.187s1.601,1.114,2.123,1.5c0.619,0.456,1.887,1.339,2.438,1.876
		c0.533,0.52,1.53,1.655,1.877,2.313c0.41,0.777,0.77,2.523,0.998,3.372c0.205,0.761,0.501,2.315,0.748,3.063
		c0.229,0.692,0.858,2.012,1.128,2.688c0.345,0.868,1.083,2.594,1.311,3.5c0.257,1.024,0.412,3.143,0.563,4.188
		c0.199,1.377,0.517,4.148,0.854,5.498c0.23,0.92,0.951,2.683,1.252,3.582c0.399,1.193,1.114,3.609,1.54,4.794
		c0.284,0.791,0.903,2.356,1.248,3.123c0.41,0.913,1.287,2.72,1.793,3.584c0.816,1.396,2.622,4.087,3.624,5.355
		c0.946,1.197,3.06,3.408,4.127,4.499c1.044,1.066,3.25,3.075,4.312,4.123c0.889,0.877,2.674,2.627,3.499,3.564
		c0.735,0.836,2.072,2.618,2.752,3.5c0.586,0.76,1.814,2.241,2.312,3.062c0.565,0.932,1.458,2.93,1.875,3.938
		c0.334,0.807,0.915,2.455,1.166,3.292c0.375,1.253,1.021,3.795,1.25,5.083c0.234,1.32,0.589,3.99,0.584,5.331
		c-0.005,1.259-0.393,3.757-0.584,5.001c-0.136,0.881-0.513,2.624-0.667,3.501c-0.204,1.164-0.533,3.506-0.751,4.668
		c-0.22,1.172-0.641,3.526-0.998,4.664c-0.306,0.971-1.149,2.829-1.584,3.75c-0.422,0.893-1.346,2.641-1.834,3.499
		c-0.472,0.829-1.453,2.468-2,3.25c-0.578,0.827-1.714,2.533-2.499,3.167c-1.552,1.254-5.521,2.388-7.165,3.52
		c-1.359,0.937-3.646,3.354-4.833,4.501c-1.187,1.146-3.381,3.632-4.666,4.667c-1.08,0.87-3.597,2.117-4.669,2.998
		c-1.206,0.991-3.312,3.317-4.333,4.499c-1.068,1.236-3.088,3.812-4.001,5.167c-0.971,1.439-2.663,4.476-3.498,5.998
		c-0.833,1.521-2.046,4.847-3.166,6.169c-1.175,1.386-4.374,3.251-5.835,4.332c-1.581,1.17-4.988,3.231-6.333,4.667
		c-1.319,1.408-3.362,4.746-4.166,6.501c-0.67,1.463-1.52,4.59-1.834,6.167c-0.467,2.341-0.755,7.124-1.001,9.498
		c-0.169,1.625-0.044,4.988-0.666,6.499c-0.632,1.535-2.896,4.099-4.166,5.167c-1.312,1.105-4.37,2.798-6,3.334
		c-2.155,0.709-6.84,0.472-9,1.167c-1.757,0.565-4.888,2.6-6.499,3.499c-1.598,0.892-4.619,3.029-6.335,3.665
		c-1.908,0.707-6.01,1.083-8.001,1.501c-1.8,0.378-5.454,0.996-7.166,1.668c-1.563,0.613-4.513,2.295-5.833,3.332
		c-1.668,1.311-4.479,4.53-5.832,6.165c-1.408,1.702-3.413,5.829-5.169,7.17c-1.131,0.864-3.96,1.621-5.332,1.998
		c-2.041,0.561-6.271,1.023-8.333,1.5c-2.827,0.654-8.453,2.139-11.167,3.166c-2.162,0.818-6.081,3.487-8.335,4
		c-2.112,0.48-6.545-0.443-8.665,0c-1.426,0.298-4.16,1.473-5.334,2.334c-1.738,1.275-4.91,4.481-5.667,6.5
		c-0.424,1.131-0.398,3.692,0,4.833c0.685,1.959,3.776,4.955,5.167,6.496c1.718,1.903,5.546,5.331,7.333,7.17
		c1.541,1.586,4.529,4.85,6.001,6.5c1.317,1.477,3.947,4.438,5.167,5.997c1.73,2.212,4.992,6.796,6.498,9.167
		c1.18,1.858,3.199,5.78,4.335,7.666c1.276,2.119,4.146,6.164,5.332,8.335c0.813,1.489,2.187,4.599,2.835,6.167
		c0.645,1.559,2.585,4.663,2.331,6.331c-0.103,0.675-1.203,1.662-1.665,2.164c-0.84,0.912-2.611,2.686-3.667,3.335
		c-1.292,0.795-4.278,1.557-5.666,2.167c-1.791,0.788-5.521,2.219-6.999,3.501c-0.995,0.863-2.526,3.103-3.001,4.331
		c-0.803,2.078-0.934,6.618-1.168,8.833c-0.276,2.618-0.373,7.909-0.831,10.502c-0.406,2.3-1.97,6.725-2.501,8.998
		c-0.608,2.603-1.442,7.889-2,10.502c-0.491,2.303-1.631,6.871-2.167,9.164c-0.633,2.706-1.822,8.138-2.501,10.833
		c-0.464,1.843-0.796,5.863-2,7.333c-0.945,1.153-3.919,2.197-5.333,2.667c-1.565,0.521-4.854,1.021-6.498,1.167
		c-1.453,0.13-4.377,0-5.836,0c-1.833,0-5.503-0.107-7.333,0c-1.424,0.084-4.287,0.299-5.665,0.667
		c-1.532,0.409-4.511,1.623-5.833,2.499c-1.253,0.831-3.437,2.962-4.335,4.168c-0.924,1.24-2.116,4.128-2.831,5.5
		c-0.826,1.587-2.474,4.764-3.335,6.332c-0.808,1.472-2.622,4.311-3.333,5.832c-1.167,2.496-2.973,7.717-3.836,10.333
		c-0.517,1.565-1.176,4.821-1.831,6.333c-0.616,1.423-2.146,4.164-3.166,5.331c-0.84,0.962-2.876,2.57-4.002,3.171
		c-0.965,0.515-3.1,1.089-4.165,1.333c-1.437,0.33-4.37,0.99-5.835,0.83c-2.123-0.232-5.981-2.305-8.001-2.998
		c-1.981-0.68-5.985-1.922-7.998-2.5c-1.739-0.5-5.193-1.905-7.001-1.835c-1.146,0.045-3.243,1.146-4.333,1.503
		c-1.616,0.529-4.948,1.305-6.5,2c-1.688,0.756-4.734,2.896-6.331,3.83c-1.24,0.727-3.796,2.053-5.003,2.833
		c-1.302,0.842-3.797,2.69-5,3.668c-1.26,1.022-3.598,3.28-4.832,4.333c-1.511,1.289-4.417,4.068-6.169,5.003
		c-2,1.066-6.494,2.018-8.666,2.665c-1.579,0.471-4.815,1.188-6.333,1.831c-1.547,0.654-4.601,2.191-5.832,3.333
		c-1.255,1.163-3.061,4.144-3.835,5.669c-0.781,1.539-1.858,4.839-2.334,6.498c-0.541,1.886-0.901,5.861-1.667,7.667
		c-0.704,1.66-2.836,4.621-3.998,5.999c-1.367,1.622-4.39,4.674-6.166,5.833c-1.439,0.939-4.876,1.76-6.336,2.667
		c-1.73,1.075-4.692,3.925-6.166,5.332c-1.62,1.548-4.518,4.986-6.167,6.502c-1.571,1.443-4.827,4.248-6.665,5.332
		c-1.786,1.054-5.707,2.491-7.668,3.165c-2.208,0.759-6.766,1.819-8.999,2.501c-1.891,0.577-5.684,1.721-7.5,2.5
		c-2.039,0.875-5.836,3.204-7.835,4.167c-3.826,1.842-11.639,5.181-15.584,6.751c-4.078,1.623-12.36,4.538-16.499,5.999
		c-4.548,1.604-13.713,4.616-18.251,6.248c-3.834,1.379-11.462,4.25-15.25,5.75c-3.032,1.2-8.843,4.391-12.046,5.001
		c-3.673,0.7-11.373,0.826-14.954-0.249c-2.342-0.703-6.493-3.548-8.248-5.25c-2.713-2.632-6.938-9.061-8.502-12.502
		c-1.122-2.47-2.232-7.834-2.749-10.497c-0.563-2.907-1.107-8.814-1.501-11.75c-0.478-3.565-0.68-10.904-2-14.251
		c-1.317-3.338-6.002-8.949-8.248-11.747c-1.855-2.312-5.658-6.934-8.001-8.75c-2.63-2.039-8.595-5.198-11.751-6.25
		c-3.48-1.159-10.837-2.05-14.5-2.252c-2.873-0.159-8.793-0.479-11.499,0.501c-3.104,1.123-7.963,5.892-10.501,8.001
		c-1.361,1.131-4.013,3.483-5.25,4.749c-2.539,2.599-7.396,8.038-9.501,10.999c-1.883,2.647-4.848,8.453-6.5,11.25
		c-1.783,3.018-5.355,9.05-7.25,11.999c-1.799,2.801-5.223,8.573-7.5,11.001c-2.711,2.89-9.322,7.38-12.5,9.747
		c-3.198,2.383-9.419,7.492-12.999,9.251c-4.632,2.275-14.745,4.749-19.752,6c-4.697,1.174-14.181,3.276-18.999,3.747
		c-5.102,0.498-15.405,0.543-20.502,0c-4.132-0.44-12.216-2.498-16.249-3.498s-11.947-3.579-15.999-4.499
		c-4.269-0.969-12.915-2.396-17.251-2.999c-5.976-0.83-17.967-2.523-23.999-2.503c-5.094,0.018-15.258,1.239-20.25,2.254
		c-4.922,1-14.492,4.143-19.251,5.747c-4.873,1.643-14.447,5.408-19.249,7.25c-4.011,1.538-11.881,5.038-16.002,6.249
		c-5.751,1.69-17.535,4.154-23.499,4.751c-5.162,0.517-15.607,0.684-20.75,0c-5.456-0.725-15.869-4.601-21.251-5.749
		c-9.034-1.929-27.292-5.031-36.501-5.752c-7.29-0.57-22.056-1.32-29.248,0c-6.398,1.175-18.217,7.005-24.325,9.241
		c-4.417,1.616-13.282,4.775-17.748,6.251c-4.224,1.396-12.665,4.254-17,5.251c-4.807,1.105-14.704,1.852-19.501,2.998
		c-3.71,0.887-11.062,3.096-14.5,4.75c-2.155,1.038-6.863,3.146-8,5.251c-1.128,2.09-0.315,7.146,0,9.499
		c0.757,5.649,4.466,16.508,5.999,21.998c1.469,5.259,4.589,15.726,6.002,21c1.467,5.476,3.931,16.55,5.5,21.997
		c1.894,6.571,6.235,19.546,8.499,25.999c1.414,4.031,4.532,11.988,6.001,16c1.277,3.49,3.423,10.634,4.999,14
		c2.4,5.126,8.576,14.653,11.501,19.499c2.581,4.276,7.955,12.702,10.5,17.001c2.195,3.708,6.125,11.4,8.498,14.998
		c1.817,2.756,5.55,8.292,8.001,10.502c3.388,3.055,11.621,7.229,15.573,9.506c4.313,2.485,13.059,7.248,17.499,9.499
		c4.438,2.251,13.451,6.485,18.001,8.501c5.072,2.247,15.227,6.775,20.5,8.498c4.524,1.479,13.871,3.39,18.499,4.501
		c4.746,1.14,14.153,3.933,19.002,4.499c5.169,0.604,15.629,0.419,20.816,0c5.302-0.429,15.734-2.668,21-3.419
		c4.576-0.652,13.737-1.965,18.351-2.246c4.658-0.284,14.046-0.661,18.666,0c3.524,0.505,10.34,2.732,13.667,3.998
		c3.274,1.245,9.627,4.257,12.666,6c3.589,2.059,10.28,6.958,13.669,9.332c2.689,1.885,8.698,5.038,10.664,7.668
		c1.057,1.414,2.488,4.905,2.334,6.664c-0.134,1.523-2.092,4.103-3,5.334c-1.294,1.756-4.63,4.638-5.999,6.336
		c-1.393,1.728-4.073,5.316-5,7.332c-0.937,2.038-2.089,6.436-2.333,8.665c-0.409,3.732,0.474,11.253,0.667,15.003
		c0.22,4.252,0.353,12.79,0.999,16.998c0.156,1.02,0.703,3.014,1.002,4c0.719,2.371,2.77,6.918,3.331,9.331
		c1.159,4.983,1.62,15.267,2.332,20.333c0.424,3.012,1.606,8.982,2.002,11.998c0.25,1.908,0.181,5.808,0.669,7.669
		c0.512,1.948,2.34,5.58,3.331,7.334c0.796,1.408,2.647,4.075,3.666,5.332c1.411,1.741,4.693,4.82,6.176,6.501
		c1.175,1.332,3.72,3.904,4.5,5.5c0.619,1.267,1.16,4.093,1.25,5.5c0.123,1.942-0.877,5.808-0.75,7.75
		c0.108,1.664,1.041,4.896,1.5,6.5c0.582,2.033,2.109,5.984,2.75,8c0.81,2.544,2.2,7.702,3,10.25c0.53,1.688,1.846,4.99,2.25,6.713
		c0.521,2.221,0.769,6.808,1.25,9.037c0.372,1.721,1.633,5.028,2,6.75c0.395,1.85,1.161,5.615,1,7.5c-0.179,2.088-1.657,6.081-2.5,8
		c-1.104,2.513-4.687,6.879-5.5,9.5c-0.725,2.335-0.836,7.307-0.75,9.75c0.06,1.705,0.838,5.052,1,6.75
		c0.273,2.864,0.135,8.646,0.5,11.5c0.341,2.663,2.277,7.815,2.25,10.5c-0.021,2.147-2,8.5-1.25,8.5s2.298,8.109,3.25,10.75
		c0.948,2.63,3.915,7.424,5,10c1.344,3.188,4.25,12.25,4.75,13s4.261,7.879,5,10.75c0.578,2.247,0.71,6.931,0.75,9.25
		c0.046,2.69-0.508,8.06-0.5,10.75c0.007,2.378,0.316,7.129,0.5,9.5c0.189,2.443,0.845,7.305,1,9.75
		c0.159,2.496-0.019,7.514,0.25,10c0.178,1.646,1.059,4.856,1.25,6.5c0.174,1.491,0.392,4.506,0.25,6
		c-0.31,3.26-2.254,9.562-3,12.75c-1.067,4.562-3.288,13.665-4.25,18.25c-0.326,1.556-0.774,4.71-1.167,6.25
		c-0.325,1.277-0.598,4.229-1.667,5c-0.54,0.39-2.265-0.532-2.666,0c-0.365,0.484,0.582,1.732,0.666,2.333
		c0.185,1.32,0.185,4.013,0,5.333c-0.336,2.403-2.462,6.915-2.666,9.334c-0.127,1.504,0.853,4.502,0.666,6
		c-0.264,2.119-2.704,5.885-3,8c-0.429,3.063,1.046,9.24,1,12.333c-0.033,2.264-0.62,6.769-1,9c-0.561,3.288-2.505,9.701-3,13
		c-0.348,2.313-0.505,7-0.666,9.333c-0.259,3.749-0.331,11.302-1,15c-0.31,1.713-2.09,4.929-2,6.667
		c0.056,1.082,1.405,2.948,1.666,4c0.222,0.894,0.365,2.747,0.334,3.667c-0.071,2.108-0.967,6.256-1.334,8.333
		c-0.458,2.591-2.142,7.706-2,10.333c0.061,1.133,1.191,3.209,1.334,4.334c0.22,1.738-0.362,5.248-0.334,7
		c0.033,2.09,0.412,6.259,0.667,8.333c0.062,0.503,0.405,1.498,0.333,2c-0.444,3.071-3.847,8.49-5.416,11.167
		c-2.044,3.484-6.724,10.098-9.25,13.25c-3.182,3.97-10.381,11.188-13.75,15c-4.913,5.558-14.23,17.12-19.25,22.583
		c-7.934,8.635-24.401,25.361-33,33.334c-5.375,4.984-17.159,13.808-22.333,19c-3.465,3.478-9.604,11.165-12.667,15
		c-2.46,3.079-7.273,9.331-9.5,12.583c-2.617,3.821-7.688,11.605-9.751,15.753c-1.492,3-3.637,9.372-4.834,12.501
		c-1.051,2.746-3.149,8.241-4.167,11c-0.598,1.62-1.684,4.9-2.334,6.5c-0.491,1.209-1.656,3.548-2.166,4.749
		c-0.998,2.35-2.778,7.139-3.75,9.5c-1.087,2.64-3.34,7.888-4.498,10.497c-1.338,3.017-3.832,9.154-5.502,12.001
		c-1.554,2.649-5.161,7.665-7.248,9.918c-2.963,3.199-9.708,8.797-13.253,11.334c-3.19,2.283-10.218,5.851-13.5,7.999
		c-3.221,2.107-9.418,6.688-12.497,8.998c-3.85,2.889-11.379,8.892-15.252,11.748c-4.188,3.089-12.556,9.3-17.003,12
		c-5.591,3.394-17.308,9.263-23.247,12.001c-6.008,2.771-18.424,7.384-24.5,10c-5.421,2.334-16.009,7.587-21.5,9.748
		c-7.485,2.946-22.819,7.865-30.501,10.253c-9.125,2.836-27.403,8.518-36.751,10.499c-7.471,1.584-22.685,3.211-30.25,4.248
		c-7.934,1.088-23.822,3.108-31.749,4.249c-7.323,1.054-21.958,3.25-29.25,4.5c-7.961,1.365-23.981,3.782-31.747,6.004
		c-5.479,1.567-15.78,6.649-21.25,8.25c-6.67,1.952-20.663,3.289-27.252,5.501c-5.326,1.788-15.11,7.475-20.248,9.749
		c-5.179,2.292-15.836,6.174-21,8.5c-5.521,2.486-16.15,8.33-21.681,10.794c-4.973,2.215-15.268,5.806-20.249,8.001
		c-5.218,2.299-15.541,7.186-20.5,10c-3.181,1.806-9.303,5.836-12.251,8c-2.935,2.154-8.625,6.726-11.251,9.248
		c-3.384,3.25-9.571,10.335-12.498,14.002c-2.152,2.696-6.189,8.312-8.001,11.248c-2.524,4.093-7.078,12.591-9.001,16.998
		c-1.668,3.822-4.242,11.775-5.5,15.752c-1.449,4.584-4.368,13.771-5.249,18.498c-0.874,4.689-1.531,14.233-1.75,18.998
		c-0.175,3.809-0.309,11.45,0,15.25c0.282,3.472,1.527,10.343,2.251,13.75c0.819,3.855,2.672,11.538,4.001,15.249
		c1.462,4.081,5.266,11.896,7.249,15.751c1.613,3.136,5.119,9.264,6.998,12.249c1.699,2.7,5.399,7.901,7.251,10.499
		c2.387,3.348,7.272,9.966,9.75,13.248c2.523,3.343,7.544,10.057,10.252,13.252c3.031,3.576,9.662,10.221,12.748,13.748
		c3.362,3.843,9.683,11.87,13.001,15.75c2.389,2.792,7.419,8.16,9.751,11c2.491,3.032,7.067,9.416,9.499,12.496
		c2.505,3.172,7.629,9.425,10.249,12.502c2.325,2.73,7.448,7.807,9.5,10.748c2.112,3.028,5.444,9.653,7.002,13
		c1.788,3.84,4.578,11.856,6.247,15.75c1.058,2.469,3.622,7.216,4.502,9.753c1.053,3.035,2.349,9.35,3,12.496
		c0.592,2.857,1.779,8.59,2.002,11.499c0.253,3.304,0.037,9.95-0.252,13.251c-0.281,3.214-1.459,9.568-2.001,12.749
		c-0.406,2.381-1.219,7.144-1.749,9.5c-0.639,2.839-2.179,8.456-3.001,11.247c-0.631,2.142-2.049,6.379-2.747,8.5
		c-1.724,5.238-5.198,15.705-7.003,20.916c-1.578,4.559-4.974,13.59-6.5,18.166c-0.98,2.938-2.7,8.892-3.667,11.835
		c-0.99,3.017-3.092,9.01-4.166,11.998c-1.052,2.928-3.229,8.757-4.332,11.666c-0.982,2.59-3.1,7.713-4.001,10.332
		c-0.751,2.182-1.976,6.634-2.668,8.835c-0.763,2.425-2.63,7.178-3.165,9.663c-0.406,1.885-0.845,5.74-0.834,7.669
		c0.008,1.385,0.283,4.169,0.666,5.5c0.217,0.752,0.951,2.15,1.333,2.833c0.631,1.13,2.001,3.341,2.834,4.332
		c0.588,0.7,2.031,1.844,2.667,2.501c0.616,0.638,1.722,2.026,2.334,2.667c1.914,2.002,5.899,5.859,7.999,7.666
		c2.792,2.403,8.866,6.607,11.667,9.001c4.795,4.098,13.763,12.984,18.333,17.331c3.845,3.656,11.269,11.259,15.335,14.666
		c3.245,2.719,10.326,7.397,13.666,9.999c2.988,2.327,9.27,6.733,11.666,9.665c1.676,2.05,3.761,6.995,5,9.334
		c1.85,3.491,5.534,10.484,7.335,14.002c2.717,5.308,8.385,15.823,10.666,21.332c1.311,3.164,3.188,9.77,4.333,12.997
		c2.53,7.133,8.089,21.218,10.666,28.333c3.366,9.292,10.416,27.793,13.002,37.332c2.822,10.41,6.46,31.71,8.332,42.332
		c1.127,6.395,2.98,19.253,4.001,25.666c1.552,9.754,4.62,29.269,6.334,38.996c1.472,8.354,5.031,24.951,6.333,33.334
		c1.597,10.285,3.484,31.033,4.999,41.331c0.923,6.275,3.339,18.736,4.334,25.001c1.188,7.483,2.997,22.539,4.334,29.997
		c0.842,4.698,3.097,13.979,3.999,18.666c1.215,6.309,3.252,18.997,4.332,25.331c0.753,4.416,2.354,13.231,3.002,17.664
		c0.497,3.406,1.287,10.247,1.666,13.668c0.342,3.086,0.683,9.304,1.236,12.359c0.307,1.69,1.489,4.943,1.763,6.639
		c0.438,2.72,0.467,8.254,0.667,11.001c0.286,3.921,1.077,11.744,1.334,15.667c0.239,3.662,0.508,10.997,0.667,14.663
		c0.174,4.001,0.512,12.002,0.666,16.003c0.181,4.665,0.663,13.993,0.667,18.662c0.005,4.921-0.583,14.75-0.667,19.67
		c-0.069,4.082,0.095,12.25,0,16.332c-0.084,3.585-0.293,10.764-0.666,14.33c-0.483,4.62-2.003,13.797-2.999,18.334
		c-1.205,5.489-4.397,16.28-6.002,21.666c-1.174,3.939-3.992,11.679-4.997,15.664c-1.659,6.577-3.421,20.07-5.001,26.667
		c-0.829,3.462-3.051,10.234-4.001,13.665c-1.494,5.395-4.567,16.177-5.666,21.666c-1.535,7.673-3.297,23.243-4.335,30.998
		c-1.025,7.661-3.425,22.953-3.916,30.666c-0.354,5.572,0,16.751,0,22.335c0,5.75,0,17.249,0,22.999c0,4.582,0,13.748,0,18.33
		c0,3.75-0.271,11.259,0,14.999c0.407,5.627,2.29,16.774,3.25,22.334c1.012,5.862,2.864,17.662,4.667,23.331
		c1.492,4.693,5.278,13.896,8.001,18c2.021,3.046,7.145,8.383,9.999,10.666c3.851,3.08,12.782,7.447,17.001,10
		c3.779,2.287,11.11,7.239,14.999,9.334c5.089,2.74,16.007,6.757,21.002,9.665c5.676,3.305,16.101,11.365,21.333,15.335
		c4.25,3.225,13.246,9.237,16.666,13.332c2.247,2.69,5.55,9.01,6.666,12.332c1.047,3.117,2.03,9.712,2,13
		c-0.041,4.398-1.689,13.137-3,17.335c-1.122,3.594-4.303,10.492-6.332,13.663c-2.358,3.686-8.659,9.874-11.336,13.334
		c-2.928,3.785-8.141,11.828-10.999,15.665c-2.41,3.235-7.946,9.192-9.999,12.665c-2.071,3.504-4.841,11.213-6.332,15
		c-1.333,3.385-4.906,10.029-5.002,13.666c-0.06,2.267,1.81,6.568,2.667,8.667c1.029,2.519,3.29,7.551,5.001,9.666
		c1.899,2.348,6.754,6.094,9.331,7.667c2.868,1.75,9.169,4.211,12.336,5.332c3.507,1.241,10.771,2.93,14.333,4.001
		c5.199,1.563,15.578,4.774,20.667,6.665c3.815,1.418,11.343,4.548,15,6.334c3.688,1.801,10.839,5.848,14.332,8
		c2.656,1.637,7.81,5.165,10.334,6.999c2.307,1.676,6.73,5.275,9,7c2.562,1.946,7.76,5.737,10.334,7.666
		c3.094,2.318,9.049,7.293,12.333,9.333c4.274,2.654,13.368,7.033,17.999,9c4.149,1.762,12.559,5.24,17.002,6.002
		c4.436,0.76,13.499,0,17.999,0c4.334,0,13.005-0.173,17.335,0c4.177,0.167,12.489,1.165,16.666,1.332
		c3.831,0.153,11.506-0.197,15.335,0c4.853,0.25,14.574,1.014,19.332,2c3.251,0.674,9.658,2.593,12.666,3.998
		c3.226,1.507,9.897,4.793,11.999,7.666c1.527,2.088,2.504,7.42,2.668,10.002c0.277,4.363-1.452,13.049-2.334,17.331
		c-0.75,3.644-2.815,10.807-4,14.333c-1.084,3.227-3.814,9.476-5,12.666c-1.322,3.558-3.63,10.794-4.999,14.334
		c-1.534,3.97-6.665,11.41-6.665,15.666"/>
</g>
<g id="Entfernungen">
	
		<line fill="none" stroke="#1E1E1C" stroke-width="3" stroke-miterlimit="10" x1="2152.819" y1="58.254" x2="2185.204" y2="61.751"/>
	
		<line fill="none" stroke="#1E1E1C" stroke-width="3" stroke-miterlimit="10" x1="2128.721" y1="226.008" x2="2161.283" y2="226.848"/>
	
		<line fill="none" stroke="#1E1E1C" stroke-width="3" stroke-miterlimit="10" x1="2053.547" y1="380.634" x2="2085.722" y2="375.556"/>
	
		<line fill="none" stroke="#1E1E1C" stroke-width="3" stroke-miterlimit="10" x1="1979.357" y1="521.629" x2="1993.938" y2="550.757"/>
	
		<line fill="none" stroke="#1E1E1C" stroke-width="3" stroke-miterlimit="10" x1="1813.232" y1="591.443" x2="1812.923" y2="624.015"/>
	<text transform="matrix(1 0 0 1 2188.4609 67)" fill="#010202" font-family="'MyriadPro-Regular'" font-size="12">0 km</text>
	<text transform="matrix(1 0 0 1 2088.46 378.999)" fill="#010202" font-family="'MyriadPro-Regular'" font-size="12">10 km</text>
	<text transform="matrix(1 0 0 1 1993.9385 562.3315)" fill="#010202" font-family="'MyriadPro-Regular'" font-size="12">15 km</text>
	
		<line fill="none" stroke="#1E1E1C" stroke-width="3" stroke-miterlimit="10" x1="1638.572" y1="680.307" x2="1659.724" y2="705.08"/>
	<text transform="matrix(1 0 0 1 1659.4385 717.8315)" fill="#010202" font-family="'MyriadPro-Regular'" font-size="12">25 km</text>
	<text transform="matrix(1 0 0 1 1798.4385 636.8315)" fill="#010202" font-family="'MyriadPro-Regular'" font-size="12">20 km</text>
	
		<line fill="none" stroke="#1E1E1C" stroke-width="3" stroke-miterlimit="10" x1="1458.561" y1="620.484" x2="1460.734" y2="652.986"/>
	
		<line fill="none" stroke="#1E1E1C" stroke-width="3" stroke-miterlimit="10" x1="1354.33" y1="761.493" x2="1382.992" y2="776.974"/>
	
		<line fill="none" stroke="#1E1E1C" stroke-width="3" stroke-miterlimit="10" x1="1366.815" y1="977.457" x2="1399.169" y2="973.651"/>
	
		<line fill="none" stroke="#1E1E1C" stroke-width="3" stroke-miterlimit="10" x1="1444.07" y1="1133.344" x2="1475.949" y2="1140.054"/>
	
		<line fill="none" stroke="#1E1E1C" stroke-width="3" stroke-miterlimit="10" x1="1409.862" y1="1348.835" x2="1442.399" y2="1350.444"/>
	
		<line fill="none" stroke="#1E1E1C" stroke-width="3" stroke-miterlimit="10" x1="1418.597" y1="1553.511" x2="1447.708" y2="1538.89"/>
	
		<line fill="none" stroke="#1E1E1C" stroke-width="3" stroke-miterlimit="10" x1="1492.864" y1="1692.937" x2="1516.096" y2="1715.774"/>
	
		<line fill="none" stroke="#1E1E1C" stroke-width="3" stroke-miterlimit="10" x1="1328.724" y1="1822.492" x2="1358.294" y2="1836.161"/>
	<text transform="matrix(1 0 0 1 1447.0078 664.8374)" fill="#010202" font-family="'MyriadPro-Regular'" font-size="12">30 km</text>
	<text transform="matrix(1 0 0 1 1387.0078 782.8374)" fill="#010202" font-family="'MyriadPro-Regular'" font-size="12">35 km</text>
	<text transform="matrix(1 0 0 1 1405.0078 977.4565)" fill="#010202" font-family="'MyriadPro-Regular'" font-size="12">40 km</text>
	<text transform="matrix(1 0 0 1 1482.5078 1144.9565)" fill="#010202" font-family="'MyriadPro-Regular'" font-size="12">45 km</text>
	<text transform="matrix(1 0 0 1 1447.0078 1354.9565)" fill="#010202" font-family="'MyriadPro-Regular'" font-size="12">50 km</text>
	<text transform="matrix(1 0 0 1 1456.0078 1537.8901)" fill="#010202" font-family="'MyriadPro-Regular'" font-size="12">55 km</text>
	<text transform="matrix(1 0 0 1 1516.5078 1730.8901)" fill="#010202" font-family="'MyriadPro-Regular'" font-size="12">60 km</text>
	
		<line fill="none" stroke="#1E1E1C" stroke-width="3" stroke-miterlimit="10" x1="1312.607" y1="1971.366" x2="1325.352" y2="2001.345"/>
	
		<line fill="none" stroke="#1E1E1C" stroke-width="3" stroke-miterlimit="10" x1="992.117" y1="2104.962" x2="1021.267" y2="2090.419"/>
	
		<line fill="none" stroke="#1E1E1C" stroke-width="3" stroke-miterlimit="10" x1="832.827" y1="2173.091" x2="834.905" y2="2140.582"/>
	<text transform="matrix(1 0 0 1 1325.0078 2013.8901)" fill="#010202" font-family="'MyriadPro-Regular'" font-size="12">70 km</text>
	
		<line fill="none" stroke="#1E1E1C" stroke-width="3" stroke-miterlimit="10" x1="1160.562" y1="2085.4" x2="1179.396" y2="2111.98"/>
	<text transform="matrix(1 0 0 1 1180.0078 2123.2241)" fill="#010202" font-family="'MyriadPro-Regular'" font-size="12">75 km</text>
	
		<line fill="none" stroke="#1E1E1C" stroke-width="3" stroke-miterlimit="10" x1="423.611" y1="2185.451" x2="452.348" y2="2200.795"/>
	<text transform="matrix(1 0 0 1 455.0078 2210.6577)" fill="#010202" font-family="'MyriadPro-Regular'" font-size="12">95 km</text>
	
		<line fill="none" stroke="#1E1E1C" stroke-width="3" stroke-miterlimit="10" x1="754.8" y1="2613.607" x2="786.997" y2="2608.644"/>
	<text transform="matrix(1 0 0 1 788.9268 2611.6616)" fill="#010202" font-family="'MyriadPro-Regular'" font-size="12">110 km</text>
	
		<line fill="none" stroke="#1E1E1C" stroke-width="3" stroke-miterlimit="10" x1="781.682" y1="2783.629" x2="814.191" y2="2785.718"/>
	<text transform="matrix(1 0 0 1 815.9648 2789.2085)" fill="#010202" font-family="'MyriadPro-Regular'" font-size="12">115 km</text>
	
		<line fill="none" stroke="#1E1E1C" stroke-width="3" stroke-miterlimit="10" x1="1325.085" y1="2897.869" x2="1357.595" y2="2899.958"/>
	<text transform="matrix(1 0 0 1 1359.3682 2903.4487)" fill="#010202" font-family="'MyriadPro-Regular'" font-size="12">100 km</text>
	
		<line fill="none" stroke="#1E1E1C" stroke-width="3" stroke-miterlimit="10" x1="757.923" y1="3020.964" x2="789.169" y2="3030.178"/>
	<text transform="matrix(1 0 0 1 790.5742 3035.1069)" fill="#010202" font-family="'MyriadPro-Regular'" font-size="12">120 km</text>
	
		<line fill="none" stroke="#1E1E1C" stroke-width="3" stroke-miterlimit="10" x1="628.372" y1="3165.651" x2="656.053" y2="3182.826"/>
	<text transform="matrix(1 0 0 1 658.2412 3189.7729)" fill="#010202" font-family="'MyriadPro-Regular'" font-size="12">125 / 120 km</text>
	
		<line fill="none" stroke="#1E1E1C" stroke-width="3" stroke-miterlimit="10" x1="86.625" y1="3448.173" x2="111.131" y2="3469.636"/>
	
		<line fill="none" stroke="#1E1E1C" stroke-width="3" stroke-miterlimit="10" x1="86.621" y1="3661.281" x2="112.086" y2="3640.965"/>
	
		<line fill="none" stroke="#1E1E1C" stroke-width="3" stroke-miterlimit="10" x1="173.172" y1="3822.486" x2="205.619" y2="3825.371"/>
	<text transform="matrix(1 0 0 1 93.9072 3485.4409)" fill="#010202" font-family="'MyriadPro-Regular'" font-size="12">140 / 135 km</text>
	<text transform="matrix(1 0 0 1 115.9072 3634.7749)" fill="#010202" font-family="'MyriadPro-Regular'" font-size="12">145 / 140 km</text>
	
		<line fill="none" stroke="#1E1E1C" stroke-width="3" stroke-miterlimit="10" x1="170.396" y1="4019.154" x2="191.321" y2="3994.187"/>
	<text transform="matrix(1 0 0 1 194.4121 3991.3218)" fill="#010202" font-family="'MyriadPro-Regular'" font-size="12">155 / 150 km</text>
	<line fill="none" stroke="#1E1E1C" stroke-width="3" stroke-miterlimit="10" x1="360.508" y1="5001.8" x2="374.12" y2="4972.207"/>
	<text transform="matrix(1 0 0 1 353.8672 4962.6558)" fill="#010202" font-family="'MyriadPro-Regular'" font-size="12">180 / 175 km</text>
	
		<line fill="none" stroke="#1E1E1C" stroke-width="3" stroke-miterlimit="10" x1="553.227" y1="5268.391" x2="560.402" y2="5236.617"/>
	<text transform="matrix(1 0 0 1 534.8672 5230.1558)" fill="#010202" font-family="'MyriadPro-Regular'" font-size="12">190 / 185 km</text>
	<text transform="matrix(1 0 0 1 209.9072 3829.1069)" fill="#010202" font-family="'MyriadPro-Regular'" font-size="12">150 / 145 km</text>
	
		<line fill="none" stroke="#1E1E1C" stroke-width="3" stroke-miterlimit="10" x1="271.691" y1="4191.9" x2="303.836" y2="4186.625"/>
	<text transform="matrix(1 0 0 1 306.2754 4188.4409)" fill="#010202" font-family="'MyriadPro-Regular'" font-size="12">160 / 155 km</text>
	
		<line fill="none" stroke="#1E1E1C" stroke-width="3" stroke-miterlimit="10" x1="306.275" y1="4394.567" x2="338.42" y2="4389.292"/>
	<text transform="matrix(1 0 0 1 340.8594 4391.1089)" fill="#010202" font-family="'MyriadPro-Regular'" font-size="12">165 / 160 km</text>
	
		<line fill="none" stroke="#1E1E1C" stroke-width="3" stroke-miterlimit="10" x1="327.445" y1="4593.984" x2="359.994" y2="4595.291"/>
	<text transform="matrix(1 0 0 1 364.2314 4599.8159)" fill="#010202" font-family="'MyriadPro-Regular'" font-size="12">170 / 165 km</text>
	
		<line fill="none" stroke="#1E1E1C" stroke-width="3" stroke-miterlimit="10" x1="290.908" y1="4807.318" x2="323.457" y2="4808.625"/>
	<text transform="matrix(1 0 0 1 327.6943 4813.1499)" fill="#010202" font-family="'MyriadPro-Regular'" font-size="12">175 / 170 km</text>
	
		<line fill="none" stroke="#1E1E1C" stroke-width="3" stroke-miterlimit="10" x1="370.938" y1="5168.89" x2="400.428" y2="5155.052"/>
	<text transform="matrix(1 0 0 1 404.1943 5157.1499)" fill="#010202" font-family="'MyriadPro-Regular'" font-size="12">185 / 180 km</text>
	
		<line fill="none" stroke="#1E1E1C" stroke-width="3" stroke-miterlimit="10" x1="625.225" y1="5347.15" x2="656.235" y2="5357.121"/>
	<text transform="matrix(1 0 0 1 659.2412 5363.314)" fill="#010202" font-family="'MyriadPro-Regular'" font-size="12">195 / 190 km</text>
	
		<line fill="none" stroke="#1E1E1C" stroke-width="3" stroke-miterlimit="10" x1="488.317" y1="3309.642" x2="502.775" y2="3338.833"/>
	<text transform="matrix(1 0 0 1 480.5752 3355.7729)" fill="#010202" font-family="'MyriadPro-Regular'" font-size="12">130 / 125 km</text>
	
		<line fill="none" stroke="#1E1E1C" stroke-width="3" stroke-miterlimit="10" x1="275.65" y1="3361.642" x2="290.108" y2="3390.833"/>
	<text transform="matrix(1 0 0 1 265.9082 3407.7729)" fill="#010202" font-family="'MyriadPro-Regular'" font-size="12">135 / 130 km</text>
	<text transform="matrix(1 0 0 1 1025.2666 2089.3901)" fill="#010202" font-family="'MyriadPro-Regular'" font-size="12">80 km</text>
	
		<line fill="none" stroke="#1E1E1C" stroke-width="3" stroke-miterlimit="10" x1="1263.157" y1="2209.832" x2="1276.936" y2="2180.312"/>
	<text transform="matrix(1 0 0 1 1281.6211 2177.7729)" fill="#010202" font-family="'MyriadPro-Regular'" font-size="12">80 km</text>
	
		<line fill="none" stroke="#1E1E1C" stroke-width="3" stroke-miterlimit="10" x1="504.967" y1="2396.199" x2="531.417" y2="2377.183"/>
	<text transform="matrix(1 0 0 1 533.7666 2375.3901)" fill="#010202" font-family="'MyriadPro-Regular'" font-size="12">100 km</text>
	<text transform="matrix(1 0 0 1 822.2666 2187.8901)" fill="#010202" font-family="'MyriadPro-Regular'" font-size="12">85 km</text>
	
		<line fill="none" stroke="#1E1E1C" stroke-width="3" stroke-miterlimit="10" x1="1392.409" y1="2357.483" x2="1424.815" y2="2354.16"/>
	<text transform="matrix(1 0 0 1 1429.0127 2357.564)" fill="#010202" font-family="'MyriadPro-Regular'" font-size="12">85 km</text>
	
		<line fill="none" stroke="#1E1E1C" stroke-width="3" stroke-miterlimit="10" x1="1314.946" y1="2707.23" x2="1347.353" y2="2703.907"/>
	<text transform="matrix(1 0 0 1 1351.5498 2707.312)" fill="#010202" font-family="'MyriadPro-Regular'" font-size="12">95 km</text>
	
		<line fill="none" stroke="#1E1E1C" stroke-width="3" stroke-miterlimit="10" x1="617.42" y1="2181.711" x2="623.312" y2="2149.672"/>
	<text transform="matrix(1 0 0 1 603.7666 2195.7456)" fill="#010202" font-family="'MyriadPro-Regular'" font-size="12">90 km</text>
	
		<line fill="none" stroke="#1E1E1C" stroke-width="3" stroke-miterlimit="10" x1="1436.547" y1="2557.541" x2="1415.248" y2="2532.891"/>
	<text transform="matrix(1 0 0 1 1436.9619 2570.2905)" fill="#010202" font-family="'MyriadPro-Regular'" font-size="12">90 km</text>
	
		<line fill="none" stroke="#1E1E1C" stroke-width="3" stroke-miterlimit="10" x1="1229.159" y1="3095.464" x2="1219.81" y2="3064.258"/>
	<text transform="matrix(1 0 0 1 1219.5488 3110.9351)" fill="#010202" font-family="'MyriadPro-Regular'" font-size="12">105 km</text>
	
		<line fill="none" stroke="#1E1E1C" stroke-width="3" stroke-miterlimit="10" x1="1026.755" y1="3145.77" x2="1024.04" y2="3113.306"/>
	<text transform="matrix(1 0 0 1 1012.4619 3159.6128)" fill="#010202" font-family="'MyriadPro-Regular'" font-size="12">110 km</text>
	
		<line fill="none" stroke="#1E1E1C" stroke-width="3" stroke-miterlimit="10" x1="812.41" y1="3112.593" x2="824.805" y2="3082.465"/>
	<text transform="matrix(1 0 0 1 796.6719 3126.603)" fill="#010202" font-family="'MyriadPro-Regular'" font-size="12">115 km</text>
	
		<line fill="none" stroke="#1E1E1C" stroke-width="3" stroke-miterlimit="10" x1="723.648" y1="2448.536" x2="739.084" y2="2419.848"/>
	<text transform="matrix(1 0 0 1 702.7666 2462.2456)" fill="#010202" font-family="'MyriadPro-Regular'" font-size="12">105 km</text>
	<text transform="matrix(1 0 0 1 1363.5078 1840.8901)" fill="#010202" font-family="'MyriadPro-Regular'" font-size="12">65 km</text>
</g>
</svg>
