<?xml version="1.0" encoding="utf-8"?>
<!-- Generator: Adobe Illustrator 15.0.2, SVG Export Plug-In . SVG Version: 6.00 Build 0)  -->
<!DOCTYPE svg PUBLIC "-//W3C//DTD SVG 1.1//EN" "http://www.w3.org/Graphics/SVG/1.1/DTD/svg11.dtd">
<svg version="1.1" xmlns="http://www.w3.org/2000/svg" xmlns:xlink="http://www.w3.org/1999/xlink" x="0px" y="0px"
	 width="1059.459px" height="2286.486px" viewBox="0 0 1059.459 2286.486" enable-background="new 0 0 1059.459 2286.486"
	 xml:space="preserve">
<g id="Ebene_1">
	<path fill="none" stroke="#BE1622" stroke-width="15" stroke-miterlimit="10" stroke-opacity="0.5" d="M175,2180.522
		c0,0,31.976-3.748,42.667-4.666c7.986-0.686,24.001-2.521,32-2c6.948,0.453,20.925,2.611,27.333,5.333
		c5.618,2.386,15.324,10.077,20,14c4.153,3.484,11.082,11.97,15.333,15.333c5.223,4.133,16.699,11.042,22.667,14
		c6.24,3.093,19.209,8.456,26,10c8.152,1.854,24.976,2.864,33.333,2.667c7.895-0.186,23.538-2.737,31.333-4
		c10.229-1.657,30.934-4.446,40.667-8c11.633-4.246,32.483-18.03,43.333-24c12.481-6.867,37.892-19.828,50-27.333
		c9.156-5.676,26.946-17.906,35.333-24.667c10.88-8.771,31.808-27.473,41-38c13.822-15.829,36.4-51.825,45-71
		c8.192-18.268,15.541-58.05,22-77c8.072-23.685,27.292-69.938,37-93c7.643-18.154,24.241-53.895,32-72
		c11.612-27.098,34.063-81.623,45-109c14.415-36.087,41.735-108.854,56-145c12.764-32.344,38.897-96.792,52-129
		c9.674-23.781,27.849-71.875,39-95c5.348-11.089,20.9-31.086,24-43c2.392-9.194,2.102-28.735,0-38c-2.82-12.432-16.88-34.326-22-46
		c-4.326-9.863-15.636-29.235-16-40c-0.302-8.929,8.515-25.419,11-34c2.801-9.668,8.625-29.029,10-39
		c1.476-10.695,1.803-32.409,1-43.176c-0.978-13.114-3.244-40-9-51.824c-6.043-12.414-26.932-31.553-37-41
		c-13.496-12.663-43.544-34.445-58-46c-9.027-7.216-26.242-22.808-36-29c-8.686-5.511-27.754-13.491-37-18
		c-11.255-5.489-33.315-17.495-45-22c-10.926-4.212-33.405-11.359-45-13c-13.367-1.892-40.739,2.529-54,0
		c-12.678-2.418-36.428-13.286-48-19c-3.921-1.936-12.062-5.761-15-9c-7.439-8.198-14.357-29.95-19-40
		c-5.631-12.19-16.755-36.639-22-49c-4.207-9.915-12.138-29.946-16-40c-5.445-14.176-16.004-42.659-21-57
		c-6.06-17.395-18.573-52.119-23-70c-3.595-14.522-6.456-44.465-10-59c-3.296-13.519-12.675-39.774-17-53
		c-4.423-13.525-14.661-40.167-18-54c-3.145-13.03-8.063-39.596-8.112-53c-0.039-10.61,5.053-31.442,6.112-42
		c0.9-8.969,2.52-27.001,2-36c-0.688-11.904-3.561-35.979-8.112-47c-3.966-9.601-17.81-25.576-23.888-34
		c-4.915-6.812-14.145-20.977-20-27c-6.205-6.384-20.517-17.178-28-22c-12.313-7.935-38.463-21.405-52-27
		c-13.08-5.406-39.896-15.827-54-17c-12.579-1.046-38.467,1.871-50,7c-9.242,4.111-24.486,18.262-31,26c-8.008,9.513-32,43-32,43"/>
	<path fill="none" stroke="#BE1622" stroke-width="15" stroke-miterlimit="10" stroke-opacity="0.5" d="M487,530.189
		c0,0-30.372-27.45-41-36c-12.818-10.312-39.03-30.312-53-39c-12.914-8.031-39.395-23.766-54-28c-13.978-4.052-43.478-4.039-58-5
		c-13.553-0.897-40.954-2.22-54-6c-10.417-3.018-29.919-13.07-39-19c-9.059-5.916-25.448-20.252-33-28
		c-8.067-8.275-21.784-26.973-29-36c-5.777-7.228-17.788-21.354-23-29c-5.047-7.405-15.53-22.385-18-31
		c-2.688-9.377-3.59-29.527-1.261-39c3.428-13.943,28.261-50,28.261-50"/>
</g>
<g id="Ebene_4">
	<circle fill="#1D1D1B" cx="177.667" cy="2180.522" r="10"/>
	<text transform="matrix(1 0 0 1 150.0439 2215.355)" font-family="'MyriadPro-Regular'" font-size="24">0 km</text>
	<circle fill="#1D1D1B" cx="300.667" cy="2197.213" r="10"/>
	<text transform="matrix(1 0 0 1 273.0439 2232.0464)" font-family="'MyriadPro-Regular'" font-size="24">5 km</text>
	<circle fill="#1D1D1B" cx="423.888" cy="2232.213" r="10"/>
	<text transform="matrix(1 0 0 1 396.2651 2267.0464)" font-family="'MyriadPro-Regular'" font-size="24">10 km</text>
	<circle fill="#1D1D1B" cx="569.388" cy="2166.106" r="10"/>
	<text transform="matrix(1 0 0 1 573.7656 2200.939)" font-family="'MyriadPro-Regular'" font-size="24">15 km</text>
	<circle fill="#1D1D1B" cx="659" cy="2078.189" r="10"/>
	<text transform="matrix(1 0 0 1 663.377 2113.021)" font-family="'MyriadPro-Regular'" font-size="24">20 km</text>
	<circle fill="#1D1D1B" cx="967" cy="1312.189" r="10"/>
	<text transform="matrix(1 0 0 1 971.377 1347.021)" font-family="'MyriadPro-Regular'" font-size="24">50 km</text>
	<circle fill="#1D1D1B" cx="951" cy="1157.095" r="10"/>
	<text transform="matrix(1 0 0 1 973.377 1165.9272)" font-family="'MyriadPro-Regular'" font-size="24">55 km</text>
	<circle fill="#1D1D1B" cx="583.766" cy="781.095" r="10"/>
	<text transform="matrix(1 0 0 1 600.1426 772.9277)" font-family="'MyriadPro-Regular'" font-size="24">80 km</text>
	<circle fill="#1D1D1B" cx="484.812" cy="528.095" r="10"/>
	<text transform="matrix(1 0 0 1 501.1895 519.9277)" font-family="'MyriadPro-Regular'" font-size="24">90 km</text>
	<circle fill="#1D1D1B" cx="197.623" cy="403.095" r="10"/>
	<text transform="matrix(1 0 0 1 208 391.9277)" font-family="'MyriadPro-Regular'" font-size="24">100 km</text>
	<circle fill="#1D1D1B" cx="441.889" cy="224.095" r="10"/>
	<text transform="matrix(1 0 0 1 458.2656 220.9277)" font-family="'MyriadPro-Regular'" font-size="24">100 km</text>
	<circle fill="#1D1D1B" cx="202.812" cy="68.978" r="10"/>
	<text transform="matrix(1 0 0 1 192.189 35.8105)" font-family="'MyriadPro-Regular'" font-size="24">115 km</text>
	<circle fill="#1D1D1B" cx="145.312" cy="132.978" r="10"/>
	<text transform="matrix(1 0 0 1 59.689 121.8105)" font-family="'MyriadPro-Regular'" font-size="24">120 km</text>
	<circle fill="#1D1D1B" cx="110" cy="186.773" r="10"/>
	<text transform="matrix(1 0 0 1 22.3774 178.6055)" font-family="'MyriadPro-Regular'" font-size="24">110 km</text>
</g>
</svg>
