<?xml version="1.0" encoding="utf-8"?>
<!-- Generator: Adobe Illustrator 15.0.2, SVG Export Plug-In . SVG Version: 6.00 Build 0)  -->
<!DOCTYPE svg PUBLIC "-//W3C//DTD SVG 1.1//EN" "http://www.w3.org/Graphics/SVG/1.1/DTD/svg11.dtd">
<svg version="1.1" xmlns="http://www.w3.org/2000/svg" xmlns:xlink="http://www.w3.org/1999/xlink" x="0px" y="0px"
	 width="1931.728px" height="2241.728px" viewBox="0 0 1931.728 2241.728" enable-background="new 0 0 1931.728 2241.728"
	 xml:space="preserve">
<g id="Routen">
	<path fill="none" stroke="#312783" stroke-width="10" stroke-miterlimit="10" d="M681.75,706.375"/>
	<path fill="none" stroke="#312783" stroke-width="15" stroke-miterlimit="10" stroke-opacity="0.5" stroke-dasharray="12" d="
		M328.833,1562c-1.301-4.158-7.381-10.791-9.667-14.5c-2.213-3.591-6.214-11.021-8.333-14.667c-1.68-2.892-5.157-8.606-6.833-11.5
		c-1.104-1.905-3.773-5.538-4.333-7.667c-0.328-1.249-0.055-3.876,0-5.166c0.062-1.463,0.095-4.427,0.5-5.834
		c0.454-1.575,2.349-4.328,3-5.833c0.79-1.826,1.879-5.673,2.667-7.5c0.833-1.934,2.809-5.66,3.833-7.5
		c1.019-1.829,2.95-5.595,4.333-7.167c1.195-1.358,4.078-3.635,5.667-4.5c2.858-1.556,9.259-3.097,12.333-4.166
		c2.801-0.975,8.584-2.542,11.167-4c1.264-0.714,3.509-2.607,4.5-3.667c1.082-1.157,3.021-3.721,3.667-5.167
		c1.774-3.979,2.964-12.73,3.833-17c1.58-7.76,4.251-23.375,5.667-31.166c1.96-10.792,5.831-32.383,7.833-43.167
		c1.223-6.588,3.888-19.726,5-26.333c1-5.938,2.742-17.859,3.5-23.833c0.739-5.819,1.728-17.519,2.5-23.334
		c0.35-2.635,1.628-7.843,1.667-10.5c0.051-3.571-1.339-10.63-1.833-14.167c-0.816-5.842-2.593-17.505-3.5-23.333
		c-0.604-3.878-2.386-11.576-2.5-15.5c-0.06-2.052,0.146-6.233,0.833-8.167c0.584-1.644,2.729-4.482,3.833-5.833
		c3.863-4.72,12.92-12.956,17.333-17.167c4.054-3.868,12.416-11.331,16.5-15.167c7.325-6.88,21.793-20.83,29-27.833
		c5.198-5.051,16.484-14.414,20.667-20.333c0.796-1.126,1.845-3.71,2.333-5c2.708-7.151,5.968-22.179,8.667-29.333
		c1.329-3.523,4.658-10.294,6.333-13.667c1.344-2.704,4.119-8.074,5.667-10.667c1.848-3.096,6.096-8.938,8-12
		c0.966-1.554,3.142-4.58,3.667-6.333c1.676-5.598,0.875-17.508,1.333-23.333c0.131-1.669,0.275-5.038,0.667-6.667
		c0.482-2.001,2.206-5.769,3-7.667c2.606-6.229,8.304-18.477,11-24.667c3.146-7.223,9.028-21.848,12.333-29
		c1.72-3.721,5.15-11.196,7.333-14.667c3.984-6.335,13.694-17.794,18.333-23.667c2.388-3.023,7.924-8.564,9.667-12
		c0.585-1.154,1.174-3.716,1.333-5c1.51-12.158-0.646-36.749-0.667-49c-0.014-8.083,0.292-24.25,0.333-32.333
		c0.013-2.5-0.419-7.535,0-10c0.296-1.741,1.634-5.046,2.333-6.667c3.086-7.152,10.642-20.807,14.333-27.667
		c1.538-2.858,4.564-8.612,6.333-11.333c1.773-2.729,5.885-7.856,8.333-10c3.409-2.986,11.507-7.239,15.333-9.667
		c3.006-1.908,8.994-5.759,12-7.667c3.826-2.428,11.296-7.608,15.333-9.667c3.199-1.631,9.928-4.198,13.333-5.333
		c3.183-1.062,9.722-2.62,13-3.333c3.227-0.702,9.762-1.687,13-2.333c2.05-0.409,6.133-1.308,8.167-1.792
		c4.269-1.017,12.75-3.282,17-4.375c2.917-0.75,8.824-2.005,11.667-3c3.75-1.312,10.987-4.646,14.5-6.5
		c2.68-1.414,7.823-4.637,10.333-6.333c2.625-1.773,7.756-5.491,10.333-7.333c3.885-2.778,11.578-8.441,15.5-11.167
		c4.119-2.862,12.524-8.339,16.667-11.167c5.365-3.662,16.044-11.062,21.333-14.833c4.371-3.116,12.997-9.505,17.333-12.667
		c1.832-1.335,5.695-3.766,7.333-5.333c2.271-2.173,6.075-7.228,7.833-9.833c1.42-2.103,4.076-6.47,5-8.833
		c0.997-2.551,2.299-7.935,2.5-10.667c0.295-4.003-0.663-12.042-1.333-16c-0.446-2.63-2.076-7.732-2.667-10.333
		c-0.574-2.526-1.432-7.639-2-10.167c-0.745-3.312-2.561-9.861-3.333-13.167c-1.086-4.647-2.987-14.003-4-18.667
		c-0.987-4.544-3.004-13.624-4-18.167c-0.795-3.625-2.599-10.833-3.167-14.5c-0.416-2.688-0.925-8.115-1-10.833
		c-0.062-2.25,0.044-6.767,0.333-9c0.367-2.837,1.554-8.467,2.5-11.167c0.628-1.794,2.314-5.229,3.333-6.833
		c1.461-2.302,4.955-6.523,6.833-8.5c1.769-1.861,5.559-5.367,7.667-6.833c1.897-1.32,6.047-3.412,8.167-4.333
		c3.638-1.58,11.202-4.024,15-5.167c5.11-1.537,15.495-4.02,20.667-5.333c2.165-0.55,6.434-2.23,8.667-2.167
		c0.698,0.02,2.028,0.549,2.667,0.833c0.973,0.433,2.605,2.089,3.667,2.167c1.211,0.089,3.661-0.955,4.5-1.833
		c0.473-0.496,0.687-1.938,0.917-2.583c0.312-0.875,0.56-2.878,1.25-3.5c3.346-3.012,13.142-3.119,17.5-4.25
		c6.59-1.71,19.703-5.383,26.25-7.25c6.39-1.822,19.104-5.7,25.5-7.5c7.414-2.087,22.358-5.838,29.75-8
		c6.166-1.803,18.326-5.974,24.5-7.75c6.454-1.857,19.527-4.963,26-6.75c2.574-0.71,7.602-2.656,10.25-3
		c2.356-0.306,7.135,0.019,9.5,0.25c2.966,0.29,8.807,1.535,11.75,2c2.995,0.473,9.064,0.995,12,1.75
		c3.62,0.931,10.503,3.928,14,5.25c3.941,1.49,11.738,4.712,15.75,6c2.338,0.75,7.064,2.185,9.5,2.5c2.355,0.305,7.131,0.166,9.5,0
		c3.589-0.25,10.674-1.606,14.25-2c7.79-0.857,23.423-2.098,31.25-2.5c8.179-0.42,24.561-0.656,32.75-0.75
		c7.188-0.083,21.562,0.062,28.75,0c14.377-0.125,43.125-0.774,57.5-1c13.312-0.209,39.938-0.542,53.25-0.75
		c14.625-0.228,43.874-0.797,58.5-1c12.687-0.176,38.064-0.271,50.75-0.541c13.379-0.285,40.129-1.17,53.5-1.709
		c7.69-0.311,23.057-1.273,30.75-1.5c12.12-0.358,36.376-0.333,48.5-0.5c7.25-0.1,21.753-0.27,29-0.5
		c10.818-0.343,32.429-1.75,43.25-2c7.686-0.178,23.062,0,30.75,0c1.5,0,4.503-0.097,6,0c3.396,0.219,10.133,1.255,13.5,1.75
		c4.574,0.672,13.718,2.084,18.25,3c8.044,1.625,31.916,7.669,31.916,7.669"/>
	<path fill="none" stroke="#312783" stroke-width="15" stroke-miterlimit="10" stroke-opacity="0.5" d="M24,1955.001
		c0,0,11.253,0.709,15,1c3.753,0.292,11.259,0.912,15,1.333c3.678,0.414,11.048,1.226,14.667,2
		c2.888,0.618,8.558,2.323,11.333,3.333c1.368,0.498,3.896,2.104,5.333,2.334c2.563,0.409,7.739-0.925,10.333-1
		c2.167-0.063,6.501,0.222,8.667,0.333c2.585,0.133,7.753,0.455,10.333,0.667c3.338,0.274,10.002,0.975,13.333,1.333
		c2.169,0.233,6.546,0.493,8.667,1c2.333,0.558,7.057,4.74,9,3.333c1.824-1.32-0.325-6.748-0.333-9
		c-0.011-2.834,0.292-8.499,0.333-11.333c0.027-1.833-0.555-5.586,0-7.333c0.588-1.853,4-5.667,4-6.667s2.554-9.433,2.667-12.667
		c0.188-5.395-2.692-15.974-3.333-21.333c-0.238-1.993-1.132-6.048-0.667-8c0.591-2.475,3.856-6.596,5.333-8.667
		c1.753-2.458,6.581-6.516,7.667-9.333c0.63-1.635,0.464-5.253,0.333-7c-0.223-2.967-2.3-8.692-2.333-11.667
		c-0.017-1.438,0.875-4.232,1-5.666c0.16-1.826,0.165-5.509,0-7.334c-0.167-1.855-1.32-5.47-1.333-7.333
		c-0.015-2.027,0.865-6.027,1.333-8c0.584-2.462,2.395-7.21,3-9.667c0.771-3.127,1.388-9.588,2.333-12.666
		c0.548-1.783,2.42-5.061,3-6.834c0.597-1.825,1.154-5.649,1.667-7.5c0.457-1.65,1.573-4.894,2.167-6.5
		c0.92-2.489,2.633-7.559,4-9.833c1.707-2.84,5.875-8.146,8.5-10.167c2.26-1.739,7.801-3.521,10.333-4.833
		c2.386-1.236,7.377-3.49,9.333-5.333c2.607-2.457,6.021-8.909,7.833-12c2.045-3.489,5.157-11.038,7.5-14.334
		c2.152-3.027,8.043-7.786,10.167-10.833c1.971-2.828,3.876-9.757,6.167-12.333c5.299-5.959,19.784-13.475,26.667-17.501
		c6.804-3.98,21.315-10.322,28-14.5c5.151-3.22,15.11-10.301,19.5-14.5c3.146-3.01,9.289-9.497,11-13.5
		c1.188-2.78,1.901-9.003,1.5-12c-0.305-2.277-2.636-6.371-3.5-8.5c-1.013-2.495-3.491-7.356-4-10c-0.543-2.823-0.857-8.756,0-11.5
		c0.589-1.887,3.381-4.871,4.5-6.5c1.885-2.743,6.372-7.869,7.5-11c1.362-3.779,1.349-11.985,1.5-16
		c0.084-2.249,0.505-6.853-0.167-9"/>
	<path fill="none" stroke="#312783" stroke-width="15" stroke-miterlimit="10" stroke-opacity="0.5" d="M1778.666,402.669
		c14.084,11.88,9.615,11.94,30,22.667c6.996,3.682,22.107,9.551,30,10c22.671,1.29,12.912,0.433,47.334-10"/>
	<path fill="none" stroke="#006633" stroke-width="15" stroke-miterlimit="10" stroke-opacity="0.5" stroke-dasharray="12" d="
		M881.25,176.25c0-4.178,10.477-6.903,13.75-9.5c2.842-2.255,8.243-7.127,10.75-9.75c4.876-5.103,13.625-16.211,18-21.75
		c3.734-4.729,10.091-15.144,14.5-19.25c1.853-1.725,6.229-4.384,8.5-5.5c4.045-1.988,12.757-4.48,17-6
		c6.198-2.221,19.172-5.501,24.75-9c2.733-1.714,6.825-6.872,9.25-9c4.012-3.522,12.6-9.891,16.75-13.25
		c4.037-3.268,11.483-10.686,16-13.25c1.73-0.982,5.517-2.493,7.5-2.662c4.887-0.417,14.502,2.489,19.333,3.333
		c13.172,2.302,39.582,6.576,52.667,9.333c15.782,3.326,46.838,12.238,62.667,15.333c15.707,3.072,47.592,6.441,63.334,9.332
		c19.807,3.637,59.139,12.412,78.666,17.333c15.962,4.023,47.367,13.997,63.334,18c16.71,4.19,50.47,11.145,67.333,14.667
		c19.134,3.997,57.494,11.531,76.667,15.333c19.494,3.866,59.175,8.964,78,15.333c13.556,4.587,39.462,17.341,51.333,25.333
		c9.989,6.725,28.129,22.887,36,32c12.51,14.482,31.705,47.867,42,64c8.335,13.062,25.746,38.804,32.667,52.667
		c2.875,5.76,7.382,17.865,9.333,24c2.291,7.203,7.333,29.333,7.333,29.333"/>
	<path fill="none" stroke="#006633" stroke-width="15" stroke-miterlimit="10" stroke-opacity="0.5" d="M682.5,719.875
		c-0.129-1.697-0.781-5.051-0.875-6.75c-0.093-1.685-0.168-5.088,0.125-6.75c0.401-2.277,2.428-6.509,3-8.75
		c0.596-2.334,1.468-7.095,1.625-9.5c0.167-2.557,0.053-7.693-0.125-10.25c-0.183-2.629-1.213-7.825-1.333-10.458
		c-0.105-2.312,0.309-6.936,0.333-9.25c0.03-2.833,0.082-8.511-0.167-11.333c-0.217-2.46-0.667-7.457-1.583-9.75
		c-0.768-1.921-3.335-5.25-4.667-6.833c-1.365-1.624-4.756-4.261-6.083-5.917c-1.913-2.386-5.008-7.702-6.417-10.417
		c-1.096-2.113-3.214-6.431-3.75-8.75c-0.383-1.657-0.582-5.11-0.333-6.792c0.354-2.396,2.221-6.933,3.25-9.125
		c1.327-2.829,5.571-7.731,6.375-10.75c0.555-2.084,0.003-6.472-0.125-8.625c-0.107-1.788-0.407-5.367-0.75-7.125
		c-0.324-1.66-1.652-4.823-1.875-6.5c-0.243-1.828,0.045-5.533,0.125-7.375c0.155-3.568,0.983-10.679,1-14.25
		c0.015-3.1-0.308-9.307-0.75-12.375c-0.398-2.761-1.828-8.167-2.5-10.875c-0.351-1.413-1.78-4.197-1.5-5.625
		c0.279-1.423,2.452-3.623,3.5-4.625c1.755-1.677,6.012-4.107,8-5.5c1.541-1.08,4.671-3.181,6.125-4.375
		c1.127-0.926,3.303-2.89,4.25-4c1.299-1.523,3.501-4.89,4.5-6.625c0.864-1.502,2.63-4.557,3-6.25
		c0.38-1.741,0.001-5.348-0.125-7.125c-0.071-1.005-0.065-3.091-0.5-4c-0.563-1.176-2.685-2.846-3.625-3.75
		c-0.846-0.813-2.72-2.249-3.5-3.125c-0.939-1.056-2.458-3.455-3.25-4.625c-0.898-1.328-2.503-4.119-3.5-5.375
		c-0.646-0.814-2.315-2.125-2.875-3c-0.507-0.792-1.383-2.56-1.375-3.5c0.009-0.981,0.928-2.828,1.5-3.625
		c0.581-0.81,2.134-2.132,3-2.625c1.657-0.944,5.461-1.713,7.25-2.375c2.22-0.822,6.525-2.814,8.75-3.625
		c1.17-0.426,3.667-0.887,4.75-1.5c0.944-0.534,2.652-1.97,3.25-2.875c0.545-0.824,1.32-2.764,1.25-3.75
		c-0.055-0.767-0.953-2.108-1.375-2.75c-0.853-1.297-2.95-3.606-4-4.75c-1.046-1.14-3.45-3.135-4.375-4.375
		c-0.51-0.684-1.416-2.173-1.625-3c-0.084-0.333-0.171-1.077,0-1.375c0.649-1.129,3.399-1.929,4.5-2.625
		c1.919-1.213,5.642-3.819,7.5-5.125c3.406-2.394,10.331-7.051,13.5-9.75c1.952-1.662,6.269-4.882,7.25-7.25
		c1.435-3.464-0.255-11.259,0-15c0.219-3.21,1.213-9.578,1.75-12.75c1.213-7.167,4.141-21.412,5.75-28.5
		c1.356-5.972,4.221-17.89,6-23.75c1.407-4.634,3.912-14.156,6.5-18.25c1.842-2.914,6.979-7.699,9.75-9.75
		c2.674-1.979,8.999-4.378,11.75-6.25c4.142-2.818,11.587-9.583,15.25-13c3.199-2.985,8.641-10.027,12.25-12.5
		c6.005-4.115,20.262-8.2,26.75-11.5c5.245-2.667,15.774-8.179,20.25-12c5.435-4.64,13.243-16.901,18.25-22
		c4.564-4.648,19.75-10.485,19.75-17"/>
	<path fill="none" stroke="#006633" stroke-width="15" stroke-miterlimit="10" stroke-opacity="0.5" stroke-dasharray="12" d="
		M722.25,1643.75c-0.628-3.984-2.718-11.793-3.5-15.75c-1.278-6.472-3.128-19.548-4.5-26c-1.167-5.486-4.351-16.261-5.5-21.75
		c-0.935-4.465-1.9-13.572-3-18c-0.81-3.261-3.703-9.435-4.25-12.75c-33.77-204.694,179.75-475.5-19-829.625"/>
	<path fill="none" stroke="#006633" stroke-width="15" stroke-miterlimit="10" stroke-opacity="0.5" d="M44.333,1976.334
		c0,0,10.037-0.142,13.333-0.667c2.815-0.449,8.302-2.08,11-3c2.9-0.988,8.461-3.598,11.333-4.666c1.729-0.644,5.199-1.936,7-2.334
		c2.866-0.634,8.734-1.19,11.667-1.333c2.498-0.121,7.502,0.053,10,0.166c2.254,0.103,6.753,0.457,9,0.667
		c2.589,0.242,7.75,0.872,10.333,1.167c2.167,0.247,6.551,0.474,8.667,1c1.997,0.497,5.814,2.104,7.667,2.999
		c1.042,0.504,3.083,1.627,4,2.334c0.793,0.611,2.138,2.112,2.833,2.833c1.146,1.188,3.361,3.638,4.5,4.833
		c1.606,1.686,4.896,4.98,6.5,6.667c1.646,1.73,5.065,5.091,6.5,7c1.459,1.942,4.168,6.051,5,8.333
		c0.997,2.735,1.319,8.635,1.833,11.5c0.451,2.51,1.483,7.504,2,10c0.605,2.921,1.878,8.749,2.5,11.667
		c0.754,3.541,2.182,10.641,3,14.167c0.961,4.145,2.695,12.508,4.167,16.5c1.334,3.619,4.894,10.499,6.833,13.833
		c1.72,2.957,5.489,8.695,7.667,11.333c1.763,2.136,5.536,6.287,7.833,7.834c1.952,1.314,6.423,2.957,8.667,3.666
		c2.641,0.835,8.087,1.969,10.833,2.334c4.756,0.633,14.373,0.793,19.167,1c3.665,0.158,11.04-0.047,14.667,0.5
		c3.458,0.521,10.239,2.402,13.5,3.666c3.319,1.286,9.657,4.6,12.667,6.5c3.192,2.016,9.138,6.705,12,9.167
		c2.592,2.229,7.46,7.04,9.833,9.5c2.294,2.379,6.738,7.277,8.833,9.833c2.208,2.694,6.07,8.519,8.333,11.167
		c3.217,3.763,10.106,10.909,13.833,14.167c2.893,2.528,9.141,7.029,12.333,9.166c2.221,1.486,6.68,4.522,9.167,5.5
		c2.616,1.028,8.252,1.738,11,2.334c4.713,1.021,14.106,3.214,18.833,4.166c4.11,0.828,12.324,2.623,16.5,3
		c3.942,0.355,11.882,0.24,15.833,0c3.436-0.209,10.35-0.747,13.667-1.667c3.253-0.902,9.367-3.888,12.333-5.5
		c3.493-1.898,9.905-6.653,13.333-8.666c2.925-1.718,8.779-5.27,12-6.334c3.122-1.031,9.712-2.045,13-2
		c4.192,0.057,12.44,1.954,16.5,3.001c4.172,1.076,12.24,4.154,16.333,5.5c4.531,1.49,13.512,4.792,18.167,5.833
		c3.158,0.706,9.6,1.563,12.833,1.667c3.213,0.104,9.683-0.191,12.833-0.834c3.332-0.68,9.714-3.146,12.833-4.5
		c3.795-1.647,11.358-5.182,14.667-7.666c3.323-2.495,8.896-8.762,11.5-12c3.049-3.792,7.793-12.368,10.833-16.167
		c2.836-3.544,9.42-9.833,12.5-13.167c2.623-2.84,7.019-9.511,10.333-11.5c3.717-2.231,12.621-3.144,16.833-4.166
		c4.371-1.061,13.125-3.126,17.5-4.167c3.333-0.793,10.028-2.266,13.333-3.167c3.408-0.93,10.235-2.819,13.5-4.166
		c2.653-1.095,7.538-4.181,10.167-5.334c1.134-0.498,4.015-0.613,4.667-1.666c2.209-3.568-1.384-12.516-2-16.667
		c-1.298-8.748-4.459-26.156-6.167-34.833c-3.342-16.984-11.091-50.729-14.667-67.666c-2.565-12.153-7.193-36.567-10-48.667
		c-2.781-11.991-9.047-35.805-12.333-47.667c-1.021-3.685-2.99-11.087-4.333-14.666c-3.225-8.587-13-24.463-15.333-33.334
		c-1.021-3.882-2.375-12.123-1.333-16c1.211-4.51,8.071-11.451,10.667-15.333c2.657-3.974,7.55-12.199,10.333-16.084
		c4.793-6.688,15.913-18.919,20.5-25.75c4.352-6.481,11.649-20.323,15.25-27.25c5.184-9.971,17.117-29.519,19.5-40.5
		c1.247-5.742-0.161-17.634-0.5-23.5c-0.383-6.644-1.464-19.927-2.5-26.5"/>
	<path fill="none" stroke="#006633" stroke-width="15" stroke-miterlimit="10" stroke-opacity="0.5" d="M1778.666,402.669
		c14.084,11.88,9.615,11.94,30,22.667c6.996,3.682,22.107,9.551,30,10c22.671,1.29,12.912,0.433,47.334-10"/>
</g>
<g id="Entfernungen">
	<circle fill="#1D1D1B" cx="1679.5" cy="224.296" r="9"/>
	<text transform="matrix(1 0 0 1 1702 211.9629)" font-family="'MyriadPro-Regular'" font-size="24">5 km</text>
	<circle fill="#1D1D1B" cx="1585.5" cy="393.669" r="9"/>
	<text transform="matrix(1 0 0 1 1563.333 432.002)" font-family="'MyriadPro-Regular'" font-size="24">5 km</text>
	<circle fill="#1D1D1B" cx="1256" cy="399.796" r="9"/>
	<text transform="matrix(1 0 0 1 1229.833 433.1294)" font-family="'MyriadPro-Regular'" font-size="24">10 km</text>
	<circle fill="#1D1D1B" cx="935.666" cy="424.129" r="9"/>
	<text transform="matrix(1 0 0 1 909.499 457.4624)" font-family="'MyriadPro-Regular'" font-size="24">15 km</text>
	<circle fill="#1D1D1B" cx="829" cy="632.129" r="9"/>
	<text transform="matrix(1 0 0 1 842.832 655.4624)" font-family="'MyriadPro-Regular'" font-size="24">20 km</text>
	<circle fill="#1D1D1B" cx="575.132" cy="784.464" r="9"/>
	<text transform="matrix(1 0 0 1 503.4023 780.375)" font-family="'MyriadPro-Regular'" font-size="24">25 km</text>
	<circle fill="#1D1D1B" cx="478.058" cy="1084.682" r="9"/>
	<text transform="matrix(1 0 0 1 401.3291 1078.5928)" font-family="'MyriadPro-Regular'" font-size="24">30 km</text>
	<circle fill="#1D1D1B" cx="369.726" cy="1358.799" r="9"/>
	<text transform="matrix(1 0 0 1 292.9971 1352.7109)" font-family="'MyriadPro-Regular'" font-size="24">35 km</text>
	<circle fill="#1D1D1B" cx="323.793" cy="1638.75" r="9"/>
	<text transform="matrix(1 0 0 1 244.0645 1642.6621)" font-family="'MyriadPro-Regular'" font-size="24">40 km</text>
	<circle fill="#1D1D1B" cx="162.058" cy="1872.147" r="9"/>
	<text transform="matrix(1 0 0 1 82.3291 1876.0586)" font-family="'MyriadPro-Regular'" font-size="24">40 km</text>
	<circle fill="#1D1D1B" cx="25.333" cy="1955.489" r="9"/>
	<text transform="matrix(1 0 0 1 7.6367 1931.4629)" font-family="'MyriadPro-Regular'" font-size="24">48,5 km</text>
	<circle fill="#1D1D1B" cx="1376.166" cy="130.296" r="9"/>
	<text transform="matrix(1 0 0 1 1387.666 109.9629)" font-family="'MyriadPro-Regular'" font-size="24">10 km</text>
	<circle fill="#1D1D1B" cx="1075.5" cy="64.964" r="9"/>
	<text transform="matrix(1 0 0 1 1087 44.6304)" font-family="'MyriadPro-Regular'" font-size="24">15 km</text>
	<circle fill="#1D1D1B" cx="824.5" cy="225.964" r="9"/>
	<text transform="matrix(1 0 0 1 754 209.6304)" font-family="'MyriadPro-Regular'" font-size="24">20 km</text>
	<circle fill="#1D1D1B" cx="698.39" cy="749.464" r="9"/>
	<text transform="matrix(1 0 0 1 717.3906 748.4639)" font-family="'MyriadPro-Regular'" font-size="24">30 km</text>
	<circle fill="#1D1D1B" cx="769" cy="1037" r="9"/>
	<text transform="matrix(1 0 0 1 787 1040)" font-family="'MyriadPro-Regular'" font-size="24">35 km</text>
	<circle fill="#1D1D1B" cx="708.393" cy="1403.666" r="9"/>
	<text transform="matrix(1 0 0 1 726.3926 1406.666)" font-family="'MyriadPro-Regular'" font-size="24">40 km</text>
	<circle fill="#1D1D1B" cx="724.393" cy="1664.999" r="9"/>
	<text transform="matrix(1 0 0 1 741.3926 1673)" font-family="'MyriadPro-Regular'" font-size="24">45 km</text>
	<circle fill="#1D1D1B" cx="686.393" cy="1952.332" r="9"/>
	<text transform="matrix(1 0 0 1 703.3926 1960.332)" font-family="'MyriadPro-Regular'" font-size="24">50 km</text>
	<circle fill="#1D1D1B" cx="581.726" cy="2180.332" r="9"/>
	<text transform="matrix(1 0 0 1 589.7266 2211.332)" font-family="'MyriadPro-Regular'" font-size="24">55 km</text>
	<circle fill="#1D1D1B" cx="280.393" cy="2111.665" r="9"/>
	<text transform="matrix(1 0 0 1 220.3926 2148.666)" font-family="'MyriadPro-Regular'" font-size="24">60 km</text>
	<circle fill="#1D1D1B" cx="44.333" cy="1976.332" r="9"/>
	<text transform="matrix(1 0 0 1 18.5957 2009.332)" font-family="'MyriadPro-Regular'" font-size="24">65,5 km</text>
	<circle fill="#1D1D1B" cx="1884" cy="425.796" r="9"/>
	<text transform="matrix(1 0 0 1 1906.5 413.4629)" font-family="'MyriadPro-Regular'" font-size="24">0 km</text>
</g>
</svg>
