<?xml version="1.0" encoding="utf-8"?>
<!-- Generator: Adobe Illustrator 15.0.2, SVG Export Plug-In . SVG Version: 6.00 Build 0)  -->
<!DOCTYPE svg PUBLIC "-//W3C//DTD SVG 1.1//EN" "http://www.w3.org/Graphics/SVG/1.1/DTD/svg11.dtd">
<svg version="1.1" xmlns="http://www.w3.org/2000/svg" xmlns:xlink="http://www.w3.org/1999/xlink" x="0px" y="0px"
	 width="2843.167px" height="7591px" viewBox="0 0 2843.167 7591" enable-background="new 0 0 2843.167 7591" xml:space="preserve" preserveAspectRatio="none">
<g id="Flussverlauf_-_dicker">
	<path fill="none" stroke="#312783" stroke-width="35" stroke-miterlimit="10" stroke-opacity="0.5" d="M2760.167,7562.667
		c0,0-4.074-3.802-5.333-5.166c-0.934-1.012-2.65-3.167-3.5-4.25c-1.011-1.289-2.798-4.055-3.917-5.25
		c-0.768-0.82-2.569-2.179-3.416-2.917c-0.757-0.659-2.27-1.979-3-2.667c-0.687-0.647-2.154-1.874-2.667-2.666
		c-0.667-1.029-1.39-3.412-1.75-4.584c-0.346-1.125-0.79-3.443-1.083-4.583c-0.388-1.508-1.212-4.511-1.667-6
		c-0.365-1.197-1.283-3.535-1.583-4.75c-0.278-1.127-0.581-3.435-0.75-4.583c-0.306-2.078-0.948-6.238-1.084-8.334
		c-0.085-1.31-0.124-3.943,0-5.25c0.104-1.098,0.485-3.287,0.834-4.333c0.345-1.034,1.613-2.87,1.916-3.917
		c0.535-1.852,0.686-5.743,0.834-7.666c0.14-1.809,0.201-5.44,0.333-7.25c0.122-1.671,0.465-5.004,0.667-6.667
		c0.178-1.462,0.404-4.424,0.833-5.833c0.391-1.283,1.828-3.591,2.333-4.834c0.545-1.343,1.284-4.159,1.834-5.5
		c0.555-1.354,1.929-3.941,2.583-5.25c0.668-1.337,2.079-3.977,2.708-5.333c0.485-1.046,1.51-3.132,1.792-4.25
		c0.215-0.853,0.457-2.63,0.334-3.5c-0.135-0.953-0.897-2.771-1.417-3.583c-0.326-0.509-1.151-1.435-1.667-1.75
		c-1.131-0.69-3.771-1.311-5.083-1.5c-1.052-0.152-3.188-0.024-4.25,0c-2.21,0.052-6.622,0.423-8.833,0.416
		c-1.94-0.006-5.851-0.02-7.75-0.416c-1.22-0.255-3.679-0.991-4.667-1.75c-0.853-0.654-2.042-2.527-2.5-3.5
		c-0.449-0.955-0.993-3.032-1.083-4.084c-0.139-1.626,0.366-4.883,0.583-6.5c0.188-1.405,0.478-4.266,1-5.583
		c0.422-1.063,1.846-2.896,2.5-3.833c0.878-1.258,2.726-3.706,3.667-4.917c0.954-1.228,2.85-3.701,3.916-4.833
		c1.122-1.191,3.634-3.303,4.833-4.417c1.532-1.425,4.375-4.542,6.084-5.75c1.605-1.135,5.319-2.562,7-3.583
		c1.29-0.783,3.806-2.479,4.916-3.5c1.164-1.071,3.261-3.482,4.084-4.833c0.622-1.021,1.611-3.242,1.833-4.417
		c0.193-1.024,0.091-3.14-0.083-4.167c-0.201-1.188-1.09-3.449-1.5-4.583c-0.442-1.223-1.332-3.673-1.917-4.833
		c-0.409-0.812-1.392-2.343-1.917-3.084c-0.865-1.221-2.805-3.507-3.75-4.666c-0.646-0.792-2.416-2.917-2.583-3.167
		s-2.603-2.983-3.666-3.75c-0.794-0.572-2.549-1.525-3.501-1.75c-0.871-0.206-2.689,0.061-3.583,0
		c-1.238-0.084-3.688-0.49-4.917-0.667c-1.772-0.256-5.331-0.709-7.083-1.083c-1.606-0.344-4.78-1.215-6.333-1.75
		c-1.131-0.39-3.442-1.141-4.417-1.834c-0.817-0.582-1.996-2.254-2.667-3c-1.636-1.821-4.895-5.478-6.583-7.25
		c-1.829-1.92-5.683-5.569-7.5-7.5c-1.659-1.763-5.031-5.266-6.417-7.25c-1.734-2.483-4.228-8.046-5.749-10.666
		c-1.937-3.334-6.132-9.809-8.167-13.084c-1.693-2.726-5.151-8.134-6.75-10.916c-1.281-2.23-3.606-6.823-4.833-9.084
		c-1.396-2.574-4.474-7.575-5.667-10.249c-0.62-1.39-1.641-4.271-2-5.75c-0.209-0.859-0.376-2.625-0.5-3.5
		c-0.189-1.334-0.656-3.99-0.75-5.334c-0.066-0.956,0.135-2.885,0-3.833c-0.189-1.332-1.013-3.913-1.5-5.167
		c-0.613-1.58-2.199-4.589-3-6.083c-1.765-3.291-5.638-9.681-7.5-12.917c-1.447-2.515-4.257-7.595-5.75-10.083
		c-1.407-2.345-4.057-7.173-5.834-9.25c-0.846-0.987-2.98-2.515-3.916-3.417c-1.315-1.269-3.702-4.046-5-5.333
		c-1.287-1.277-4.015-3.672-5.333-4.917c-1.307-1.234-3.94-3.686-5.167-5c-1.17-1.254-3.382-3.882-4.417-5.25
		c-0.94-1.244-2.663-3.85-3.5-5.166c-0.611-0.962-2.03-2.818-2.333-3.917c-0.293-1.064-0.071-3.314,0-4.417
		c0.094-1.446,0.34-4.359,0.75-5.75c0.398-1.35,1.784-3.826,2.417-5.083c0.679-1.349,1.962-4.101,2.833-5.333
		c0.604-0.855,2.094-2.343,2.833-3.084c0.802-0.805,2.421-2.407,3.334-3.083c0.466-0.345,1.456-0.968,2-1.167
		c0.794-0.291,2.487-0.562,3.333-0.583c1.196-0.03,3.571,0.38,4.75,0.583c0.946,0.163,2.812,0.631,3.75,0.834
		c1.082,0.234,3.306,0.504,4.333,0.916c1.138,0.456,3.168,1.873,4.167,2.584c0.7,0.499,2.025,1.596,2.667,2.166
		c0.782,0.695,2.192,2.252,3,2.917c0.509,0.419,1.562,1.236,2.166,1.5c0.528,0.23,1.674,0.481,2.25,0.5
		c1.075,0.034,3.186-0.514,4.25-0.667c1.435-0.206,4.327-0.474,5.75-0.75c1.057-0.205,3.173-0.669,4.167-1.083
		c1.095-0.456,3.112-1.735,4.083-2.417c1.525-1.072,4.359-3.508,5.75-4.75c1.318-1.178,3.924-3.582,5.084-4.916
		c0.998-1.147,2.687-3.688,3.583-4.917c1.248-1.709,3.92-5.013,5-6.833c1.175-1.98,2.933-6.253,3.917-8.334
		c1.223-2.586,3.766-7.715,4.916-10.333c1.32-3.004,4.266-8.951,4.917-12.167c0.261-1.286,0.078-3.938,0.083-5.25
		c0.009-2.438-0.148-7.313-0.083-9.75c0.036-1.335,0.191-4.005,0.333-5.333c0.222-2.074,1.206-6.164,1.25-8.25
		c0.033-1.551-0.209-4.686-0.667-6.167c-0.317-1.024-1.833-3.417-2.083-3.75s-1.815-2.67-2.583-3.416
		c-1.156-1.124-3.998-2.732-5.25-3.75c-1.957-1.591-5.663-5.022-7.417-6.834c-0.843-0.87-2.516-2.645-3.167-3.666
		c-0.847-1.329-1.927-4.317-2.583-5.75c-0.574-1.254-1.87-3.7-2.333-5c-0.541-1.519-1.202-4.684-1.584-6.25
		c-0.411-1.684-1.233-5.053-1.583-6.75c-0.265-1.285-0.647-3.883-0.916-5.167c-0.399-1.908-1.296-5.709-1.834-7.584
		c-0.399-1.393-1.342-4.137-1.833-5.5c-0.546-1.514-1.529-4.605-2.333-6c-0.6-1.04-2.194-2.86-3-3.75
		c-0.86-0.95-2.836-2.607-3.667-3.583c-0.844-0.989-2.394-3.1-3-4.25c-0.922-1.75-1.953-5.606-2.75-7.417
		c-0.68-1.543-2.128-4.61-3.083-6c-1.187-1.728-4.086-4.785-5.584-6.25c-1.605-1.57-5.179-4.314-6.833-5.833
		c-1.639-1.504-4.763-4.676-6.334-6.25c-1.218-1.22-3.885-3.478-4.833-4.916c-0.545-0.827-1.122-2.751-1.5-3.667
		c-0.559-1.356-1.997-3.973-2.25-5.417c-0.302-1.726,0.104-5.263,0.333-7c0.153-1.162,0.734-3.441,1-4.583
		c0.374-1.609,1.202-4.809,1.584-6.417c0.454-1.912,1.586-5.708,1.75-7.666c0.153-1.83-0.307-5.5-0.417-7.334
		c-0.118-1.958-0.395-5.874-0.5-7.833c-0.076-1.416-0.219-4.249-0.25-5.667c-0.028-1.291-0.125-3.881,0-5.166
		c0.115-1.184,0.818-3.481,0.917-4.667c0.127-1.516,0.223-4.612-0.167-6.083c-0.26-0.982-1.363-2.731-1.916-3.584
		c-0.888-1.371-2.96-3.907-4-5.166c-1.345-1.627-4.169-4.767-5.584-6.334c-1.748-1.938-5.352-5.714-7.083-7.666
		c-0.98-1.105-2.81-3.434-3.833-4.5c-1.297-1.351-4.048-3.901-5.5-5.084c-0.834-0.679-2.544-2.009-3.5-2.5
		c-0.803-0.413-2.526-1.019-3.417-1.166c-1.706-0.282-5.189,0.085-6.917,0c-1.275-0.062-3.822-0.298-5.083-0.5
		c-1.981-0.317-5.944-1.073-7.833-1.75c-1.78-0.639-5.121-2.455-6.75-3.417c-1.021-0.603-2.926-2.018-3.917-2.667
		c-1.668-1.093-5.05-3.208-6.75-4.25c-1.386-0.85-4.073-2.732-5.583-3.333c-1.071-0.426-3.354-0.874-4.5-1
		c-1.16-0.127-3.5,0-4.667,0c-2.042,0-6.125,0-8.167,0c-2.083,0-6.277,0.338-8.333,0c-1.411-0.232-4.08-1.326-5.417-1.833
		c-1.606-0.609-4.772-1.949-6.333-2.667c-1.989-0.915-6.057-2.637-7.833-3.917c-1.171-0.844-3.149-2.982-4.084-4.083
		c-0.88-1.036-2.531-3.216-3.166-4.417c-0.652-1.235-1.472-3.926-1.917-5.25c-0.521-1.55-1.393-4.702-1.917-6.25
		c-0.557-1.642-1.77-4.892-2.416-6.5c-0.509-1.264-1.684-3.727-2.167-5c-0.428-1.127-1.222-3.41-1.5-4.583
		c-0.258-1.087-0.699-3.301-0.667-4.417c0.035-1.213,0.506-3.642,1-4.75c0.705-1.579,3.114-4.151,4.084-5.583
		c1.145-1.689,3.168-5.241,4.333-6.917c1.365-1.964,4.473-5.616,5.833-7.583c1.059-1.531,2.971-4.731,3.917-6.334
		c0.863-1.462,2.76-4.318,3.333-5.916c0.321-0.896,0.478-2.816,0.667-3.75c0.354-1.738,0.933-5.267,1.583-6.917
		c0.548-1.39,2.327-3.833,3-5.167c0.85-1.683,2.087-5.267,3-6.916c0.819-1.481,2.871-4.191,3.834-5.584
		c1.141-1.649,3.414-4.954,4.583-6.583c1.103-1.536,3.549-4.448,4.5-6.083c0.698-1.201,1.9-3.738,2.25-5.083
		c0.569-2.187,0.961-6.744,0.833-9c-0.109-1.934-0.96-5.751-1.583-7.584c-0.633-1.861-2.278-5.48-3.417-7.083
		c-0.717-1.009-2.55-2.707-3.5-3.5c-1.264-1.055-3.98-2.943-5.416-3.75c-1.252-0.703-3.926-1.778-5.25-2.333
		c-1.363-0.571-4.108-1.668-5.5-2.167c-1.525-0.548-4.581-1.663-6.167-2c-1.168-0.248-3.557-0.538-4.75-0.5
		c-0.866,0.027-2.601,0.293-3.417,0.583c-0.879,0.312-2.465,1.329-3.25,1.834c-0.715,0.46-2.198,1.354-2.75,2
		c-0.925,1.084-1.932,3.815-2.583,5.083c-0.805,1.566-2.499,4.657-3.25,6.25c-0.704,1.494-1.847,4.604-2.583,6.083
		c-0.707,1.42-2.428,4.096-3.167,5.5c-0.764,1.451-1.988,4.511-2.833,5.917c-0.813,1.354-2.675,3.927-3.75,5.083
		c-1.177,1.266-3.931,3.383-5.25,4.5c-1.141,0.966-3.414,2.904-4.584,3.834c-1.246,0.99-3.843,2.836-5.083,3.833
		c-1.496,1.204-4.3,3.843-5.833,5c-1.356,1.023-4.16,2.965-5.667,3.75c-0.854,0.444-2.647,1.188-3.583,1.416
		c-1.221,0.297-3.746,0.419-5,0.5c-1.436,0.093-4.312,0.222-5.75,0.167c-1.193-0.045-3.572-0.305-4.75-0.5
		c-1.477-0.245-4.354-1.106-5.834-1.333c-2.086-0.319-6.334-0.326-8.416-0.667c-2.543-0.416-7.571-1.64-10-2.5
		c-2.188-0.774-6.441-2.698-8.417-3.917c-1.628-1.004-4.389-3.719-6-4.75c-1.554-0.994-4.951-2.474-6.583-3.333
		c-1.304-0.687-4.01-1.921-5.167-2.833c-0.973-0.767-2.502-2.748-3.333-3.667c-1.296-1.434-3.991-4.217-5.167-5.75
		c-0.907-1.183-2.487-3.719-3.25-5c-0.691-1.161-2.136-3.475-2.583-4.75c-0.47-1.338-0.808-4.179-1-5.583
		c-0.21-1.534-0.624-4.619-0.584-6.167c0.026-1.011,0.407-3.005,0.584-4c0.32-1.803,1.05-5.393,1.5-7.166
		c0.572-2.256,2.028-6.679,2.666-8.917c0.414-1.453,1.163-4.382,1.584-5.833c0.473-1.633,1.451-4.892,2-6.501
		c0.517-1.517,1.624-4.525,2.25-6c0.776-1.827,2.63-5.344,3.416-7.166c0.823-1.907,2.345-5.778,3-7.75
		c0.465-1.396,1.385-4.209,1.584-5.667c0.149-1.095,0.038-3.313,0-4.417c-0.053-1.523-0.148-4.583-0.417-6.083
		c-0.195-1.09-0.826-3.227-1.25-4.25c-0.499-1.205-1.752-3.514-2.5-4.583c-0.524-0.75-1.672-2.219-2.417-2.75
		c-1.027-0.732-3.453-1.574-4.667-1.917c-0.873-0.247-2.677-0.55-3.583-0.583c-0.94-0.034-2.815,0.219-3.75,0.333
		c-1.067,0.131-3.2,0.436-4.25,0.667c-1.48,0.327-4.384,1.222-5.833,1.667c-1.341,0.412-4.023,1.25-5.334,1.75
		c-1.02,0.39-2.962,1.414-4,1.75c-1.217,0.394-3.74,0.864-5,1.083c-1.097,0.19-3.308,0.484-4.416,0.583
		c-1.329,0.118-4.008,0.098-5.334,0.25c-2.293,0.263-6.821,1.207-9.083,1.667c-1.59,0.323-4.777,0.957-6.333,1.416
		c-2.193,0.647-6.507,2.209-8.584,3.167c-1.626,0.75-4.739,2.539-6.25,3.5c-1.537,0.978-4.415,3.219-5.916,4.25
		c-1.438,0.988-4.365,2.892-5.834,3.833c-1.158,0.742-3.535,2.133-4.666,2.917c-1.294,0.897-3.779,2.838-5,3.833
		c-1.282,1.046-3.885,3.112-5,4.334c-0.916,1.003-2.399,3.295-3.167,4.416c-1.098,1.602-3.167,4.889-4.25,6.5
		c-0.594,0.883-1.74,2.68-2.417,3.5c-0.89,1.079-2.918,3.019-3.916,4c-1.124,1.104-3.328,3.38-4.584,4.333
		c-0.774,0.587-2.379,1.818-3.333,2c-0.747,0.142-2.324-0.152-3-0.5c-1.625-0.836-3.757-4.005-5.167-5.167
		c-1.784-1.47-5.838-3.752-7.666-5.166c-1.892-1.463-5.303-4.836-7.167-6.334c-1.488-1.195-4.553-3.481-6.167-4.5
		c-0.961-0.607-2.884-1.946-4-2.166c-1.521-0.3-4.646,0.354-6.166,0.666c-2.518,0.516-7.497,1.93-9.834,3
		c-4.278,1.959-11.821,7.726-15.917,10.042c-4.294,2.429-13.432,6.275-17.625,8.875c-2.523,1.564-7.337,5.092-9.5,7.125
		c-1.405,1.321-3.662,4.485-5,5.875c-2.178,2.263-6.808,6.525-9.25,8.5c-1.43,1.155-4.463,3.242-6,4.25
		c-2.475,1.622-7.377,5.03-10.125,6.125c-2.05,0.816-6.431,1.64-8.625,1.875c-2.797,0.301-8.46,0.352-11.25,0
		c-2.496-0.315-7.324-1.832-9.75-2.5c-2.136-0.588-6.441-1.682-8.5-2.5c-1.792-0.713-5.26-2.445-6.875-3.5
		c-1.859-1.214-5.22-4.145-6.875-5.625c-1.4-1.252-4.147-3.828-5.375-5.25c-1.287-1.49-3.557-4.721-4.625-6.375
		c-1.367-2.116-4.028-6.426-5-8.75c-0.939-2.245-2.161-6.985-2.625-9.375c-0.485-2.5-0.984-7.582-1.125-10.125
		c-0.146-2.621-0.344-7.897,0-10.5c0.283-2.149,1.575-6.314,2.25-8.375c0.563-1.721,2.055-5.031,2.625-6.75
		c0.775-2.339,2.032-7.108,2.625-9.5c0.631-2.547,2.048-7.635,2.25-10.25c0.157-2.029-0.521-6.09-0.5-8.125
		c0.023-2.289,0.536-6.846,0.75-9.125c0.223-2.378,0.374-7.195,1-9.5c0.575-2.119,2.347-6.215,3.625-8
		c1.223-1.708,4.639-4.266,6.125-5.75c1.032-1.031,2.857-3.343,4-4.25c1.557-1.237,5.092-3.12,6.875-4
		c1.696-0.837,5.199-2.296,7-2.875c1.682-0.54,5.218-1.015,6.875-1.625c1.285-0.474,3.643-1.901,4.875-2.5
		c1.145-0.556,3.611-1.356,4.625-2.125c1.077-0.817,2.963-2.884,3.5-4.125c0.661-1.53,0.767-4.958,0.75-6.625
		c-0.014-1.419-0.568-4.218-0.75-5.625c-0.193-1.499-0.458-4.517-0.75-6c-0.3-1.524-1.161-4.517-1.625-6
		c-0.584-1.868-1.683-5.66-2.625-7.375c-0.611-1.112-2.309-3.028-3.125-4c-0.84-0.999-2.601-2.929-3.5-3.875
		c-0.67-0.705-2.032-2.095-2.75-2.75c-1.081-0.987-3.475-2.704-4.5-3.75c-0.841-0.857-2.379-2.723-3-3.75
		c-0.564-0.935-1.34-2.988-1.75-4c-0.603-1.484-1.696-4.497-2.25-6c-0.413-1.122-1.319-3.344-1.625-4.5
		c-0.283-1.073-0.912-3.277-0.75-4.375c0.174-1.175,1.368-3.334,2.125-4.25c1.179-1.427,4.402-3.381,5.875-4.5
		c1.776-1.351,5.469-3.88,7.125-5.375c1.772-1.601,4.779-5.344,6.5-7c1.277-1.229,4.031-3.469,5.375-4.625
		c1.562-1.344,4.833-3.879,6.25-5.375c0.705-0.744,1.996-2.357,2.5-3.25c1.139-2.016,2.76-6.393,3.375-8.625
		c0.404-1.466,0.875-4.484,1-6c0.162-1.962,0.189-5.915,0-7.875c-0.142-1.458-0.713-4.345-1.125-5.75
		c-0.501-1.71-1.781-5.056-2.625-6.625c-0.957-1.779-3.419-5.005-4.625-6.625c-1.382-1.855-4.313-5.437-5.75-7.25
		c-1.782-2.249-5.338-6.755-7.125-9c-0.872-1.096-2.735-3.201-3.5-4.375c-0.961-1.476-2.388-4.714-3.25-6.25
		c-0.946-1.688-3.086-4.92-4-6.625c-0.588-1.097-1.638-3.355-2.125-4.5c-0.55-1.292-1.637-3.894-2-5.25
		c-0.508-1.896-1.108-5.793-1.25-7.75c-0.149-2.058-0.148-6.205,0.125-8.25c0.184-1.375,0.877-4.08,1.375-5.375
		c0.747-1.944,2.824-5.576,3.875-7.375c0.9-1.542,2.84-4.545,3.875-6c1.265-1.777,4.229-5.02,5.375-6.875
		c0.728-1.177,1.776-3.752,2.375-5c0.496-1.033,1.777-3.001,2-4.125c0.305-1.535-0.036-4.722-0.375-6.25
		c-0.35-1.575-1.438-4.687-2.375-6c-0.837-1.173-3.213-2.898-4.375-3.75c-0.86-0.63-2.702-1.715-3.625-2.25
		c-1.137-0.659-3.44-1.93-4.625-2.5c-1.438-0.692-4.401-1.887-5.875-2.5c-0.997-0.414-3.009-1.198-4-1.625
		c-1.388-0.597-4.148-1.826-5.5-2.5c-1.465-0.729-4.358-2.265-5.75-3.125c-1.394-0.861-4.2-2.608-5.375-3.75
		c-0.753-0.731-1.941-2.486-2.5-3.375c-1.034-1.645-2.942-5.056-3.625-6.875c-0.857-2.285-2.014-7.07-2.25-9.5
		c-0.157-1.618-0.064-4.904,0.25-6.5c0.287-1.458,1.875-5.125,2.25-5.5s3.907-3.504,5.25-4.625c1.229-1.026,3.814-2.924,5-4
		c1.194-1.084,3.438-3.411,4.5-4.625c1.1-1.256,3.166-3.884,4.125-5.25c0.848-1.206,2.537-3.648,3.125-5
		c0.529-1.217,1.212-3.809,1.375-5.125c0.246-1.985,0.05-6.008-0.125-8c-0.155-1.766-0.872-5.246-1.125-7
		c-0.494-3.43-1.531-10.292-1.75-13.75c-0.118-1.871,0.309-5.65,0-7.5c-0.38-2.281-2.287-6.55-3-8.75
		c-0.856-2.643-2.447-7.966-3.25-10.625c-0.443-1.467-1.391-4.386-1.75-5.875c-0.44-1.823-1.384-5.499-1.375-7.375
		c0.008-1.624,0.764-4.825,1.25-6.375c0.604-1.922,2.196-5.658,3.25-7.375c0.93-1.515,3.301-4.188,4.5-5.5
		c1.477-1.614,4.445-4.888,6.25-6.125c1.558-1.067,5.117-2.435,6.875-3.125c2.115-0.831,6.458-2.189,8.625-2.875
		c1.556-0.492,4.625-1.735,6.25-1.875c2.07-0.177,6.236,0.49,8.25,1c2.149,0.544,6.354,2.101,8.25,3.25
		c1.345,0.815,3.571,3.084,4.75,4.125c1.228,1.084,3.617,3.326,4.875,4.375c1.214,1.013,3.622,3.099,5,3.875
		c0.759,0.428,2.392,1.104,3.25,1.25c1.048,0.179,3.213,0.109,4.25-0.125c0.833-0.188,2.449-0.854,3.125-1.375
		c0.757-0.585,1.931-2.152,2.375-3c0.697-1.331,1.33-4.308,1.75-5.75c1.077-3.706,3.134-11.146,4.125-14.875
		c0.456-1.714,1.459-5.126,1.75-6.875c0.7-4.206,0.904-12.762,1.375-17c0.32-2.886,1.258-8.62,1.625-11.5
		c0.314-2.465,0.57-7.453,1.125-9.875c0.296-1.291,1.212-3.79,1.75-5c0.927-2.083,3.332-5.974,4.375-8
		c0.953-1.852,3.094-5.486,3.625-7.5c0.487-1.848,0.358-5.72,0.5-7.625c0.168-2.252,0.312-6.785,0.75-9
		c0.4-2.026,1.914-5.895,2.5-7.875c0.569-1.927,1.398-5.877,2.125-7.75c0.637-1.642,3-5.875,3.25-6.25s1.614-4.822,1.75-6.5
		c0.096-1.188-0.143-3.582-0.375-4.75c-0.237-1.192-0.811-3.624-1.5-4.625c-0.706-1.025-2.786-2.521-3.875-3.125
		c-0.752-0.417-2.402-0.982-3.25-1.125c-1.325-0.223-4.035-0.098-5.375,0c-1.071,0.078-3.22,0.323-4.25,0.625
		c-1.678,0.491-5.065,1.717-6.375,2.875c-0.767,0.679-1.671,2.583-2.125,3.5c-0.417,0.843-1.069,2.611-1.375,3.5
		c-0.393,1.141-0.768,3.583-1.375,4.625c-0.612,1.05-2.286,2.96-3.375,3.5c-0.958,0.476-3.186,0.609-4.25,0.5
		c-0.983-0.101-2.833-0.883-3.75-1.25c-1.09-0.437-3.278-1.341-4.25-2c-1.098-0.744-3.008-2.621-3.875-3.625
		c-0.646-0.748-1.938-2.312-2.25-3.25c-0.524-1.572-0.457-4.98-0.25-6.625c0.261-2.07,1.993-5.949,2.375-8
		c0.287-1.541,0.422-4.685,0.5-6.25c0.079-1.592,0.004-4.785,0.125-6.375c0.107-1.415,0.419-4.245,0.75-5.625
		c0.285-1.191,0.961-3.595,1.625-4.625c0.539-0.836,2.021-2.24,2.875-2.75c1.044-0.623,3.46-1.154,4.625-1.5
		c1.955-0.58,5.907-1.59,7.875-2.125c2.282-0.621,6.824-1.952,9.125-2.5c2.295-0.547,6.91-1.573,9.25-1.875
		c3.291-0.425,9.955-0.357,13.25-0.75c2.587-0.309,7.796-1,10.25-1.875c1.95-0.695,5.426-3.022,7.25-4
		c1.553-0.832,4.842-2.193,6.25-3.25c1.556-1.168,4.081-4.173,5.375-5.625c1.27-1.425,3.673-4.393,4.875-5.875
		c1.205-1.486,3.672-4.42,4.75-6c0.979-1.435,2.596-4.518,3.5-6c0.849-1.392,2.562-4.168,3.5-5.5
		c0.616-0.874,2.112-2.438,2.625-3.375c0.54-0.988,1.335-3.136,1.5-4.25c0.201-1.361-0.062-4.137-0.25-5.5
		c-0.207-1.494-1.023-4.408-1.375-5.875c-0.367-1.533-0.865-4.682-1.5-6.125c-0.544-1.238-2.222-3.395-3-4.5
		c-0.875-1.241-2.642-3.718-3.625-4.875c-0.931-1.095-3.079-3.022-4-4.125c-0.962-1.151-2.634-3.649-3.5-4.875
		c-1.011-1.43-3.119-4.236-4-5.75c-0.837-1.438-2.33-4.429-2.875-6c-0.42-1.21-1.021-3.723-1.125-5
		c-0.086-1.061,0.04-3.207,0.25-4.25c0.223-1.104,0.858-3.324,1.5-4.25c0.721-1.039,2.849-2.512,3.875-3.25
		c1.845-1.327,5.839-3.521,7.75-4.75c1.363-0.877,4.119-2.601,5.375-3.625c1.729-1.411,4.668-4.812,6.375-6.25
		c1.267-1.067,4.096-2.822,5.375-3.875c1.024-0.843,2.863-2.767,3.875-3.625c1.562-1.327,4.811-3.838,6.5-5
		c2.022-1.391,6.124-4.146,8.375-5.125c1.071-0.466,3.446-0.747,4.5-1.25c0.971-0.464,2.697-1.785,3.5-2.5
		c1.008-0.897,2.741-2.98,3.625-4c1.091-1.258,3.188-3.844,4.25-5.125c0.906-1.094,2.797-3.221,3.625-4.375
		c0.729-1.015,1.924-3.217,2.625-4.25c0.677-0.998,2.459-2.743,2.875-3.875c0.486-1.322,0.434-4.217,0.375-5.625
		c-0.069-1.674-0.614-4.995-1-6.625c-0.325-1.375-1.281-4.042-1.75-5.375c-0.498-1.418-1.762-4.166-2.125-5.625
		c-0.297-1.192-0.692-3.648-0.625-4.875c0.051-0.931,0.555-2.749,0.875-3.625c0.552-1.51,2.055-4.367,2.875-5.75
		c1.397-2.356,4.788-6.684,6.25-9c1.479-2.344,4.443-7.062,5.5-9.625c0.642-1.556,1.399-4.854,1.75-6.5
		c0.626-2.939,1.428-8.903,1.875-11.875c0.361-2.403,1.243-7.198,1.375-9.625c0.152-2.81,0-8.461-0.375-11.25
		c-0.359-2.675-1.65-7.938-2.5-10.5c-0.771-2.325-2.593-6.912-3.875-9c-0.767-1.248-2.747-3.433-3.75-4.5
		c-1.06-1.128-3.188-3.43-4.5-4.25c-1.274-0.797-4.182-1.703-5.625-2.125c-1.747-0.511-5.331-1.19-7.125-1.5
		c-2.3-0.396-6.94-0.914-9.25-1.25c-2.003-0.292-5.981-1.094-8-1.25c-2.149-0.167-6.471-0.101-8.625,0
		c-2.352,0.109-7.05,0.51-9.375,0.875c-1.708,0.269-5.079,1.057-6.75,1.5c-1.739,0.461-5.108,1.787-6.875,2.125
		c-1.57,0.301-4.776,0.531-6.375,0.5c-2.14-0.042-6.42-0.497-8.5-1c-2.172-0.525-6.369-2.14-8.375-3.125
		c-2.18-1.07-6.3-3.679-8.25-5.125c-1.369-1.016-3.786-3.444-5.125-4.5c-1.832-1.443-5.611-4.197-7.625-5.375
		c-1.882-1.101-5.804-3.067-7.875-3.75c-2.177-0.717-6.853-0.947-9-1.75c-1.757-0.657-4.965-2.671-6.5-3.75
		c-1.306-0.918-3.762-2.98-4.875-4.125c-1.116-1.147-3.315-3.553-4-5c-0.71-1.502-1.303-4.841-1.375-6.5
		c-0.102-2.327,0.721-6.956,1.125-9.25c0.312-1.77,1.183-5.259,1.625-7c0.463-1.822,1.786-5.382,2-7.25
		c0.171-1.491-0.153-4.502-0.25-6c-0.115-1.784-0.612-5.337-0.625-7.125c-0.015-2.131,0.27-6.399,0.625-8.5
		c0.302-1.786,1.064-5.38,1.875-7c0.747-1.493,2.78-4.261,4.125-5.25c1.912-1.406,6.591-2.73,8.875-3.375
		c2.265-0.64,6.907-1.53,9.25-1.75c2.956-0.277,8.906,0,11.875,0c3.5,0,10.515-0.323,14,0c3.387,0.313,10.106,1.559,13.375,2.5
		c2.454,0.706,7.189,2.662,9.5,3.75c1.873,0.882,5.562,2.801,7.25,4c2.02,1.437,5.546,4.953,7.375,6.625
		c1.795,1.641,5.271,5.05,7.125,6.625c2.02,1.717,6.341,4.801,8.375,6.5c1.902,1.589,5.501,5.003,7.375,6.625
		c2.03,1.757,5.935,5.517,8.25,6.875c1.732,1.016,5.547,2.408,7.5,2.875c1.772,0.424,5.437,0.927,7.25,0.75
		c1.594-0.155,4.665-1.218,6.125-1.875c1.804-0.812,5.196-2.901,6.75-4.125c1.598-1.258,4.544-4.113,5.75-5.75
		c1.194-1.62,3.245-5.177,3.75-7.125c0.353-1.361,0.301-4.229,0.125-5.625c-0.174-1.384-0.989-4.076-1.5-5.375
		c-0.772-1.964-3.136-5.523-3.875-7.5c-0.879-2.35-1.718-7.329-2.375-9.75c-1.026-3.778-3.368-11.252-4.5-15
		c-0.746-2.47-1.849-7.566-3-9.875c-0.639-1.281-2.57-3.441-3.375-4.625c-1.744-2.567-5.015-7.847-6.625-10.5
		c-1.352-2.227-4.098-6.664-5.25-9c-0.985-1.999-2.866-6.08-3.375-8.25c-0.493-2.104-0.674-6.464-0.625-8.625
		c0.036-1.604,0.37-4.816,0.75-6.375c0.356-1.461,1.274-4.385,2.125-5.625c0.901-1.314,3.373-3.447,4.75-4.25
		c2.023-1.18,6.563-2.62,8.875-3c1.912-0.314,5.836-0.3,7.75,0c2.626,0.411,7.691,2.181,10.125,3.25
		c1.909,0.839,5.642,2.798,7.25,4.125c1.111,0.917,2.871,3.233,3.75,4.375c1.041,1.354,2.796,4.301,3.875,5.625
		c0.656,0.806,2.091,2.318,2.875,3c1.453,1.263,4.591,3.523,6.25,4.5c1.518,0.894,4.756,2.307,6.375,3
		c1.51,0.646,4.591,1.79,6.125,2.375c1.497,0.571,4.433,1.919,6,2.25c1.593,0.337,4.874,0.44,6.5,0.375
		c2.049-0.082,6.111-0.735,8.125-1.125c2.783-0.539,8.275-1.97,11-2.75c2.147-0.615,6.424-1.927,8.5-2.75
		c1.832-0.727,5.359-2.499,7.125-3.375c1.641-0.813,4.987-2.343,6.5-3.375c1.921-1.311,5.547-4.31,7-6.125
		c1.022-1.277,2.424-4.271,3.125-5.75c0.708-1.494,1.994-4.551,2.5-6.125c0.658-2.05,1.456-6.292,2-8.375
		c0.492-1.886,1.869-5.568,2.125-7.5c0.32-2.417,0.085-7.321-0.125-9.75c-0.152-1.766-0.782-5.261-1.125-7
		c-0.478-2.425-1.448-7.288-2.25-9.625c-0.849-2.474-3.212-7.158-4.375-9.5c-1.181-2.379-3.947-6.937-5-9.375
		c-1.28-2.967-3.064-9.197-4.125-12.25c-1.034-2.979-3.444-8.826-4.25-11.875c-0.835-3.159-2.057-9.613-2.25-12.875
		c-0.171-2.874,0.446-8.626,0.625-11.5c0.111-1.782,0.426-5.341,0.5-7.125c0.098-2.342-0.242-7.06,0.125-9.375
		c0.231-1.454,1.158-4.276,1.75-5.625c1.001-2.282,3.646-6.532,5-8.625c1.192-1.842,3.886-5.314,5.125-7.125
		c0.842-1.23,2.483-3.722,3.25-5c1.064-1.775,3.163-5.356,4-7.25c0.667-1.51,1.385-4.774,2.125-6.25c0.816-1.627,3.05-4.531,4.125-6
		c1.263-1.726,4.056-4.978,5.25-6.75c1.15-1.707,2.99-5.408,4.125-7.125c1.034-1.564,3.482-4.425,4.5-6
		c0.948-1.469,2.669-4.525,3.375-6.125c0.706-1.601,1.741-4.951,2.25-6.625c0.63-2.074,1.844-6.245,2.25-8.375
		c0.307-1.606,0.777-4.864,0.75-6.5c-0.032-1.896-0.734-5.645-1.125-7.5c-0.221-1.046-0.678-3.154-1.125-4.125
		c-0.744-1.613-2.987-4.415-4-5.875c-1.111-1.604-3.356-4.795-4.5-6.375c-1.414-1.954-4.253-5.858-5.75-7.75
		c-1.294-1.635-4.028-4.784-5.375-6.375c-1.06-1.252-3.194-3.744-4.25-5c-1.369-1.63-4.081-4.913-5.5-6.5
		c-1.031-1.153-3.161-3.4-4.25-4.5c-0.855-0.864-2.563-2.6-3.5-3.375c-1.209-1.001-3.668-3.042-5.125-3.625
		c-1.202-0.48-3.834-0.656-5.125-0.75c-1.776-0.129-5.344,0-7.125,0c-3.094,0-9.287-0.192-12.375,0
		c-2.263,0.141-6.775,0.688-9,1.125c-2.351,0.462-6.975,1.752-9.25,2.5c-2.294,0.754-6.86,2.383-9,3.5
		c-2.136,1.115-6.16,3.82-8,5.375c-1.637,1.384-4.646,4.448-6.125,6c-1.558,1.635-4.519,5.047-6,6.75
		c-1.266,1.455-3.588,4.561-5,5.875c-1.391,1.295-4.543,3.447-6.125,4.5c-1.365,0.908-4.227,2.519-5.625,3.375
		c-1.76,1.078-5.174,3.415-7,4.375c-1.598,0.84-4.94,2.225-6.625,2.875c-1.724,0.665-5.254,1.771-7,2.375
		c-1.597,0.553-4.707,1.979-6.375,2.25c-1.697,0.274-5.169,0.082-6.875-0.125c-1.399-0.17-4.127-0.929-5.5-1.25
		c-1.815-0.426-5.483-1.153-7.25-1.75c-1.617-0.546-4.723-1.987-6.25-2.75c-1.539-0.77-4.621-2.346-6-3.375
		c-1.187-0.886-3.158-3.125-4.25-4.125c-1.127-1.033-3.506-2.959-4.625-4c-1.229-1.144-3.544-3.581-4.75-4.75
		c-1.54-1.493-4.728-4.364-6.25-5.875c-1.35-1.339-3.913-4.149-5.25-5.5c-1.197-1.209-3.914-3.346-4.875-4.75
		c-0.94-1.375-1.954-4.601-2.625-6.125c-0.856-1.946-2.799-5.743-3.5-7.75c-0.925-2.647-2.108-8.146-2.75-10.875
		c-0.673-2.864-1.872-8.626-2.5-11.5c-0.622-2.845-1.738-8.564-2.5-11.375c-0.584-2.155-2.085-6.368-2.75-8.5
		c-0.776-2.492-2.119-7.543-3-10c-0.846-2.36-3.158-6.848-3.875-9.25c-0.882-2.954-1.798-9.075-2.25-12.125
		c-0.539-3.639-1.181-10.974-1.625-14.625c-0.316-2.598-1.396-7.759-1.375-10.375c0.019-2.338,0.524-7.072,1.375-9.25
		c0.688-1.76,3.181-4.692,4.25-6.25c1.335-1.943,4.258-5.674,5.375-7.75c0.797-1.482,2.047-4.629,2.5-6.25
		c0.358-1.281,0.817-3.921,0.875-5.25c0.069-1.597-0.169-4.812-0.5-6.375c-0.351-1.653-1.411-4.907-2.25-6.375
		c-0.892-1.56-3.514-4.089-4.625-5.5c-0.913-1.159-2.457-3.707-3.5-4.75c-1.153-1.154-3.903-2.954-5.25-3.875
		c-1.159-0.793-3.576-2.229-4.75-3c-1.297-0.852-3.869-2.588-5.125-3.5c-1.118-0.812-3.28-2.533-4.375-3.375
		c-1.467-1.128-4.526-3.233-5.875-4.5c-0.937-0.879-2.565-2.877-3.375-3.875c-1.405-1.733-3.992-5.374-5.375-7.125
		c-1.155-1.463-3.701-4.208-4.75-5.75c-1.164-1.712-2.972-5.453-4-7.25c-1.064-1.86-3.124-5.634-4.375-7.375
		c-1.034-1.439-3.355-4.138-4.625-5.375c-1.098-1.069-3.484-3.011-4.75-3.875c-1.63-1.112-5.133-2.949-6.875-3.875
		c-1.48-0.787-4.511-2.229-6-3c-1.7-0.882-5.056-2.731-6.75-3.625c-1.743-0.919-5.178-2.874-7-3.625
		c-1.544-0.637-4.857-1.302-6.375-2c-1.606-0.739-4.582-2.692-6-3.75c-1.136-0.847-3.183-2.817-4.25-3.75
		c-1.151-1.006-3.645-2.827-4.625-4c-1.141-1.365-2.695-4.607-3.625-6.125c-0.793-1.294-2.265-3.971-3.25-5.125
		c-0.92-1.078-3.084-2.945-4.25-3.75c-1.047-0.723-3.318-1.903-4.5-2.375c-1.176-0.47-3.658-1.025-4.875-1.375
		c-1.815-0.522-5.505-1.402-7.25-2.125c-1.744-0.723-4.948-2.758-6.625-3.625c-1.267-0.655-3.897-1.775-5.125-2.5
		c-1.874-1.105-5.277-3.851-7.125-5c-1.604-0.997-4.873-2.92-6.625-3.625c-2.553-1.027-7.968-2.161-10.625-2.875
		c-1.874-0.504-5.723-1.222-7.5-2c-1.39-0.608-3.947-2.294-5.125-3.25c-1.321-1.072-3.787-3.473-4.75-4.875
		c-0.974-1.418-2.34-4.615-2.875-6.25c-0.437-1.334-1.316-4.109-1.125-5.5c0.158-1.149,1.396-3.223,2.125-4.125
		c1.423-1.762,5.354-4.195,7-5.75c2.011-1.897,5.871-5.892,7.5-8.125c1.459-2.001,3.681-6.455,4.875-8.625
		c1.436-2.609,4.305-7.831,5.625-10.5c2.041-4.124,5.984-12.451,7.625-16.75c0.898-2.354,2.696-7.123,3-9.625
		c0.309-2.549,0.003-7.761-0.625-10.25c-0.564-2.237-2.555-6.483-3.875-8.375c-1.113-1.595-3.993-4.271-5.5-5.5
		c-1.538-1.255-4.831-3.525-6.625-4.375c-1.715-0.812-5.404-1.807-7.25-2.25c-1.974-0.474-6.152-0.536-8-1.375
		c-1.173-0.533-3.218-2.226-4-3.25c-0.705-0.923-1.636-3.113-1.875-4.25c-0.354-1.682-0.153-5.163,0-6.875
		c0.204-2.277,1.637-6.714,1.625-9c-0.011-2.163-1.049-6.415-1.625-8.5c-0.558-2.021-2.108-5.924-2.875-7.875
		c-0.707-1.799-2.369-5.298-3-7.125c-0.697-2.021-1.966-6.131-2.25-8.25c-0.278-2.075,0-6.281,0-8.375c0-1.875,0.185-5.634,0-7.5
		c-0.157-1.586-0.742-4.739-1.25-6.25c-0.708-2.106-2.732-6.094-3.875-8c-0.954-1.592-4-5.5-4.375-6s-4.445-4.928-6-6.5
		c-1.492-1.509-4.576-4.425-6.125-5.875c-1.792-1.678-5.577-4.827-7.25-6.625c-1.546-1.661-4.102-5.443-5.625-7.125
		c-1.603-1.769-4.963-5.196-6.875-6.625c-1.267-0.946-4.081-2.427-5.5-3.125c-1.521-0.748-4.589-2.29-6.25-2.625
		c-1.716-0.346-5.28-0.323-7,0c-1.352,0.254-3.885,1.406-5.125,2c-1.755,0.841-5.136,2.788-6.75,3.875
		c-1.514,1.02-4.435,3.234-5.75,4.5c-1.15,1.107-2.875,3.882-4.125,4.875c-0.963,0.766-3.155,2.091-4.375,2.25
		c-1.015,0.133-3.088-0.41-4-0.875c-1.341-0.683-3.475-2.897-4.5-4c-1.609-1.73-4.312-5.625-5.75-7.5s-4.33-5.611-5.75-7.5
		c-0.887-1.179-2.516-3.651-3.5-4.75c-1.077-1.202-3.483-3.373-4.75-4.375c-1.095-0.866-3.415-2.43-4.625-3.125
		c-1.624-0.933-5.015-2.546-6.75-3.25c-1.832-0.743-5.685-1.72-7.5-2.5c-1.952-0.839-5.714-2.85-7.5-4
		c-1.424-0.917-4.137-2.97-5.375-4.125c-1.829-1.707-5.051-5.556-6.625-7.5c-1.42-1.753-4.093-5.394-5.375-7.25
		c-1.479-2.14-4.304-6.511-5.625-8.75c-1.137-1.927-3.448-5.786-4.25-7.875c-0.854-2.222-1.766-6.92-2.25-9.25
		c-0.484-2.329-0.91-7.106-1.625-9.375c-0.509-1.613-1.937-4.718-2.875-6.125c-1.031-1.546-3.758-4.118-5-5.5
		c-1.258-1.399-3.565-4.408-5-5.625c-1.296-1.099-4.335-2.685-5.75-3.625c-2.224-1.479-6.64-4.488-8.75-6.125
		c-2.049-1.589-6.202-4.769-7.875-6.75c-1.646-1.949-4.119-6.463-5.25-8.75c-1.088-2.2-3.164-6.714-3.625-9.125
		c-0.353-1.842,0-5.625,0-7.5c0-2.625-0.153-7.88,0-10.5c0.125-2.136,1.026-6.36,1-8.5c-0.021-1.768-0.479-5.311-1-7
		c-0.585-1.896-2.296-5.548-3.5-7.125c-1.29-1.689-4.58-4.486-6.375-5.625c-1.466-0.93-4.645-2.609-6.375-2.75
		c-1.156-0.094-3.412,0.723-4.5,1.125c-1.77,0.654-5.283,2.188-6.75,3.375c-1.556,1.258-3.686,4.741-5,6.25
		c-1.074,1.233-3.303,3.635-4.5,4.75c-0.828,0.771-2.472,2.401-3.5,2.875c-1.297,0.598-4.199,0.923-5.625,1
		c-1.376,0.074-4.135-0.188-5.5-0.375c-1.518-0.209-4.562-0.722-6-1.25c-1.103-0.405-3.097-1.682-4.125-2.25
		c-1.567-0.866-4.734-2.546-6.25-3.5c-2.069-1.302-5.883-4.403-8-5.625c-1.223-0.706-3.815-1.846-5.125-2.375
		c-0.705-0.285-2.115-0.955-2.875-1c-1.021-0.062-3.029,0.55-4,0.875c-1.207,0.404-3.471,1.589-4.625,2.125
		c-1.002,0.465-2.93,1.602-4,1.875c-1.456,0.372-4.499,0.444-6,0.375c-1.422-0.065-4.236-0.563-5.625-0.875
		c-1.399-0.314-4.123-1.227-5.5-1.625c-1.872-0.542-5.599-1.698-7.5-2.125c-2.04-0.458-6.17-1.162-8.25-1.375
		c-1.587-0.163-4.787-0.396-6.375-0.25c-1.404,0.13-4.168,0.788-5.5,1.25c-1.373,0.477-3.95,1.848-5.25,2.5
		c-1.137,0.57-3.482,1.612-4.5,2.375c-1.185,0.888-3.086,3.195-4.125,4.25c-0.775,0.787-2.232,2.475-3.125,3.125
		c-1.051,0.766-3.427,1.871-4.625,2.375c-0.82,0.345-2.499,0.969-3.375,1.125c-0.954,0.171-2.924,0.313-3.875,0.125
		c-1.043-0.207-2.979-1.177-3.875-1.75c-1.324-0.849-3.571-3.083-4.75-4.125c-0.945-0.835-2.76-2.594-3.75-3.375
		c-1.341-1.058-4.241-2.874-5.625-3.875c-0.922-0.667-2.761-2.011-3.625-2.75c-0.89-0.762-2.612-2.361-3.375-3.25
		c-0.848-0.986-2.25-3.188-3-4.25s-2.221-3.209-3-4.25c-0.693-0.926-2.344-2.598-2.875-3.625c-0.613-1.186-1.252-3.813-1.5-5.125
		c-0.455-2.404-0.558-7.323-0.875-9.75c-0.238-1.823-1.093-5.417-1.25-7.25c-0.149-1.743,0.308-5.277,0-7
		c-0.223-1.246-1.276-3.576-1.75-4.75c-0.523-1.298-1.451-3.976-2.25-5.125c-0.795-1.144-2.903-3.017-4-3.875
		c-1.161-0.908-3.583-2.719-5-3.125c-1.441-0.413-4.519-0.235-6,0c-1.493,0.237-4.352,1.301-5.75,1.875
		c-1.357,0.557-4.172,1.63-5.25,2.625c-1.154,1.065-2.523,3.982-3.25,5.375c-0.997,1.91-2.532,5.95-3.5,7.875
		c-0.629,1.25-1.926,3.744-2.75,4.875c-0.678,0.929-2.247,2.633-3.125,3.375c-0.741,0.627-2.331,1.812-3.25,2.125
		c-1.127,0.385-3.57,0.538-4.75,0.375c-1.254-0.173-3.616-1.188-4.75-1.75c-1.461-0.724-4.188-2.533-5.5-3.5
		c-1.089-0.803-3.098-2.62-4.125-3.5c-1.161-0.994-3.683-2.796-4.625-4c-1.232-1.573-3.021-5.22-3.625-7.125
		c-0.593-1.866-0.984-5.797-1.125-7.75c-0.121-1.684,0.382-5.106,0-6.75c-0.417-1.797-2.405-4.985-3.25-6.625
		c-0.813-1.579-2.368-4.787-3.375-6.25c-1.331-1.936-4.506-5.424-6.125-7.125c-1.753-1.841-5.389-5.414-7.375-7
		c-1.232-0.984-3.901-2.683-5.25-3.5c-1.555-0.942-4.59-3.156-6.375-3.5c-1.515-0.292-4.614,0.437-6.125,0.75
		c-1.724,0.358-5.237,1.1-6.75,2c-1.178,0.7-2.967,2.85-3.875,3.875c-0.975,1.1-2.762,3.437-3.625,4.625
		c-1.35,1.858-3.853,5.713-5.125,7.625c-0.976,1.465-2.814,4.472-3.875,5.875c-1.27,1.679-4.093,4.81-5.5,6.375
		c-1.345,1.496-3.992,4.543-5.5,5.875c-1.274,1.126-4.044,3.121-5.5,4c-1.998,1.206-6.139,3.458-8.375,4.125
		c-1.72,0.513-5.331,0.898-7.125,0.875c-2.117-0.027-6.314-0.768-8.375-1.25c-1.886-0.441-5.635-1.522-7.375-2.375
		c-2.04-0.999-5.558-3.947-7.5-5.125c-2.211-1.341-6.735-3.887-9.125-4.875c-1.599-0.661-4.978-1.471-6.625-2
		c-2.578-0.829-7.731-2.506-10.25-3.5c-1.275-0.503-3.856-1.494-5-2.25c-1.384-0.915-3.818-3.222-4.875-4.5
		c-1.056-1.276-2.927-4.071-3.5-5.625c-0.58-1.571-1.002-4.95-1-6.625c0.002-1.645,0.321-5.003,1-6.5
		c0.843-1.858,4.08-4.578,5.25-6.25c1.22-1.743,3.587-5.353,4.25-7.375c0.441-1.345,0.644-4.21,0.625-5.625
		c-0.028-2.051-0.407-6.204-1.125-8.125c-0.601-1.607-2.567-4.507-3.75-5.75c-1.064-1.118-3.645-2.886-5-3.625
		c-1.737-0.948-5.43-2.51-7.375-2.875c-1.628-0.306-4.975-0.141-6.625,0c-2.022,0.173-6.113,0.628-8,1.375
		c-1.741,0.688-4.751,3.004-6.25,4.125c-1.048,0.783-2.963,2.577-4,3.375c-1.209,0.931-3.715,2.678-5,3.5
		c-1.462,0.937-4.381,2.872-6,3.5c-1.52,0.59-4.749,1.264-6.375,1.375c-0.813,0.056-2.444-0.131-3.25-0.25
		c-2.153-0.318-6.396-1.322-8.5-1.875c-2.275-0.598-6.897-1.695-9-2.75c-2.218-1.112-5.995-4.413-8-5.875
		c-1.465-1.067-4.411-3.181-5.875-4.25c-1.787-1.305-5.291-4.013-7.125-5.25c-1.582-1.066-4.857-3.029-6.5-4
		c-1.855-1.096-5.505-3.436-7.5-4.25c-2.365-0.966-7.375-2.099-9.875-2.625c-1.981-0.417-5.979-1.367-8-1.25
		c-1.166,0.067-3.401,0.855-4.5,1.25c-1.448,0.52-4.432,1.528-5.625,2.5c-1.372,1.117-3.211,4.235-4.125,5.75
		c-1.011,1.675-2.564,5.282-3.5,7c-1.233,2.264-3.846,6.713-5.25,8.875c-0.94,1.447-2.705,4.485-4,5.625
		c-1.942,1.709-6.725,3.911-9.125,4.875c-1.506,0.604-4.646,1.505-6.25,1.75c-2.009,0.308-6.096,0.354-8.125,0.25
		c-1.638-0.084-4.893-0.553-6.5-0.875c-1.301-0.261-3.911-0.841-5.125-1.375c-1.119-0.492-3.348-1.682-4.125-2.625
		c-1.196-1.451-2.226-5.194-2.75-7c-0.736-2.537-1.414-7.8-2-10.375c-0.409-1.796-0.958-5.527-1.875-7.125
		c-0.727-1.265-2.945-3.268-4.125-4.125c-1.561-1.134-5.011-3.007-6.875-3.5c-1.3-0.344-4.044-0.444-5.375-0.25
		c-2.063,0.301-6.057,1.729-7.875,2.75c-1.587,0.892-4.303,3.374-5.625,4.625c-1.141,1.079-3.418,3.293-4.25,4.625
		c-1.226,1.964-2.478,6.49-3.375,8.625c-0.797,1.896-2.173,5.831-3.375,7.5c-0.969,1.346-3.44,3.668-4.875,4.5
		c-1.077,0.625-3.513,1.354-4.75,1.5c-1.742,0.205-5.293-0.095-7-0.5c-1.581-0.375-4.525-1.817-6-2.5
		c-1.56-0.722-4.803-2.026-6.125-3.125c-1.577-1.311-3.961-4.732-5-6.5c-1.241-2.112-2.545-6.942-3.875-9
		c-1.081-1.672-3.596-4.981-5.375-5.875c-1.375-0.691-4.592-0.759-6.125-0.625c-1.488,0.13-4.342,1.125-5.75,1.625
		c-2.084,0.74-6.359,2.168-8.125,3.5c-1.578,1.19-3.852,4.517-5,6.125c-1.24,1.736-3.632,5.302-4.5,7.25
		c-0.821,1.843-2.154,5.734-2.25,7.75c-0.056,1.176,0.504,3.508,0.875,4.625c0.449,1.353,1.445,4.166,2.5,5.125
		c0.988,0.898,3.708,1.538,5,1.875c1.805,0.471,5.598,0.561,7.375,1.125c1.199,0.381,3.639,1.334,4.5,2.25
		c0.93,0.989,1.866,3.667,2.125,5c0.322,1.657,0.232,5.101-0.125,6.75c-0.317,1.464-1.637,4.196-2.375,5.5
		c-0.739,1.306-2.309,3.963-3.5,4.875c-1.06,0.812-3.699,1.575-5,1.875c-1.927,0.444-5.899,0.827-7.875,0.75
		c-1.997-0.078-6.033-0.6-7.875-1.375c-1.774-0.747-4.783-3.253-6.25-4.5c-1.38-1.174-3.776-3.915-5.125-5.125
		c-1.522-1.365-4.73-3.91-6.375-5.125c-1.032-0.762-3.048-2.426-4.25-2.875c-0.973-0.363-3.088-0.568-4.125-0.5
		c-1.127,0.074-3.307,0.757-4.375,1.125c-1.548,0.534-4.661,1.683-6,2.625c-0.633,0.445-1.647,1.642-2.125,2.25
		c-0.852,1.084-2.169,3.525-3,4.625c-0.801,1.061-2.412,3.237-3.5,4c-1.482,1.039-4.97,2.291-6.75,2.625
		c-2.211,0.415-6.78,0.366-9,0c-1.823-0.301-5.291-1.672-7-2.375c-1.254-0.516-3.627-1.845-4.875-2.375
		c-1.255-0.534-3.789-1.599-5.125-1.875c-1.073-0.222-3.282-0.172-4.375-0.25c-2.19-0.156-6.653-0.1-8.75-0.75
		c-1.029-0.319-2.781-1.654-3.75-2.125c-2.005-0.974-6.141-2.655-8.25-3.375c-2.884-0.985-8.747-2.73-11.75-3.25
		c-2.532-0.438-7.682-0.818-10.25-0.75c-2.488,0.065-7.519,0.451-9.875,1.25c-1.645,0.558-4.635,2.427-6,3.5
		c-1.772,1.394-4.853,4.731-6.25,6.5c-1.29,1.633-3.298,5.302-4.5,7c-1.03,1.454-3.34,4.176-4.375,5.625
		c-1.194,1.672-3.3,5.208-4.5,6.875c-1.326,1.842-4.288,5.291-5.625,7.125c-1.353,1.855-3.783,5.761-5.125,7.625
		c-1.406,1.953-4.242,5.857-5.875,7.625c-1.516,1.642-5.042,4.424-6.625,6c-1.74,1.732-5.156,5.283-6.625,7.25
		c-1.376,1.842-3.623,5.871-4.75,7.875c-0.727,1.291-1.808,4.106-2.75,5.25c-0.891,1.081-3.228,2.695-4.375,3.5
		c-1.08,0.757-3.265,2.289-4.5,2.75c-1.425,0.531-4.479,1.014-6,1c-1.716-0.016-5.048-1.031-6.75-1.25
		c-2.548-0.328-7.683-0.645-10.25-0.75c-3.403-0.14-10.222-0.276-13.625-0.125c-1.6,0.071-4.8,0.335-6.375,0.625
		c-1.402,0.258-4.096,1.258-5.5,1.5c-1.637,0.282-4.964,0.487-6.625,0.5c-1.565,0.012-4.699-0.162-6.25-0.375
		c-1.615-0.222-4.857-0.78-6.375-1.375c-1.487-0.582-4.178-2.354-5.5-3.25c-2.157-1.463-6.12-4.873-8.25-6.375
		c-1.183-0.834-3.74-2.227-4.875-3.125c-1.057-0.837-3.088-2.655-3.875-3.75c-0.89-1.237-2.289-4.014-2.625-5.5
		c-0.359-1.585,0.214-4.89,0-6.5c-0.205-1.54-1.04-4.561-1.625-6c-0.484-1.192-1.876-3.374-2.5-4.5c-1.002-1.811-3.14-5.367-4-7.25
		c-1.052-2.302-2.636-7.121-3.5-9.5c-0.759-2.091-2.455-6.219-3-8.375c-0.659-2.605-1.234-7.967-1.625-10.625
		c-0.326-2.217-1.306-6.635-1.25-8.875c0.058-2.322,1.274-6.852,1.75-9.125c0.434-2.07,1.341-6.203,1.875-8.25
		c0.92-3.531,3.044-10.515,4.125-14c0.418-1.35,1.582-3.972,1.75-5.375c0.193-1.618-0.161-4.906-0.5-6.5
		c-0.291-1.363-1.279-3.99-1.875-5.25c-0.623-1.317-2.212-3.773-3-5c-0.984-1.531-3.122-4.481-4.125-6
		c-1.061-1.605-3.254-4.784-4.125-6.5c-1.2-2.365-2.894-7.411-3.875-9.875c-1.234-3.1-3.861-9.238-5-12.375
		c-0.729-2.007-2.007-6.082-2.625-8.125c-0.733-2.424-1.792-7.405-2.75-9.75c-0.566-1.385-2.007-4.031-2.875-5.25
		c-0.783-1.1-2.717-3.001-3.625-4c-0.967-1.063-2.784-3.313-3.875-4.25c-0.94-0.808-3.009-2.21-4.125-2.75
		c-1.094-0.529-3.442-1.221-4.625-1.5c-1.015-0.24-3.09-0.498-4.125-0.625c-1.994-0.244-6.04-0.312-8-0.75
		c-1.621-0.361-4.803-1.435-6.25-2.25c-1.471-0.829-3.971-3.147-5.25-4.25c-1.574-1.357-4.598-4.214-6.125-5.625
		c-1.786-1.65-5.398-4.912-7.125-6.625c-1.099-1.09-3.266-3.306-4.25-4.5c-1.125-1.365-3.583-4.065-4.125-5.75
		c-0.45-1.398-0.26-4.43,0-5.875c0.254-1.411,1.092-4.266,2-5.375c1.654-2.02,6.694-4.065,8.875-5.5
		c2.101-1.382,6.288-4.179,8.25-5.75c1.588-1.272,4.881-3.801,6-5.5c1.147-1.741,2.278-5.844,2.75-7.875
		c0.648-2.79,0.194-8.766,1.375-11.375c0.657-1.451,2.947-3.832,4.25-4.75c1.489-1.05,4.984-2.3,6.75-2.75
		c1.889-0.481,5.803-0.766,7.75-0.875c2.153-0.121,6.48-0.221,8.625,0c1.683,0.173,4.934,1.325,6.625,1.375
		c2.368,0.07,7.184-0.475,9.375-1.375c1.902-0.782,5.252-3.344,6.625-4.875c1.664-1.855,3.884-6.396,5-8.625
		c1.141-2.278,2.823-7.115,4-9.375c1.038-1.992,3.232-5.97,4.75-7.625c1.162-1.267,3.915-3.462,5.5-4.125
		c1.749-0.731,5.609-0.984,7.5-1.125c2.244-0.167,6.809-0.51,9,0c2.069,0.481,5.738,2.774,7.625,3.75
		c1.863,0.963,5.593,2.894,7.375,4c1.981,1.229,5.739,4.003,7.625,5.375c1.769,1.286,5.139,4.1,7,5.25
		c0.892,0.551,2.793,1.448,3.75,1.875c1.166,0.521,3.506,1.587,4.75,1.875c1.161,0.269,3.566,0.508,4.75,0.375
		c1.562-0.176,4.508-1.381,6-1.875c1.792-0.594,5.362-1.824,7.125-2.5c2.276-0.873,6.69-2.971,9-3.75
		c2.571-0.867,7.854-2.146,10.5-2.75c2.545-0.581,7.702-1.434,10.25-2c2.767-0.615,8.247-2.074,11-2.75
		c3.372-0.827,10.191-2.2,13.5-3.25c2.34-0.742,7.115-2.217,9.125-3.625c1.849-1.296,4.92-4.768,6-6.75
		c1.676-3.076,3.159-10.048,3.75-13.5c0.465-2.717,0.918-8.249,0.75-11c-0.162-2.637-1.302-7.827-2-10.375
		c-0.685-2.498-2.847-7.244-3.5-9.75c-0.527-2.023-1.174-6.169-1.375-8.25c-0.217-2.24-0.524-6.766-0.25-9
		c0.241-1.964,1.314-5.82,2.125-7.625c1.158-2.578,4.496-7.191,6.125-9.5c1.388-1.966,4.645-5.557,5.875-7.625
		c1.223-2.056,3.007-6.521,3.875-8.75c0.993-2.551,2.965-7.69,3.5-10.375c0.539-2.703,0.89-8.247,0.75-11
		c-0.113-2.217-0.965-6.596-1.5-8.75c-0.507-2.043-1.837-6.048-2.625-8c-0.753-1.866-2.55-5.476-3.5-7.25
		c-1.131-2.112-3.855-6.082-4.875-8.25c-0.863-1.833-2.136-5.693-2.75-7.625c-0.569-1.792-1.822-5.378-2-7.25
		c-0.222-2.341,0.21-7.087,0.75-9.375c0.441-1.869,2.296-5.293,2.875-7.125c0.831-2.631,1.892-8.059,2.5-10.75
		c0.515-2.278,1.231-6.92,2-9.125c0.562-1.61,2.229-4.604,3-6.125c1.339-2.644,3.869-8.026,5.5-10.5
		c0.954-1.446,3.422-3.928,4.375-5.375c1.261-1.914,3.349-6.017,4.25-8.125c0.959-2.244,2.651-6.855,3.125-9.25
		c0.468-2.365,0.781-7.219,0.625-9.625c-0.125-1.938-0.918-5.771-1.5-7.625c-0.837-2.67-3.109-7.821-4.5-10.25
		c-0.901-1.573-3.04-4.525-4.25-5.875c-1.744-1.943-5.876-5.182-7.75-7c-1.522-1.478-4.595-4.433-5.875-6.125
		c-1.006-1.329-2.728-4.214-3.375-5.75c-0.691-1.642-1.597-5.115-1.875-6.875c-0.312-1.978-0.586-6.009-0.375-8
		c0.245-2.314,1.753-6.758,2.375-9c0.688-2.478,2.046-7.441,2.875-9.875c1.05-3.082,3.382-9.171,4.75-12.125
		c1.357-2.931,4.556-8.552,6.125-11.375c1.557-2.802,4.674-8.408,6.375-11.125c1.766-2.821,5.496-8.342,7.5-11
		c2.472-3.278,8.206-9.22,10.5-12.625c3.585-5.322,8.528-17.311,12.125-22.625c1.989-2.939,6.798-8.195,9.125-10.875
		c7.327-8.438,22.769-24.625,29.875-33.25c2.738-3.323,7.291-10.745,10.375-13.75c1.541-1.5,5.317-3.661,7-5
		c2.252-1.792,6.234-6.022,8.625-7.625c3.587-2.405,11.501-5.993,15.5-7.625c2.315-0.945,7.18-2.192,9.5-3.125
		c2.283-0.917,6.899-2.785,8.875-4.25c2.008-1.489,5.432-5.251,6.75-7.375c0.866-1.396,2.1-4.506,2.375-6.125
		c0.477-2.805-0.188-8.536-0.375-11.375c-0.188-2.852-0.662-8.555-1.125-11.375c-0.945-5.76-3.722-17.117-5.25-22.75
		c-0.548-2.022-1.751-6.043-2.5-8c-0.7-1.829-2.437-5.344-3.25-7.125c-1.156-2.532-3.237-7.713-4.625-10.125
		c-0.917-1.593-3.332-4.408-4.25-6c-1.236-2.144-3.294-6.668-4.125-9c-0.749-2.099-1.981-6.413-2.25-8.625
		c-0.283-2.327-0.157-7.048,0.125-9.375c0.316-2.611,1.476-7.778,2.375-10.25c0.731-2.009,2.722-5.824,3.875-7.625
		c0.924-1.442,3-4.204,4.25-5.375c1.164-1.091,3.839-2.88,5.25-3.625c1.54-0.813,4.902-1.809,6.5-2.5
		c1.847-0.799,5.566-2.397,7.25-3.5c1.965-1.287,5.743-4.226,7.125-6.125c1.376-1.891,3.147-6.335,3.625-8.625
		c0.511-2.447,0.125-9.125,0.125-10s-1.968-6.772-3-8.875c-0.89-1.814-3.102-5.212-4.25-6.875c-1.545-2.237-5.077-6.39-6.625-8.625
		c-1.111-1.604-3.145-4.938-4.125-6.625c-1.089-1.874-3.048-5.744-4.125-7.625c-0.78-1.363-2.713-3.899-3.25-5.375
		c-0.487-1.337-0.811-4.203-0.875-5.625c-0.087-1.939,0.092-5.852,0.5-7.75c0.393-1.827,1.779-5.333,2.625-7
		c1.134-2.233,3.855-6.486,5.5-8.375c1.091-1.252,3.774-3.254,5-4.375c1.403-1.282,3.966-4.127,5.5-5.25
		c1.467-1.074,4.709-2.772,6.375-3.5c1.54-0.672,4.74-1.739,6.375-2.125c1.936-0.457,5.891-0.984,7.875-1.125
		c2.275-0.162,6.844,0,9.125,0c2.344,0,7.034-0.107,9.375,0c2.728,0.125,8.155,0.768,10.875,1c2.78,0.237,8.377,0.392,11.125,0.875
		c2.427,0.427,7.143,1.907,9.5,2.625c1.513,0.461,4.478,1.571,6,2c2.13,0.601,6.454,1.571,8.625,2c1.522,0.3,4.577,1.109,6.125,1
		c1.045-0.074,3.024-0.868,4-1.25c2.03-0.796,6.015-2.612,7.875-3.75c1.578-0.965,4.584-3.174,5.875-4.5
		c1.561-1.604,4.232-5.257,5.25-7.25c1.047-2.051,2.371-6.503,2.875-8.75c0.552-2.458,1.213-7.481,1.25-10
		c0.029-1.978-0.145-5.992-0.75-7.875c-0.475-1.48-2.215-4.115-3.125-5.375c-1.049-1.454-3.379-4.218-4.75-5.375
		c-1.405-1.186-4.651-2.967-6.25-3.875c-1.714-0.973-5.217-2.785-7-3.625c-1.659-0.782-5.074-2.13-6.75-2.875
		c-2.108-0.937-6.329-2.81-8.375-3.875c-1.764-0.918-5.318-2.763-6.875-4c-1.143-0.908-3.172-3.049-4-4.25
		c-0.69-1.001-1.729-3.225-2.125-4.375c-0.583-1.692-1.38-5.214-1.5-7c-0.273-4.065,0.862-12.194,1.25-16.25
		c0.314-3.288,1.104-9.846,1.5-13.125c0.355-2.94,1.015-8.829,1.5-11.75c0.434-2.612,1.267-7.87,2.125-10.375
		c0.824-2.406,3.241-6.915,4.5-9.125c1.587-2.787,5.196-8.099,7-10.75c2.307-3.391,7.412-9.845,9.5-13.375
		c1.096-1.853,3.027-5.723,3.75-7.75c0.949-2.663,2-8.243,2.625-11c0.658-2.899,2.202-8.667,2.5-11.625
		c0.289-2.861,0.125-8.636-0.125-11.5c-0.201-2.303-1.195-6.833-1.5-9.125c-0.244-1.837-0.562-5.531-0.75-7.375
		c-0.28-2.75-1.253-8.239-1.125-11c0.097-2.1,0.986-6.247,1.625-8.25c0.833-2.612,2.958-7.734,4.5-10
		c0.958-1.407,3.397-3.843,4.75-4.875c1.334-1.018,4.329-2.596,5.875-3.25c2.076-0.878,6.396-2.293,8.625-2.625
		c2.473-0.368,7.546-0.476,10,0c2.216,0.43,6.558,2.035,8.375,3.375c1.913,1.411,4.554,5.489,6,7.375
		c1.267,1.652,3.779,4.98,4.875,6.75c1.45,2.341,3.63,7.438,5.125,9.75c1.487,2.299,5.037,6.489,6.75,8.625
		c1.139,1.42,3.341,4.334,4.625,5.625c1.519,1.526,4.833,4.307,6.625,5.5c1.908,1.271,6.039,3.299,8.125,4.25
		c2.26,1.03,6.83,3.066,9.25,3.625c3.421,0.79,10.489,1.198,14,1.125c2.833-0.059,8.453-0.925,11.25-1.375
		c2.045-0.329,6.151-0.998,8.125-1.625c2.64-0.839,7.663-3.231,10.125-4.5c2.678-1.379,8.147-4.098,10.375-6.125
		c1.771-1.611,4.346-5.726,5.625-7.75c1.255-1.986,3.649-6.06,4.5-8.25c0.851-2.19,1.913-6.8,2.25-9.125
		c0.485-3.344,1.097-10.155,0.625-13.5c-0.272-1.928-1.678-5.61-2.5-7.375c-1.451-3.114-5.044-9.016-7.125-11.75
		c-1.821-2.393-6.176-6.574-8.25-8.75c-1.647-1.728-4.938-5.186-6.625-6.875c-1.843-1.846-5.7-5.363-7.5-7.25
		c-1.437-1.506-4.312-4.542-5.5-6.25c-1.317-1.894-3.542-5.974-4.375-8.125c-0.698-1.802-1.761-5.571-1.875-7.5
		c-0.103-1.729,0.285-5.246,0.875-6.875c0.455-1.255,1.922-3.564,2.875-4.5c1.151-1.13,3.993-2.8,5.5-3.375
		c1.483-0.565,4.663-1.167,6.25-1.125c1.637,0.043,4.834,0.948,6.375,1.5c2.065,0.74,5.917,2.884,7.875,3.875
		c1.509,0.764,4.436,2.481,6,3.125c1.755,0.723,5.414,1.772,7.25,2.25c1.607,0.418,4.852,1.172,6.5,1.375
		c1.707,0.21,5.156,0.294,6.875,0.25c1.788-0.046,5.43-0.055,7.125-0.625c2.169-0.73,6.086-3.303,7.75-4.875
		c1.059-1,2.853-3.39,3.375-4.75c0.677-1.762,1.019-5.618,0.875-7.5c-0.17-2.23-1.371-6.626-2.375-8.625
		c-0.73-1.452-2.843-3.983-4-5.125c-1.396-1.379-4.647-3.618-6.25-4.75c-1.862-1.315-5.856-3.562-7.625-5
		c-1.166-0.948-3.257-3.122-4.25-4.25c-1.148-1.305-3.243-4.084-4.25-5.5c-1.06-1.49-3.079-4.545-4-6.125
		c-1.062-1.823-3.223-5.493-3.875-7.5c-0.704-2.165-0.909-6.772-1.375-9c-0.397-1.899-1.355-5.67-2-7.5
		c-0.897-2.547-3.62-7.283-4.375-9.875c-0.468-1.608-1.028-4.95-1-6.625c0.038-2.225,0.752-6.703,1.625-8.75
		c0.694-1.627,2.832-4.543,4.125-5.75c1.262-1.177,4.237-3.082,5.875-3.625c1.697-0.563,5.338-0.547,7.125-0.625
		c1.936-0.085,5.814-0.088,7.75,0c2.069,0.094,6.195,0.495,8.25,0.75c2.386,0.296,7.109,1.247,9.5,1.5
		c2.303,0.244,6.937,0.383,9.25,0.5c2,0.101,6.011,0.606,8,0.375c1.808-0.21,5.313-1.316,7-2c2.268-0.919,6.809-2.985,8.625-4.625
		c1.036-0.935,2.544-3.356,3.125-4.625c1.145-2.502,2.622-7.885,2.875-10.625c0.216-2.341-0.39-7.052-0.75-9.375
		c-0.275-1.775-0.988-5.32-1.625-7c-0.604-1.595-2.454-4.491-3.25-6c-1.213-2.299-3.641-6.899-4.75-9.25
		c-0.842-1.785-2.504-5.376-3.125-7.25c-0.767-2.317-1.879-7.087-2.25-9.5c-0.328-2.137-0.566-6.464-0.625-8.625
		c-0.046-1.718-0.105-5.171,0.125-6.875c0.338-2.494,1.655-7.38,2.5-9.75c0.948-2.66,3.457-7.739,4.75-10.25
		c1.07-2.078,3.535-6.058,4.625-8.125c1.265-2.398,3.817-7.204,4.75-9.75c0.61-1.665,1.3-5.16,1.75-6.875
		c0.608-2.317,2.116-6.886,2.5-9.25c0.517-3.183,0.852-9.652,0.75-12.875c-0.082-2.58-0.86-7.698-1.25-10.25
		c-0.417-2.732-1.529-8.151-2-10.875c-0.534-3.088-1.416-9.296-2-12.375c-0.519-2.734-1.647-8.189-2.375-10.875
		c-0.247-0.909-0.69-2.771-1.167-3.583c-0.745-1.272-2.887-3.366-4-4.333c-0.995-0.864-3.196-2.335-4.333-3
		c-1.48-0.865-4.607-2.287-6.167-3c-1.731-0.792-5.216-2.334-7-3c-2.049-0.765-6.249-2.004-8.333-2.667
		c-1.582-0.503-4.716-1.625-6.333-2c-1.354-0.314-4.213-0.305-5.5-0.833c-1.048-0.431-2.851-1.88-3.667-2.667
		c-1.068-1.029-3.13-3.283-3.667-4.667c-0.408-1.052-0.521-3.388-0.333-4.5c0.227-1.343,1.444-3.845,2.167-5
		c0.815-1.303,2.865-3.631,4-4.667c1.17-1.068,3.826-2.824,5.167-3.667c2.258-1.42,6.85-4.195,9.333-5.167
		c2.117-0.829,6.592-1.785,8.833-2.167c2.559-0.435,7.753-0.719,10.333-1c2.754-0.3,8.252-0.985,11-1.333
		c2.21-0.28,6.657-0.691,8.833-1.167c1.107-0.242,3.399-0.691,4.333-1.333c1.002-0.69,2.461-2.742,3-3.833
		c0.515-1.042,0.848-3.382,1.167-4.5c0.539-1.888,1.95-5.574,2.333-7.5c0.269-1.354,0.508-4.119,0.5-5.5
		c-0.009-1.633-0.226-4.927-0.667-6.5c-0.523-1.866-2.549-5.227-3.333-7c-1.202-2.717-3.528-8.192-4.5-11
		c-0.496-1.434-1.378-4.344-1.667-5.833c-0.303-1.563-0.827-4.749-0.667-6.333c0.167-1.652,1.412-4.781,2-6.333
		c0.581-1.535,1.586-4.765,2.667-6c0.838-0.958,3.185-2.12,4.333-2.667c2.272-1.083,7.174-2.371,9.5-3.333
		c1.067-0.442,3.248-1.299,4.167-2c1.01-0.77,2.639-2.77,3.333-3.833c0.907-1.389,2.43-4.391,2.833-6
		c0.406-1.619,0.257-5,0.333-6.667c0.046-1-0.2-3.069,0.167-4c0.563-1.43,2.885-3.609,4-4.667c0.992-0.94,3.069-2.814,4.333-3.333
		c1.864-0.767,5.988-0.875,8-1c1.996-0.125,6.002-0.091,8,0c2.756,0.125,8.251,0.672,10.99,1c1.968,0.236,5.953,0.57,7.843,1.167
		c1.777,0.561,5.174,2.218,6.667,3.333c1.417,1.058,3.604,3.896,4.833,5.167c0.901,0.932,2.676,2.831,3.667,3.667
		c0.937,0.79,2.867,2.367,4,2.833c1.641,0.676,5.227,1.106,7,1.167c1.715,0.058,5.154-0.31,6.833-0.667
		c2.062-0.438,6.012-1.966,8-2.667c1.803-0.636,5.418-1.895,7.167-2.667c1.5-0.662,4.405-2.194,5.833-3
		c1.45-0.819,4.313-2.529,5.667-3.5c1.274-0.914,3.611-3.016,4.833-4c1.525-1.229,4.661-3.581,6.167-4.833
		c1.452-1.208,4.252-3.748,5.666-5c1.502-1.331,4.877-3.669,6-5.333c1.039-1.541,2.31-5.151,2.5-7c0.155-1.506-0.564-4.51-0.833-6
		c-0.341-1.89-0.884-5.746-1.667-7.5c-0.438-0.982-1.75-2.729-2.5-3.5c-1.202-1.237-4.035-3.257-5.5-4.167
		c-1.503-0.934-4.84-2.216-6.333-3.167c-1.076-0.685-3.076-2.287-4-3.167c-0.963-0.916-2.888-2.821-3.5-4
		c-0.811-1.561-1.569-5.078-1.667-6.833c-0.091-1.636,0.419-4.915,0.834-6.5c0.479-1.826,1.871-5.375,2.833-7
		c1.041-1.759,3.773-4.839,5.167-6.333c1.286-1.379,4.511-3.561,5.5-5.167c0.615-0.999,1.245-3.33,1.333-4.5
		c0.092-1.216-0.385-3.646-0.667-4.833c-0.388-1.628-1.934-4.676-2.166-6.333c-0.226-1.611,0.031-4.901,0.333-6.5
		c0.22-1.166,1.001-3.424,1.5-4.5c0.472-1.018,1.54-3.04,2.333-3.833s2.791-1.92,3.834-2.333c2.058-0.816,6.482-1.469,8.666-1.833
		c1.698-0.283,5.14-0.529,6.834-0.833c1.771-0.318,5.286-1.12,7-1.667c2.012-0.642,5.903-2.308,7.833-3.167
		c1.651-0.735,4.783-2.6,6.5-3.167c1.731-0.571,5.348-1.442,7.167-1.333c1.395,0.083,4.04,1.138,5.333,1.667
		c1.69,0.692,4.89,2.471,6.5,3.333c1.431,0.766,4.331,2.245,5.667,3.167c1.119,0.772,3.114,2.638,4.166,3.5
		c1.238,1.015,3.671,3.108,5,4c1.068,0.717,3.254,2.177,4.5,2.5c0.565,0.146,1.761,0.11,2.334,0c1.101-0.212,3.295-0.96,4.166-1.667
		c1.05-0.852,2.463-3.259,3-4.5c0.51-1.178,1.035-3.723,1.167-5c0.18-1.741,0.168-5.282-0.167-7
		c-0.315-1.618-1.731-4.632-2.334-6.167c-0.526-1.339-1.814-3.938-2.166-5.333c-0.379-1.504-0.783-4.62-0.667-6.167
		c0.184-2.449,1.753-7.161,2.5-9.5c0.718-2.248,2.49-6.629,3.333-8.833c0.782-2.045,2.387-6.121,3.167-8.167
		c0.508-1.33,1.666-3.949,2-5.333c0.512-2.121,1.073-6.487,1-8.667c-0.069-2.075-0.853-6.194-1.5-8.167
		c-0.535-1.629-2.069-4.727-3-6.167c-0.706-1.093-2.568-2.947-3.333-4c-0.781-1.076-2.181-3.342-2.833-4.5
		c-0.822-1.461-2.224-4.514-3-6c-0.726-1.388-2.003-4.292-3-5.5c-0.791-0.958-2.833-2.43-3.834-3.167
		c-1.042-0.768-3.174-2.258-4.333-2.833c-1.109-0.551-3.574-1.083-4.667-1.667c-1.419-0.758-3.821-2.95-5.166-3.833
		c-1.528-1.005-4.672-2.904-6.334-3.667c-1.725-0.792-5.328-2.026-7.166-2.5c-1.925-0.496-5.971-0.644-7.834-1.333
		c-1.367-0.506-3.887-2.06-5-3c-1.174-0.991-3.17-3.374-4-4.667c-0.645-1.004-1.697-3.179-2-4.333
		c-0.393-1.496-0.598-4.623-0.5-6.167c0.103-1.615,0.956-4.76,1.334-6.333c0.373-1.553,1.06-4.689,1.666-6.167
		c0.546-1.329,1.996-3.832,2.834-5c1.204-1.679,3.932-4.822,5.5-6.167c1.396-1.196,4.583-3.066,6.166-4
		c1.75-1.033,5.46-2.731,7.167-3.833c1.723-1.112,5.089-3.513,6.5-5c1.567-1.652,4.459-5.336,5.167-7.5
		c0.44-1.347,0.166-4.25,0.166-5.667s0.219-4.303-0.167-5.667c-0.432-1.526-2.173-4.263-3.166-5.5
		c-1.201-1.495-4.209-3.921-5.667-5.167c-2.028-1.732-6.24-5.012-8.333-6.667c-1.328-1.049-4.081-3.029-5.334-4.167
		c-0.851-0.772-2.438-2.444-3.166-3.333c-0.872-1.064-2.691-3.209-3.167-4.5c-0.622-1.688-0.693-5.368-0.667-7.167
		c0.035-2.393,0.751-7.144,1.167-9.5c0.772-4.38,2.648-13.096,4-17.333c0.698-2.189,2.075-6.697,3.5-8.5
		c1.019-1.288,3.883-3.063,5.333-3.833c1.491-0.792,4.672-2.037,6.334-2.333c1.887-0.336,5.752-0.077,7.666,0
		c2.59,0.104,7.806,0.261,10.334,0.833c2.392,0.542,7.108,2.167,9.166,3.5c1.286,0.833,3.351,3.159,4.334,4.333
		c1.075,1.285,2.995,4.049,3.833,5.5c1.128,1.953,2.802,6.161,3.833,8.167c0.896,1.742,2.697,5.238,3.834,6.833
		c0.873,1.226,2.702,3.737,4,4.5c1.987,1.168,6.707,1.767,9,2c2.528,0.257,7.634,0.044,10.166-0.167
		c2.227-0.186,6.675-0.759,8.834-1.333c1.338-0.355,4.022-1.219,5.166-2c1.12-0.765,2.877-2.897,3.667-4
		c1.162-1.622,3.035-5.171,3.833-7c0.685-1.57,2.268-4.79,2.167-6.5c-0.046-0.782-0.925-2.166-1.333-2.833
		c-1.457-2.382-5.029-6.703-6.834-8.833c-1.981-2.34-6.353-6.659-8.333-9c-1.938-2.291-5.922-6.852-7.333-9.5
		c-0.558-1.046-1.281-3.334-1.5-4.5c-0.463-2.46-0.487-7.497-0.5-10c-0.017-3.169-0.115-9.558,0.5-12.667
		c0.259-1.306,1.248-3.804,1.833-5c0.863-1.766,3.156-4.981,4.167-6.667c1.334-2.226,3.629-6.911,5.166-9
		c1.381-1.876,4.692-5.182,6.334-6.833c1.288-1.296,4.143-3.613,5.333-5c1.151-1.342,3.226-4.244,4-5.833
		c0.728-1.493,1.728-4.695,2-6.333c0.287-1.727,0.59-5.301,0.167-7c-0.37-1.484-2.145-4.065-3-5.333
		c-0.746-1.105-2.354-3.261-3.334-4.167c-1.035-0.957-3.345-2.676-4.666-3.167c-2.045-0.759-6.485-0.98-8.667-1
		c-2.595-0.024-7.812,0.381-10.333,1c-1.616,0.397-4.808,1.541-6.167,2.5c-0.82,0.579-2.21,2.106-2.667,3
		c-0.524,1.026-0.723,3.381-1,4.5c-0.417,1.677-1.291,5.026-1.833,6.667c-0.434,1.315-1.095,4.119-2,5.167
		c-0.72,0.833-2.765,1.903-3.833,2.167c-1.336,0.33-4.18,0.22-5.5-0.167c-0.934-0.273-2.614-1.346-3.334-2
		c-0.728-0.662-1.893-2.288-2.333-3.167c-0.644-1.285-1.341-4.101-1.667-5.5c-0.756-3.249-1.785-9.853-2.166-13.167
		c-0.291-2.53-0.267-7.651-0.667-10.167c-0.345-2.166-1.491-6.414-2.167-8.5c-0.663-2.046-2.359-6.006-3.166-8
		c-0.777-1.922-2.085-5.897-3.167-7.667c-0.972-1.588-3.527-4.34-4.833-5.667c-1.325-1.347-4.27-3.728-5.667-5
		c-1.395-1.27-4.215-3.786-5.5-5.167c-1.17-1.258-3.623-3.769-4.333-5.333c-0.611-1.348-0.986-4.354-1-5.833
		c-0.018-1.938,0.499-5.847,1.166-7.667c0.876-2.389,3.812-6.627,5.334-8.667c1.605-2.152,5.425-5.956,7.166-8
		c1.46-1.714,4.474-5.09,5.667-7c0.73-1.17,1.921-3.684,2.333-5c0.366-1.17,0.877-3.608,0.834-4.833
		c-0.067-1.929-1.051-5.736-1.834-7.5c-0.572-1.289-2.225-3.618-3.166-4.667c-1.204-1.342-4.071-3.566-5.5-4.667
		c-1.731-1.333-5.319-3.833-7.167-5c-2.352-1.484-7.2-4.216-9.667-5.5c-1.554-0.809-4.755-2.24-6.333-3
		c-1.964-0.946-5.947-2.74-7.833-3.833c-1.35-0.782-3.951-2.522-5.167-3.5c-0.896-0.72-2.664-2.232-3.333-3.167
		c-0.695-0.97-1.62-3.202-2-4.333c-0.435-1.293-1.239-3.97-1.167-5.333c0.091-1.71,1.351-4.994,2.167-6.5
		c1.116-2.059,4.573-5.358,5.833-7.333c0.802-1.257,1.983-4.008,2.667-5.333c1.018-1.971,2.951-5.978,4.167-7.833
		c1.139-1.736,3.708-5.023,5.166-6.5c1.436-1.454,4.669-3.981,6.334-5.167c1.875-1.334,5.929-3.542,7.833-4.833
		c1.332-0.902,4.007-2.719,5.167-3.833c1.005-0.964,2.977-3.043,3.5-4.333c0.519-1.28,0.655-4.128,0.5-5.5
		c-0.256-2.265-1.523-6.802-2.834-8.667c-0.819-1.166-3.344-2.667-4.5-3.5c-1.097-0.791-3.252-2.479-4.5-3
		c-1.335-0.557-4.227-1.02-5.666-1.167c-1.202-0.123-3.645-0.212-4.834,0c-1.661,0.296-4.709,1.875-6.333,2.333
		c-1.636,0.462-4.972,1.456-6.667,1.333c-1.367-0.098-3.984-1.139-5.166-1.833c-1.196-0.703-3.249-2.626-4.167-3.667
		c-0.833-0.944-2.341-3.008-2.833-4.167c-0.798-1.881-1.526-5.962-1.667-8c-0.126-1.833,0.031-5.556,0.5-7.333
		c0.614-2.324,3.047-6.54,4.167-8.667c1.053-1.999,3.442-5.837,4.5-7.833c0.803-1.515,2.615-4.497,3-6.167
		c0.337-1.462,0.423-4.561,0-6c-0.391-1.331-2.056-3.651-3-4.667c-0.993-1.068-3.283-3.039-4.667-3.5
		c-1.463-0.487-4.64-0.21-6.167,0c-2.143,0.294-6.386,1.391-8.333,2.333c-2.04,0.988-5.407,4.137-7.333,5.333
		c-1.679,1.042-5.093,3.151-7,3.667c-1.771,0.479-5.505,0.475-7.334,0.333c-2.501-0.194-7.547-0.968-9.833-2
		c-1.762-0.796-4.769-3.332-6.167-4.667c-1.177-1.123-3.318-3.611-4.166-5c-0.778-1.275-2.036-4.037-2.334-5.5
		c-0.299-1.47-0.234-4.519,0-6c0.253-1.601,1.565-4.605,2-6.167c0.493-1.772,1.789-5.332,1.667-7.167
		c-0.109-1.645-1.422-4.793-2.333-6.167c-0.668-1.007-2.545-2.593-3.5-3.333c-1.554-1.205-5.104-2.976-6.667-4.167
		c-1.665-1.268-4.759-4.117-6.166-5.667c-1.44-1.585-4.147-4.95-5.167-6.833c-0.821-1.519-1.729-4.882-2.333-6.5
		c-0.483-1.298-1.623-3.834-2-5.167c-0.564-1.998-0.905-6.178-1.5-8.167c-0.337-1.127-1.448-3.222-1.834-4.333
		c-0.566-1.633-1.702-4.943-1.833-6.667c-0.216-2.845,0.756-8.54,1.333-11.333c0.501-2.427,1.794-7.25,2.834-9.5
		c0.834-1.804,3.05-5.149,4.333-6.667c1.353-1.599,4.433-4.494,6.167-5.667c1.837-1.243,5.872-3.208,8-3.833
		c1.934-0.568,5.989-1.145,8-1c1.724,0.124,5.035,1.262,6.666,1.833c1.797,0.629,5.291,2.162,7,3c1.541,0.756,4.538,2.436,6,3.333
		c1.458,0.896,4.181,2.986,5.667,3.833c0.761,0.434,2.321,1.269,3.167,1.5c1.332,0.363,4.12,0.559,5.5,0.5
		c1.902-0.081,5.761-0.558,7.5-1.333c1.979-0.882,4.986-4.2,6.833-5.333c1.843-1.13,5.723-3.197,7.833-3.667
		c2.074-0.461,6.408-0.373,8.5,0c1.662,0.296,4.798,1.634,6.334,2.333c1.34,0.61,3.748,2.437,5.166,2.833
		c0.925,0.258,2.878,0.253,3.834,0.167c0.936-0.084,2.811-0.444,3.666-0.833c1.222-0.556,3.478-2.133,4.334-3.167
		c1.796-2.167,3.671-7.604,4.833-10.167c0.955-2.108,2.907-6.314,3.667-8.5c0.581-1.67,1.588-5.082,1.833-6.833
		c0.369-2.641-0.073-8.011,0.167-10.667c0.183-2.019,0.902-6.019,1.332-8c0.512-2.361,1.58-7.1,2.5-9.333
		c0.896-2.174,3.333-6.23,4.667-8.167c0.856-1.243,2.828-3.54,3.833-4.667c1.196-1.341,3.985-3.684,5-5.167
		c0.958-1.4,2.551-4.494,2.834-6.167c0.293-1.733-0.374-5.267-0.667-7c-0.321-1.903-1.304-5.644-1.833-7.5
		c-0.625-2.192-2.415-6.426-2.834-8.667c-0.284-1.518-0.523-4.635-0.333-6.167c0.156-1.256,0.858-3.743,1.5-4.833
		c0.673-1.143,2.739-2.885,3.667-3.833c1.318-1.348,3.706-4.38,5.333-5.333c1.457-0.854,4.855-1.451,6.5-1.833
		c2.022-0.47,6.141-1.05,8.167-1.5c1.934-0.429,5.782-1.391,7.666-2c2.084-0.673,6.198-2.207,8.167-3.167
		c2.049-0.999,6.202-3.074,7.833-4.667c1.232-1.204,3.228-4.167,3.667-5.833c0.469-1.774,0.076-5.544-0.333-7.333
		c-0.425-1.856-2.042-5.354-3-7c-0.763-1.311-2.456-3.919-3.667-4.833c-1.463-1.105-5.108-2.043-6.833-2.667
		c-1.487-0.538-4.457-1.657-6-2c-1.761-0.392-5.363-0.781-7.167-0.833c-2.879-0.083-8.622,0.768-11.5,0.667
		c-1.302-0.046-3.975-0.14-5.166-0.667c-1-0.442-2.596-2.027-3.334-2.833c-1.069-1.168-2.788-3.849-3.666-5.167
		c-1.09-1.636-3.151-4.984-4.167-6.667c-0.599-0.991-1.508-3.188-2.333-4c-0.545-0.537-1.927-1.306-2.667-1.5
		c-0.767-0.201-2.396-0.182-3.167,0c-1.088,0.257-2.986,1.528-4,2c-1.811,0.843-5.439,2.533-7.333,3.167
		c-1.342,0.449-4.111,1.064-5.5,1.333c-1.694,0.329-5.107,0.951-6.833,1c-1.422,0.041-4.272-0.22-5.667-0.5
		c-0.943-0.189-2.825-0.701-3.667-1.167c-1.241-0.687-3.427-2.575-4.333-3.667c-1.347-1.623-3.628-5.294-4.167-7.333
		c-0.564-2.135-0.307-6.646,0-8.833c0.211-1.502,0.86-4.548,1.667-5.833c0.831-1.325,3.473-3.157,4.667-4.167
		c1.426-1.206,4.182-3.796,5.833-4.667c1.772-0.935,5.685-2.039,7.667-2.333c2.184-0.325,6.639-0.243,8.833,0
		c2.08,0.23,6.123,1.383,8.167,1.833c1.541,0.339,4.604,1.105,6.166,1.333c1.612,0.235,4.882,0.691,6.5,0.5
		c1.348-0.159,3.995-0.981,5.167-1.667c1.323-0.774,3.565-2.951,4.5-4.167c0.978-1.271,2.267-4.241,3-5.667
		c0.725-1.408,1.991-4.325,2.833-5.667c1.232-1.962,4.241-5.506,5.667-7.333c1.077-1.38,3.294-4.092,4.333-5.5
		c1.263-1.711,4.056-5.021,4.833-7c0.954-2.43,1.714-7.731,1.5-10.333c-0.157-1.917-1.461-5.618-2.333-7.333
		c-0.703-1.382-2.435-4.06-3.667-5c-1.206-0.92-4.198-1.788-5.666-2.167c-3.178-0.821-9.775-1.223-13-1.833
		c-1.768-0.334-5.422-0.803-7-1.667c-1.473-0.806-3.85-3.306-4.834-4.667c-1.572-2.174-3.616-7.197-4.666-9.667
		c-0.799-1.881-1.547-6.08-2.834-7.667c-0.838-1.033-3.293-2.276-4.5-2.833c-1.783-0.822-5.559-2.039-7.5-2.333
		c-2.554-0.388-7.764,0.263-10.333,0c-2.455-0.251-7.331-1.204-9.667-2c-1.622-0.553-4.674-2.157-6.166-3
		c-1.601-0.904-4.824-2.746-6.167-4c-1.218-1.138-3.446-3.762-4-5.333c-0.804-2.28-0.249-7.25-0.333-9.667
		c-0.082-2.375-0.066-7.139-0.334-9.5c-0.272-2.403-0.973-7.239-1.833-9.5c-0.725-1.903-3.145-5.238-4.167-7
		c-1.104-1.904-3.385-5.68-4.333-7.666c-0.733-1.537-1.932-4.729-2.5-6.334c-0.787-2.224-2.342-6.692-2.833-9
		c-0.532-2.502-1.343-7.614-1.167-10.166c0.104-1.503,1.124-4.375,1.5-5.834c0.333-1.292,1.408-3.835,1.333-5.166
		c-0.085-1.514-1.43-4.342-2.166-5.667c-0.737-1.326-2.815-3.578-3.667-4.833c-1.176-1.732-3.519-5.239-4.333-7.167
		c-0.771-1.825-2.136-5.69-2-7.667c0.09-1.305,1.241-3.769,2-4.833c1.13-1.586,4.128-4.224,5.833-5.167
		c2.204-1.219,7.174-2.476,9.667-2.833c2.228-0.32,6.771,0.301,9,0c1.712-0.231,5.119-1.064,6.666-1.833
		c2.022-1.006,5.508-3.968,7.167-5.5c1.691-1.562,4.661-5.093,6.167-6.834c1.451-1.678,4.426-4.993,5.666-6.833
		c0.688-1.02,2.005-3.148,2.334-4.333c0.468-1.689,0.738-5.296,0.333-7c-0.255-1.072-1.541-2.928-2.167-3.834
		c-0.74-1.071-2.225-3.318-3.333-4c-0.946-0.582-3.244-0.776-4.333-1c-2.53-0.52-7.679-1.14-10.167-1.833
		c-1.461-0.407-4.387-1.354-5.667-2.167c-1.318-0.837-3.424-3.202-4.5-4.333c-1.181-1.241-3.575-3.725-4.5-5.167
		c-1.53-2.386-3.974-7.585-4.666-10.333c-0.438-1.742-0.482-5.371-0.5-7.167c-0.017-1.668-0.176-5.078,0.333-6.666
		c0.589-1.839,2.725-5.218,4.167-6.5c1.351-1.201,4.824-2.49,6.5-3.167c1.746-0.706,5.331-1.906,7.166-2.333
		c2.583-0.601,7.91-0.933,10.5-1.5c1.997-0.438,6.084-1.277,7.834-2.334c2.144-1.295,5.803-4.967,7-7.166
		c0.899-1.652,1.742-5.455,1.666-7.334c-0.096-2.356-1.871-6.846-2.833-9c-1.066-2.388-4.102-6.692-5.333-9
		c-0.956-1.792-2.615-5.504-3.5-7.333c-1.031-2.13-3.27-6.31-4.167-8.5c-0.749-1.829-1.866-5.628-2.5-7.5
		c-1.356-4.006-4.196-11.977-5.5-16c-1.102-3.398-2.715-10.403-4.166-13.667c-0.395-0.888-1.427-2.549-2-3.333
		c-0.819-1.121-2.717-3.155-3.667-4.167c-1.271-1.354-4.833-4.833-5.333-5.166c-0.5-0.334-8.07-4.238-10.833-5.5
		c-7.51-3.432-22.881-9.486-30.5-12.667c-3.378-1.411-10.165-4.159-13.5-5.667c-2.87-1.298-8.331-4.548-11.334-5.5
		c-2.213-0.702-6.846-1.435-9.166-1.5c-1.97-0.055-5.903,0.44-7.834,0.834c-1.963,0.399-5.741,1.778-7.666,2.333
		c-2.738,0.791-8.256,2.229-11,3c-1.879,0.527-5.561,1.947-7.5,2.167c-2.985,0.338-9.143,0.263-12-0.667
		c-2.264-0.736-6.062-3.784-8-5.167c-1.812-1.292-5.405-3.947-7-5.5c-1.823-1.775-5.061-5.734-6.5-7.833
		c-1.16-1.692-2.921-5.421-4-7.167c-1.167-1.887-3.666-5.561-5-7.333c-1.139-1.513-3.321-4.693-4.833-5.833
		c-1.163-0.876-3.909-2.036-5.333-2.334c-1.59-0.332-4.883-0.166-6.5,0c-2.244,0.23-6.885,0.696-8.833,1.834
		c-1.147,0.669-2.821,2.857-3.5,4c-0.862,1.451-2.037,4.671-2.333,6.333c-0.454,2.543-0.394,7.78,0,10.333
		c0.253,1.642,1.708,4.699,2,6.334c0.308,1.724,0.73,5.293,0.333,7c-0.41,1.761-2.369,4.921-3.5,6.333
		c-0.905,1.129-3.007,3.256-4.333,3.833c-1.19,0.518-3.876,0.638-5.167,0.5c-1.087-0.117-3.185-0.852-4.167-1.333
		c-1.453-0.712-4.036-2.699-5.333-3.667c-1.116-0.832-3.263-2.609-4.333-3.5c-0.886-0.737-2.704-2.166-3.5-3
		c-2.48-2.599-6.642-8.487-8.833-11.333c-2.394-3.11-6.846-9.608-9.5-12.5c-0.798-0.869-2.627-2.373-3.5-3.167
		c-1.461-1.33-4.273-4.121-5.833-5.333c-1.259-0.979-3.981-2.654-5.333-3.5c-2.138-1.338-6.777-3.496-8.667-5.167
		c-2.291-2.027-6.136-6.929-7.5-9.666c-0.924-1.855-1.822-5.958-2.167-8c-0.298-1.771-0.516-5.371-0.5-7.167
		c0.021-2.384,0.235-7.192,0.833-9.5c0.539-2.076,2.631-5.872,3.5-7.833c1.05-2.372,3.183-7.101,4.167-9.5
		c1.151-2.807,3.16-8.537,4.333-11.334c0.62-1.479,2.203-4.298,2.667-5.833c0.611-2.02,1.322-6.223,1.333-8.333
		c0.011-1.98-0.655-5.921-1.167-7.834c-0.382-1.428-1.161-4.417-2.167-5.5c-0.913-0.984-3.525-2.034-4.833-2.333
		c-1.625-0.372-5.01-0.18-6.667,0c-2.502,0.272-7.353,1.737-9.833,2.167c-2.938,0.509-8.878,1.104-11.833,1.5
		c-3.253,0.435-9.733,1.517-13,1.833c-3.156,0.305-9.496,0.634-12.667,0.667c-2.626,0.027-7.874-0.363-10.5-0.334
		c-3.088,0.034-9.248,0.543-12.333,0.667c-3.207,0.128-9.644-0.02-12.833,0.333c-2.786,0.309-8.395,1.133-11,2.167
		c-1.966,0.78-5.434,3.287-7.167,4.5c-1.946,1.362-5.758,4.218-7.5,5.833c-1.774,1.645-4.646,5.614-6.5,7.167
		c-1.923,1.611-6.163,4.421-8.5,5.333c-1.698,0.663-5.351,1.183-7.167,1.334c-2.243,0.186-6.771,0.138-9-0.167
		c-2.303-0.315-6.773-1.666-9-2.333c-3.71-1.112-11.112-3.46-14.667-5c-2.686-1.164-7.906-3.865-10.333-5.5
		c-1.938-1.307-5.505-4.358-7.167-6c-1.912-1.891-4.795-6.628-7-8.167c-1.859-1.298-6.234-3.073-8.5-3.167
		c-1.384-0.057-4.154,0.773-5.333,1.5c-1.683,1.037-4.115,4.278-5.333,5.834c-1.482,1.892-3.598,6.336-5.333,8
		c-0.985,0.944-3.329,2.562-4.667,2.833c-1.403,0.284-4.328-0.324-5.667-0.833c-1.491-0.567-4.335-2.256-5.333-3.5
		c-1.031-1.286-2.037-4.545-2.333-6.167c-0.345-1.886-0.349-5.782,0-7.667c0.381-2.062,2.275-5.865,3-7.833
		c1.252-3.401,3.663-10.237,4.833-13.667c1.162-3.404,3.469-10.22,4.5-13.666c0.643-2.15,2.518-6.431,2.333-8.667
		c-0.215-2.602-2.828-7.367-4.333-9.5c-1.071-1.517-3.703-4.278-5.333-5.167c-1.615-0.88-5.329-1.6-7.167-1.666
		c-2.149-0.079-6.401,0.864-8.5,1.333c-3.05,0.681-9.043,2.488-12,3.5c-3.221,1.103-9.513,3.719-12.667,5
		c-2.803,1.139-8.489,3.258-11.167,4.667c-2.721,1.432-7.864,4.835-10.333,6.666c-2.589,1.919-7.397,6.224-9.833,8.334
		c-2.187,1.894-6.503,5.746-8.667,7.666c-2.295,2.038-6.828,6.179-9.167,8.167c-1.512,1.286-4.426,4.045-6.167,5
		c-0.924,0.507-2.964,1.141-4,1.333c-1.763,0.328-5.449,0.85-7.167,0.334c-1.828-0.55-4.806-3.163-6.167-4.5
		c-1.527-1.502-4.053-5.005-5.167-6.834c-1.154-1.894-3.212-5.871-3.833-8c-0.775-2.659-0.914-8.262-1.333-11
		c-0.45-2.932-1.275-8.837-2.167-11.666c-0.454-1.44-1.518-4.354-2.5-5.5c-0.94-1.097-3.465-2.701-4.833-3.167
		c-1.543-0.525-4.87-0.519-6.5-0.5c-2.094,0.024-6.242,0.92-8.333,0.833c-2.286-0.096-6.747-1.27-9-1.666
		c-2.996-0.527-9.033-1.332-12-2c-2.959-0.667-8.741-2.531-11.667-3.334c-2.368-0.65-7.109-1.939-9.5-2.5
		c-2.609-0.612-7.853-1.75-10.5-2.166c-2.277-0.358-6.881-0.7-9.167-1c-2.717-0.357-8.116-1.312-10.833-1.667
		c-2.327-0.303-7.024-0.583-9.333-1c-1.989-0.358-5.896-1.426-7.833-2c-2.868-0.85-8.743-2.338-11.333-3.833
		c-1.585-0.916-4.373-3.391-5.5-4.834c-0.895-1.146-2.13-3.816-2.667-5.166c-0.945-2.378-1.903-7.451-2.833-9.834
		c-0.955-2.448-4.5-9-4.5-9.5s-3.782-6.165-5.333-8c-1.446-1.71-4.767-4.733-6.333-6.333c-1.979-2.021-5.815-6.184-7.833-8.167
		c-1.661-1.633-5.071-4.811-6.833-6.333c-1.861-1.607-5.79-4.576-7.667-6.167c-1.576-1.335-4.575-4.183-6.167-5.5
		c-1.74-1.44-5.494-3.982-7.167-5.5c-1.31-1.188-3.649-3.852-4.833-5.166c-1.107-1.229-3.666-3.487-4.333-5
		c-1.152-2.61-1.347-8.481-1.333-11.334c0.012-2.646,1.093-7.865,1.333-10.5c0.205-2.244,0.021-6.798,0.5-9
		c0.438-2.011,2.243-5.753,3-7.666c0.826-2.087,2.397-6.294,3.333-8.334c0.941-2.049,3.268-5.932,4.167-8
		c1.197-2.756,2.846-8.559,4-11.333c0.958-2.306,3.479-6.653,4.333-9c0.809-2.222,2.056-6.818,2.333-9.167
		c0.336-2.855,0.422-8.686-0.167-11.5c-0.462-2.211-2.254-6.448-3.5-8.333c-1.089-1.647-3.959-4.433-5.5-5.667
		c-1.679-1.345-5.415-3.526-7.333-4.5c-1.767-0.896-5.39-2.617-7.333-3c-2.698-0.531-8.253-0.13-11,0
		c-2.634,0.125-7.883,0.677-10.5,1c-2.468,0.306-7.368,1.172-9.833,1.5c-2.203,0.292-6.619,0.808-8.833,1
		c-2.038,0.178-6.134,0.728-8.167,0.5c-2.07-0.231-6.068-1.554-8-2.333c-1.953-0.787-7-3.667-7.5-3.833
		c-0.5-0.167-5.786-5.384-7.333-7.5c-1.354-1.853-3.29-6.051-4.5-8c-0.585-0.942-1.9-2.734-2.5-3.667
		c-0.87-1.352-2.301-4.267-3.333-5.5c-0.891-1.064-2.961-2.98-4.167-3.667c-1.522-0.867-4.959-1.771-6.667-2.166
		c-2.296-0.533-6.982-1.167-9.333-1.334c-2.577-0.183-7.754,0.15-10.333,0c-3.225-0.188-9.733-0.592-12.833-1.5
		c-1.735-0.508-4.916-2.296-6.5-3.166c-2.787-1.532-8.121-5.008-10.833-6.667c-2.122-1.297-6.452-3.757-8.5-5.167
		c-1.737-1.195-5.075-3.784-6.667-5.166c-1.535-1.333-4.582-4.066-5.833-5.667c-1.633-2.089-3.699-7.079-5.333-9.167
		c-1.108-1.415-3.755-3.887-5.167-5c-1.706-1.346-5.419-3.637-7.333-4.666c-1.889-1.017-5.862-2.655-7.833-3.5
		c-3.726-1.599-11.126-4.97-15-6.167c-3.256-1.006-10.031-1.992-13.333-2.833c-3.539-0.901-10.643-2.731-14-4.167
		c-2.162-0.925-6.247-3.308-8.167-4.667c-1.978-1.399-5.611-4.629-7.333-6.333c-1.343-1.329-3.789-4.217-5-5.667
		c-1.464-1.752-4.349-5.301-5.667-7.166c-1.447-2.05-4.122-6.304-5.333-8.5c-1.216-2.205-4.167-8.667-4.167-9.167
		s-3.195-7.789-4.667-10.167c-1.97-3.182-6.669-9.046-9.167-11.833c-2.379-2.656-7.87-7.262-10.25-9.917
		c-2.587-2.886-7.191-9.137-9.5-12.25c-2.511-3.384-7.53-10.168-9.75-13.75c-2.504-4.04-6.363-12.795-9-16.75
		s-8.614-11.414-12-14.75c-3.233-3.186-10.428-8.802-14.25-11.25c-3.13-2.005-9.839-5.271-13.25-6.75
		c-2.866-1.243-8.74-3.415-11.75-4.25c-4.051-1.124-12.348-2.593-16.5-3.25c-4.663-0.738-14.064-1.676-18.75-2.25
		c-3.501-0.429-10.498-1.334-14-1.75c-4.997-0.593-15.021-1.521-20-2.25c-5.216-0.764-15.685-2.288-20.75-3.75
		c-4.014-1.159-11.623-4.692-15.5-6.25c-4.685-1.881-14.027-5.715-18.75-7.5c-4.53-1.712-13.623-5.07-18.25-6.5
		c-4.693-1.45-14.179-4.059-19-5c-3.834-0.748-11.654-1.312-15.5-2c-4.671-0.836-14.134-2.39-18.5-4.25
		c-3.78-1.61-10.562-6.409-13.75-9c-2.195-1.784-5.931-6.071-8-8c-2.301-2.145-7.321-5.981-9.5-8.25c-1.94-2.021-5.409-6.445-7-8.75
		c-1.815-2.629-5.063-8.147-6.5-11c-2.532-5.029-6.948-15.416-8.75-20.75c-1.281-3.792-3.349-11.551-4-15.5
		c-0.684-4.143-0.823-12.573-1.25-16.75c-0.493-4.828-1.93-14.431-2.5-19.25c-0.554-4.682-1.463-14.066-2-18.75
		C77.149,107.185,76.722,101,76,98c-0.809-3.364-3.059-9.981-4.75-13c-1.326-2.367-5.004-6.423-6.75-8.5
		c-1.937-2.305-5.729-7.024-8-9c-1.87-1.627-5.967-4.535-8.25-5.5c-1.825-0.771-5.809-1.268-7.75-1.666
		c-1.913-0.393-7.667-1.5-7.667-1.5"/>
</g>
<g id="Entfernungen_-_gro">
	<circle fill="#1D1D1B" cx="2760.167" cy="7562.667" r="18.425"/>
	<text transform="matrix(1 0 0 1 2787.3633 7571.668)" font-family="'MyriadPro-Regular'" font-size="24">0 km</text>
	<circle fill="#1D1D1B" cx="2065.667" cy="6079.167" r="18.425"/>
	<text transform="matrix(1 0 0 1 1982.0303 6067.418)" font-family="'MyriadPro-Regular'" font-size="24">68 km</text>
	<circle fill="#1D1D1B" cx="2161.667" cy="5972.167" r="18.425"/>
	<text transform="matrix(1 0 0 1 2188.0303 5981.918)" font-family="'MyriadPro-Regular'" font-size="24">73 km</text>
	<circle fill="#1D1D1B" cx="2220.667" cy="5847.167" r="18.425"/>
	<text transform="matrix(1 0 0 1 2246.5303 5855.918)" font-family="'MyriadPro-Regular'" font-size="24">80 km</text>
	<circle fill="#1D1D1B" cx="1979.417" cy="4674.417" r="18.425"/>
	<text transform="matrix(1 0 0 1 2004.7803 4674.418)" font-family="'MyriadPro-Regular'" font-size="24">135 km</text>
	<circle fill="#1D1D1B" cx="1460.417" cy="4327.751" r="18.425"/>
	<text transform="matrix(1 0 0 1 1475.417 4309.3262)" font-family="'MyriadPro-Regular'" font-size="24">156 km</text>
	<circle fill="#1D1D1B" cx="1273.75" cy="4299.751" r="18.425"/>
	<text transform="matrix(1 0 0 1 1224.7803 4340.75)" font-family="'MyriadPro-Regular'" font-size="24">164 km</text>
	<circle fill="#1D1D1B" cx="1020.75" cy="4340.751" r="18.425"/>
	<text transform="matrix(1 0 0 1 994.2803 4383.084)" font-family="'MyriadPro-Regular'" font-size="24">177 km</text>
	<circle fill="#1D1D1B" cx="843.084" cy="4077.751" r="18.425"/>
	<text transform="matrix(1 0 0 1 860.084 4112.584)" font-family="'MyriadPro-Regular'" font-size="24">198 km</text>
	<circle fill="#1D1D1B" cx="860.084" cy="3876.418" r="18.425"/>
	<text transform="matrix(1 0 0 1 885.2803 3891.252)" font-family="'MyriadPro-Regular'" font-size="24">203 km</text>
	<circle fill="#1D1D1B" cx="1010.084" cy="3537.918" r="18.425"/>
	<text transform="matrix(1 0 0 1 1037.2803 3533.4185)" font-family="'MyriadPro-Regular'" font-size="24">214 km</text>
	<circle fill="#1D1D1B" cx="1275.182" cy="3044.918" r="18.425"/>
	<text transform="matrix(1 0 0 1 1300.0449 3041.918)" font-family="'MyriadPro-Regular'" font-size="24">236 km</text>
	<circle fill="#1D1D1B" cx="1274.182" cy="2921.668" r="18.425"/>
	<text transform="matrix(1 0 0 1 1174.7129 2932.668)" font-family="'MyriadPro-Regular'" font-size="24">243 km</text>
	<circle fill="#1D1D1B" cx="1353.849" cy="2719.668" r="18.425"/>
	<text transform="matrix(1 0 0 1 1378.7119 2726.1689)" font-family="'MyriadPro-Regular'" font-size="24">251 km</text>
	<circle fill="#1D1D1B" cx="1592.849" cy="2379.002" r="18.425"/>
	<text transform="matrix(1 0 0 1 1617.0449 2384.502)" font-family="'MyriadPro-Regular'" font-size="24">268 km</text>
	<circle fill="#1D1D1B" cx="1441.848" cy="1649.335" r="18.426"/>
	<text transform="matrix(1 0 0 1 1340.0439 1657.3359)" font-family="'MyriadPro-Regular'" font-size="24">297 km</text>
	<circle fill="#1D1D1B" cx="1637.513" cy="1469.668" r="18.425"/>
	<text transform="matrix(1 0 0 1 1662.3779 1477.668)" font-family="'MyriadPro-Regular'" font-size="24">308 km</text>
	<circle fill="#1D1D1B" cx="774.544" cy="737.168" r="18.425"/>
	<text transform="matrix(1 0 0 1 794.4082 715.168)" font-family="'MyriadPro-Regular'" font-size="24">356 km</text>
	<circle fill="#1D1D1B" cx="384.044" cy="323.168" r="18.425"/>
	<text transform="matrix(1 0 0 1 409.9082 309.7432)" font-family="'MyriadPro-Regular'" font-size="24">367 km</text>
	<circle fill="#1D1D1B" cx="32.833" cy="58.834" r="18.425"/>
	<text transform="matrix(1 0 0 1 7.5752 30.335)"><tspan x="0" y="0" font-family="'MyriadPro-Regular'" font-size="24">385 k</tspan><tspan x="53.278" y="0" font-family="'MyriadPro-Regular'" font-size="24">m</tspan></text>
	<circle fill="#1D1D1B" cx="711.75" cy="4388.751" r="18.425"/>
	<text transform="matrix(1 0 0 1 622.1133 4419.084)" font-family="'MyriadPro-Regular'" font-size="24">184 km</text>
</g>
</svg>
