<?xml version="1.0" encoding="utf-8"?>
<!-- Generator: Adobe Illustrator 15.0.2, SVG Export Plug-In . SVG Version: 6.00 Build 0)  -->
<!DOCTYPE svg PUBLIC "-//W3C//DTD SVG 1.1//EN" "http://www.w3.org/Graphics/SVG/1.1/DTD/svg11.dtd">
<svg version="1.1" xmlns="http://www.w3.org/2000/svg" xmlns:xlink="http://www.w3.org/1999/xlink" x="0px" y="0px"
	 width="5030.564px" height="2187.219px" viewBox="0 0 5030.564 2187.219" enable-background="new 0 0 5030.564 2187.219"
	 xml:space="preserve">
<g id="Ebene_2">
	<path fill="none" stroke="#E6007E" stroke-width="18" stroke-miterlimit="10" stroke-opacity="0.5" d="M4278.5,1360.156
		c-0.817,0.013-2.456-0.18-3.25-0.375c-0.846-0.208-2.461-0.882-3.25-1.25c-0.874-0.408-2.566-1.348-3.375-1.875
		c-0.821-0.536-2.443-1.67-3.125-2.375c-0.639-0.661-1.55-2.283-2.125-3c-0.554-0.69-1.921-1.865-2.375-2.625
		c-0.527-0.883-1.078-2.891-1.375-3.875c-0.335-1.11-0.659-3.438-1.125-4.5c-0.525-1.198-2.026-3.378-2.875-4.375
		c-0.659-0.774-2.225-2.092-3-2.75c-0.849-0.721-2.567-2.144-3.5-2.75c-1.008-0.655-3.188-1.685-4.25-2.25
		c-0.876-0.467-2.71-1.274-3.5-1.875c-0.792-0.602-2.307-1.984-2.75-2.875c-0.437-0.879-0.547-2.896-0.625-3.875
		c-0.077-0.966,0.263-2.942,0-3.875c-0.179-0.635-1.064-1.669-1.375-2.25c-0.422-0.789-1.024-2.492-1.5-3.25
		c-0.602-0.959-2.125-2.651-2.875-3.5c-0.571-0.646-1.711-1.95-2.375-2.5c-0.802-0.663-2.502-1.957-3.5-2.25
		c-1.079-0.317-3.379-0.093-4.5,0c-1.137,0.094-3.366,0.628-4.5,0.75c-1.058,0.113-3.188,0.265-4.25,0.209
		c-0.811-0.043-2.447-0.217-3.208-0.5c-0.609-0.227-1.768-0.897-2.209-1.375c-0.582-0.629-1.208-2.271-1.583-3.042
		c-0.32-0.658-0.887-2.009-1.208-2.666c-0.295-0.603-0.976-1.763-1.25-2.375c-0.341-0.761-0.903-2.334-1.167-3.125
		c-0.223-0.669-0.565-2.041-0.792-2.709c-0.176-0.519-0.593-1.53-0.791-2.041c-0.425-1.095-1.294-3.276-1.709-4.375
		c-0.568-1.505-1.768-4.496-2.208-6.043c-0.338-1.187-0.844-3.609-1-4.833c-0.263-2.049-0.306-6.188-0.417-8.25
		c-0.099-1.812-0.363-5.436-0.416-7.25c-0.05-1.729-0.259-5.207,0-6.917c0.137-0.905,0.771-2.639,1.083-3.5
		c0.314-0.87,1.352-2.494,1.417-3.417c0.06-0.837-0.541-2.464-0.834-3.25c-0.326-0.873-1.205-2.524-1.666-3.333
		c-0.381-0.668-1.303-1.906-1.667-2.583c-0.442-0.822-1.216-2.528-1.5-3.417c-0.279-0.871-0.78-2.669-0.75-3.583
		c0.036-1.081,0.731-3.176,1.167-4.167c0.493-1.122,1.87-3.17,2.583-4.167c0.783-1.096,2.706-3.022,3.417-4.166
		c0.507-0.815,1.303-2.581,1.583-3.5c0.364-1.192,0.868-3.671,0.833-4.917c-0.039-1.409-0.847-4.148-1.25-5.5
		c-0.426-1.427-1.285-4.325-2.083-5.583c-0.703-1.107-2.645-2.929-3.667-3.75c-0.861-0.691-2.745-1.875-3.75-2.334
		c-1.091-0.498-3.427-1.1-4.583-1.416c-0.951-0.261-2.97-0.442-3.834-0.917c-0.891-0.49-2.316-2.014-2.916-2.833
		c-0.523-0.715-1.455-2.291-1.584-3.167c-0.16-1.087,0.79-3.234,0.75-4.333c-0.028-0.772-0.419-2.301-0.75-3
		c-0.433-0.915-1.766-2.475-2.416-3.25c-0.663-0.79-2.058-2.32-2.834-3c-0.831-0.728-2.692-1.932-3.583-2.584
		c-0.9-0.659-2.666-2.03-3.583-2.666s-2.77-1.885-3.75-2.417c-0.983-0.533-3.023-1.478-4.084-1.833c-0.973-0.326-2.98-0.802-4-0.917
		c-0.91-0.104-2.751-0.05-3.666,0c-1.151,0.062-3.499,0.11-4.584,0.5c-0.75,0.27-1.923,1.462-2.666,1.75
		c-0.983,0.382-3.112,0.695-4.167,0.667c-1.385-0.037-4.086-0.783-5.417-1.167c-0.938-0.27-2.703-1.183-3.666-1.333
		c-1.092-0.17-4.167,0.167-4.417,0.167s-3.585,0.148-4.75-0.084c-0.835-0.167-2.404-0.87-3.166-1.25
		c-0.678-0.338-2.053-1.044-2.584-1.583c-0.544-0.553-1.132-2.036-1.583-2.667c-0.43-0.602-1.542-1.613-1.917-2.25
		c-0.451-0.767-0.845-2.541-1.25-3.333c-0.309-0.602-1.093-1.71-1.5-2.25c-0.445-0.59-1.424-1.698-1.916-2.25
		c-0.569-0.638-1.796-1.836-2.334-2.5c-0.593-0.731-1.641-2.301-2.166-3.083c-0.539-0.801-1.641-2.393-2.084-3.25
		c-0.434-0.839-1.061-2.625-1.416-3.5c-0.271-0.667-0.811-2.001-1.084-2.667c-0.412-1.002-1.453-2.938-1.666-4
		c-0.204-1.021,0-3.125,0-4.167c0-0.917-0.255-2.785,0-3.666c0.314-1.089,1.924-2.813,2.416-3.834
		c0.412-0.854,1.099-2.646,1.25-3.583c0.213-1.316,0.124-4.016-0.083-5.333c-0.21-1.335-0.953-3.973-1.584-5.167
		c-0.374-0.708-1.435-1.933-1.999-2.5c-0.794-0.798-2.649-2.097-3.501-2.833c-1.115-0.964-3.332-2.918-4.333-4
		c-0.937-1.013-2.57-3.244-3.417-4.334c-0.82-1.057-2.429-3.194-3.25-4.25c-0.701-0.901-2.09-2.717-2.833-3.583
		c-0.538-0.627-1.813-1.716-2.25-2.417c-0.648-1.041-1.527-3.377-1.75-4.583c-0.121-0.656-0.058-2.003,0-2.667
		c0.084-0.969,0.397-2.898,0.667-3.833c0.351-1.212,1.498-3.477,1.917-4.667c0.317-0.901,0.817-2.749,1.083-3.667
		c0.361-1.248,1.375-3.701,1.417-5c0.029-0.895-0.438-2.662-0.75-3.5c-0.369-0.988-1.834-3.332-2.084-3.666
		s-2.448-3.051-3.416-3.917c-0.836-0.748-2.73-1.966-3.667-2.583c-1.062-0.7-3.275-1.961-4.333-2.667
		c-0.77-0.514-2.368-1.491-3-2.167c-0.672-0.718-1.58-2.49-2.084-3.333c-0.345-0.576-0.873-1.844-1.333-2.333
		c-0.495-0.526-1.786-1.231-2.417-1.584c-0.683-0.382-2.149-0.953-2.833-1.333c-0.737-0.409-2.146-1.346-2.833-1.833
		c-0.666-0.473-2.016-1.414-2.584-2c-0.79-0.813-2.032-2.727-2.666-3.667c-0.616-0.916-1.747-2.814-2.334-3.75
		c-0.642-1.022-1.852-3.122-2.583-4.083c-0.732-0.962-2.423-2.702-3.25-3.584c-0.635-0.677-1.882-2.059-2.583-2.666
		c-0.914-0.791-2.961-2.094-3.917-2.834c-0.749-0.58-2.203-1.794-2.917-2.417c-0.789-0.688-2.31-2.128-3.083-2.833
		c-0.665-0.606-2.082-1.733-2.667-2.417c-0.519-0.605-1.257-2.04-1.75-2.667c-0.547-0.695-1.854-1.901-2.416-2.583
		c-0.949-1.151-2.763-3.536-3.5-4.833c-0.649-1.144-1.607-3.607-2.084-4.833c-0.552-1.418-1.366-4.366-2-5.75
		c-0.571-1.248-2.017-3.59-2.75-4.75c-0.648-1.026-2.063-2.999-2.75-4c-0.813-1.187-2.444-3.558-3.25-4.75
		c-0.715-1.058-1.909-3.369-2.833-4.25c-0.879-0.838-3.148-1.837-4.167-2.5c-0.94-0.612-2.746-1.941-3.666-2.583
		c-1.08-0.754-3.466-2.009-4.334-3c-0.571-0.652-1.195-2.308-1.583-3.083c-0.383-0.767-1.308-2.248-1.5-3.083
		c-0.332-1.441,0-4.438,0-5.917c0-1.292,0.502-3.977,0-5.167c-0.441-1.045-2.398-2.417-3.25-3.167
		c-0.879-0.774-2.785-2.146-3.667-2.917c-1.587-1.386-4.647-4.292-6.083-5.833c-0.978-1.05-2.779-3.289-3.667-4.417
		c-0.819-1.042-2.398-3.169-3.166-4.25c-0.579-0.815-2.084-3.083-2.334-3.25s-2.966-2.086-3.916-2.833
		c-0.709-0.557-2.058-1.756-2.75-2.333c-1.034-0.863-3.239-2.439-4.167-3.417c-0.605-0.638-1.655-2.065-2.084-2.833
		c-0.515-0.922-1.097-2.979-1.583-3.917c-0.548-1.057-2.15-2.891-2.583-4c-0.445-1.143-0.729-3.612-0.834-4.833
		c-0.083-0.976,0.153-2.95,0-3.917c-0.169-1.061-0.929-3.089-1.333-4.083c-0.533-1.312-1.743-3.886-2.5-5.083
		c-0.682-1.079-2.253-3.11-3.167-4c-0.746-0.727-2.615-1.746-3.333-2.5c-0.59-0.62-1.429-2.131-1.917-2.833
		c-0.614-0.883-1.739-2.74-2.5-3.5s-2.637-1.859-3.5-2.5c-1.014-0.752-2.848-2.568-4-3.083c-1.141-0.51-3.672-0.802-4.916-0.917
		c-0.934-0.086-2.812,0-3.75,0c-0.896,0-2.693-0.104-3.584,0c-1.34,0.157-3.993,0.761-5.25,1.25
		c-1.155,0.45-3.338,1.677-4.333,2.417c-0.769,0.571-2.033,2.032-2.75,2.667c-0.843,0.747-2.654,2.09-3.5,2.833
		c-0.908,0.798-2.606,2.52-3.5,3.333c-0.797,0.726-2.399,2.172-3.25,2.833c-1.1,0.854-3.373,2.478-4.583,3.167
		c-0.956,0.544-2.933,1.565-4,1.833c-1.031,0.259-4,0.25-4.25,0.167s-4.626-0.23-6.167-0.333c-1.357-0.091-4.066-0.341-5.417-0.5
		c-1.17-0.137-3.509-0.45-4.666-0.667c-0.904-0.169-2.762-0.42-3.584-0.833c-0.951-0.478-2.571-1.93-3.25-2.75
		c-0.945-1.143-2.14-3.903-2.916-5.167c-0.983-1.6-3.102-4.703-4.167-6.25c-0.551-0.8-1.835-2.289-2.25-3.167
		c-0.406-0.859-0.983-2.717-1-3.667c-0.013-0.728,0.591-2.109,0.667-2.833c0.103-0.974,0.015-2.943-0.084-3.917
		c-0.081-0.801-0.192-2.463-0.583-3.167c-0.465-0.838-2.216-1.85-2.833-2.583c-0.874-1.04-2.194-3.433-2.917-4.583
		c-0.651-1.038-1.978-3.102-2.583-4.167c-0.604-1.062-1.671-3.258-2.25-4.333c-0.486-0.903-1.638-2.624-2-3.583
		c-0.384-1.017-0.536-3.232-0.917-4.25c-0.333-0.891-1.189-2.633-1.833-3.333c-0.66-0.719-2.392-1.702-3.25-2.167
		c-1.116-0.604-3.611-1.294-4.667-2c-1.114-0.746-3.027-2.679-3.833-3.75c-0.768-1.021-1.793-3.386-2.417-4.5
		c-0.565-1.01-1.898-2.927-2.333-4c-0.588-1.452-1.084-4.573-1.5-6.083c-0.398-1.449-1.529-4.264-1.75-5.75
		c-0.202-1.36,0.075-4.127,0-5.5c-0.084-1.528-0.756-4.556-0.667-6.083c0.08-1.383,1.167-5.083,1.167-5.417s1.386-4.234,2-5.583
		c0.44-0.967,1.392-2.879,2-3.75c0.447-0.641,1.604-1.716,2.083-2.333c0.617-0.793,1.893-2.394,2.25-3.333
		c0.389-1.022,0.575-3.24,0.584-4.333c0.011-1.405-0.277-4.233-0.667-5.583c-0.256-0.886-1.084-2.558-1.583-3.333
		c-0.56-0.871-1.729-2.73-2.667-3.167c-0.982-0.457-3.268,0.194-4.333,0c-0.985-0.18-2.879-0.92-3.75-1.417
		c-0.695-0.396-2.015-1.364-2.5-2c-0.51-0.667-1.221-2.251-1.334-3.083c-0.16-1.17,0.583-4.25,0.75-4.667s1.569-4.386,1.584-5.917
		c0.012-1.263-0.995-3.665-1.167-4.917c-0.145-1.053-0.365-3.205-0.167-4.25c0.174-0.917,0.936-2.674,1.5-3.417
		c0.537-0.708,1.913-1.951,2.75-2.25c0.805-0.287,2.565-0.067,3.417,0c1.198,0.094,3.548,0.77,4.75,0.75
		c0.997-0.016,3.106-0.168,3.917-0.75c1.03-0.74,2.229-3.178,2.5-4.417c0.269-1.225-0.064-3.796-0.417-5
		c-0.338-1.154-1.598-3.24-2.25-4.25c-0.571-0.885-1.859-2.567-2.583-3.333c-0.589-0.623-1.856-1.798-2.584-2.25
		c-0.92-0.571-3.072-1.107-4-1.667c-0.811-0.489-2.288-1.708-2.916-2.417c-0.41-0.463-1.075-1.522-1.334-2.083
		c-0.3-0.652-0.825-2.032-0.833-2.75c-0.006-0.541,0.333-1.604,0.583-2.083c0.287-0.551,1.088-1.541,1.583-1.917
		c0.49-0.373,1.697-0.729,2.25-1c0.595-0.291,1.769-0.905,2.334-1.25c0.562-0.344,1.693-1.042,2.166-1.5
		c0.578-0.56,1.626-1.833,1.917-2.583c0.371-0.957,0.525-3.063,0.417-4.083c-0.086-0.806-0.7-2.331-1-3.083
		c-0.376-0.943-1.267-2.773-1.75-3.667c-0.325-0.601-1.217-1.681-1.417-2.333c-0.251-0.817-0.334-2.578-0.167-3.417
		c0.162-0.813,0.87-2.376,1.417-3c0.507-0.578,1.92-1.279,2.583-1.667c0.772-0.451,2.374-1.253,3.167-1.667
		c0.562-0.293,1.714-0.83,2.25-1.167c0.441-0.277,1.378-0.816,1.667-1.25c0.562-0.841,0.874-2.914,1-3.917
		c0.127-1.013,0.083-3.066,0-4.083c-0.094-1.157-0.518-3.446-0.75-4.583c-0.262-1.282-0.545-3.98-1.25-5.083
		c-0.431-0.674-1.938-1.43-2.5-2c-0.834-0.846-2.145-2.847-2.917-3.75c-0.613-0.717-1.874-2.128-2.583-2.75
		c-0.617-0.542-1.931-1.553-2.667-1.917c-0.645-0.318-2.081-0.572-2.75-0.833c-0.668-0.261-1.95-0.913-2.583-1.25
		c-0.873-0.466-2.696-1.321-3.417-2c-0.656-0.619-1.739-2.137-2-3c-0.284-0.937,0.154-2.95,0-3.917
		c-0.189-1.191-1.174-3.423-1.5-4.583c-0.318-1.133-0.849-3.43-1.083-4.583c-0.173-0.85-0.348-2.583-0.583-3.417
		c-0.243-0.863-0.765-2.64-1.334-3.333c-0.583-0.71-2.267-1.579-3.083-2c-0.757-0.39-2.46-0.776-3.167-1.25
		c-0.6-0.402-1.564-1.507-2-2.083c-0.597-0.79-1.605-2.509-2-3.417c-0.435-0.998-0.932-3.126-1.25-4.167
		c-0.389-1.272-1.245-3.796-1.583-5.083c-0.227-0.866-0.797-2.606-0.75-3.5c0.049-0.941,0.518-2.901,1.167-3.583
		c0.845-0.888,3.395-1.446,4.583-1.75c1.345-0.344,4.145-0.454,5.5-0.75c1.191-0.26,3.485-1.114,4.667-1.417
		c1.279-0.328,3.903-0.699,5.166-1.083c0.903-0.275,2.64-1.028,3.5-1.417c0.594-0.269,1.927-0.657,2.333-1.167
		c0.494-0.62,0.639-2.297,0.75-3.083c0.14-0.991,0.359-3.018,0.167-4c-0.154-0.787-0.891-2.248-1.333-2.917
		c-0.699-1.059-2.657-2.734-3.417-3.75c-0.817-1.093-2.161-3.479-2.833-4.667c-0.44-0.778-1.331-2.337-1.667-3.167
		c-0.277-0.684-0.678-2.111-0.833-2.833c-0.225-1.049-0.585-3.177-0.584-4.25c0.001-1.052,0.399-3.131,0.584-4.167
		c0.173-0.965,0.615-2.877,0.833-3.833c0.199-0.877,0.769-2.603,0.833-3.5c0.049-0.688-0.148-2.067-0.25-2.75
		c-0.15-1.01-0.574-3.012-0.833-4c-0.332-1.269-1.299-3.72-1.583-5c-0.347-1.559-0.669-4.744-0.833-6.333
		c-0.144-1.393-0.249-4.194-0.417-5.583c-0.121-1.006-0.757-2.99-0.667-4c0.082-0.925,0.833-2.67,1.25-3.5
		c0.606-1.208,2.202-3.409,3-4.5c0.551-0.753,1.783-2.163,2.334-2.917c0.576-0.789,1.974-2.293,2.166-3.25
		c0.15-0.749-0.297-2.292-0.583-3c-0.502-1.244-2.092-3.443-2.917-4.5c-0.789-1.011-2.779-2.689-3.5-3.75
		c-0.712-1.048-1.76-3.383-2.167-4.583c-0.444-1.312-0.893-4.059-1.166-5.417c-0.246-1.226-0.757-3.677-0.917-4.917
		c-0.147-1.14-0.481-3.444-0.333-4.583c0.182-1.398,1.41-3.988,1.833-5.333c0.318-1.013,1.062-3.027,1.167-4.083
		c0.104-1.04-0.026-3.168-0.334-4.167c-0.247-0.803-1.117-2.281-1.666-2.917c-0.728-0.842-2.554-2.165-3.5-2.75
		c-1.117-0.691-3.558-1.698-4.75-2.25c-1.473-0.681-4.427-2.026-5.917-2.667c-1.262-0.542-3.835-1.511-5.083-2.083
		c-1.296-0.594-3.891-1.803-5.084-2.583c-0.632-0.413-1.827-1.357-2.333-1.917c-0.756-0.835-1.938-2.773-2.5-3.75
		c-0.637-1.106-1.564-3.507-2.25-4.583c-0.518-0.812-1.731-2.323-2.417-3c-1.055-1.042-3.445-2.824-4.666-3.667
		c-1.161-0.802-3.644-2.158-4.834-2.917c-1.164-0.742-3.41-2.355-4.583-3.083c-0.998-0.62-3.029-1.812-4.083-2.333
		c-0.912-0.451-2.768-1.317-3.75-1.583c-1.237-0.336-3.805-0.583-5.084-0.667c-1.455-0.095-4.389,0.198-5.833,0
		c-0.921-0.126-2.735-0.618-3.583-1c-1.29-0.583-3.678-2.159-4.75-3.083c-1.073-0.926-2.886-3.127-3.75-4.25
		c-0.596-0.774-1.884-2.315-2.167-3.25c-0.254-0.837-0.18-2.644,0-3.5c0.191-0.913,1.056-2.596,1.5-3.417
		c0.581-1.072,2.024-3.047,2.667-4.083c0.649-1.047,1.906-3.17,2.5-4.25c0.462-0.841,1.588-2.471,1.75-3.417
		c0.267-1.554-0.408-4.732-0.834-6.25c-0.308-1.095-1.232-3.2-1.833-4.167c-0.616-0.993-2.063-2.885-3-3.583
		c-1.055-0.786-3.585-1.667-4.833-2.083c-1.261-0.421-3.847-1.093-5.167-1.25c-1.51-0.18-4.563,0.061-6.083,0
		c-1.566-0.062-4.689-0.355-6.25-0.5c-1.189-0.11-3.597-0.191-4.75-0.5c-1.189-0.318-3.365-1.523-4.5-2
		c-1.332-0.559-4.025-1.608-5.375-2.125c-1.432-0.547-4.354-1.491-5.75-2.125c-1.426-0.648-4.063-2.375-5.5-3
		c-1.178-0.513-3.863-0.833-4.875-1.625c-1.195-0.935-2.529-3.79-3.25-5.125c-0.864-1.6-2.19-4.997-3-6.625
		c-0.729-1.465-2.271-4.354-3.125-5.75c-0.692-1.131-2.198-3.319-3-4.375c-0.765-1.007-2.217-3.146-3.25-3.875
		c-0.953-0.672-3.295-1.184-4.375-1.625c-1.204-0.492-3.529-1.674-4.75-2.125c-1.345-0.497-4.135-1.188-5.5-1.625
		c-1.826-0.584-5.502-1.713-7.25-2.5c-1.276-0.574-3.681-2.021-4.875-2.75c-1.117-0.681-3.367-2.04-4.375-2.875
		c-1.004-0.832-2.728-2.804-3.625-3.75c-0.853-0.898-2.634-2.633-3.375-3.625c-0.847-1.134-2.142-3.665-2.875-4.875
		c-0.705-1.165-2.123-3.49-2.875-4.625c-0.929-1.402-2.764-4.238-3.875-5.5c-0.979-1.112-3.134-3.19-4.375-4
		c-1.23-0.803-4.016-1.818-5.375-2.375c-1.639-0.67-4.955-1.911-6.625-2.5c-2.078-0.733-6.253-2.157-8.375-2.75
		c-2.132-0.596-6.491-1.412-8.625-2c-1.677-0.462-5.097-1.295-6.625-2.125c-1.737-0.943-4.575-3.773-6.125-5
		c-1.328-1.051-4.038-3.084-5.375-4.125c-1.194-0.929-3.567-2.807-4.75-3.75c-1.13-0.901-3.404-2.684-4.5-3.625
		c-1.124-0.965-3.256-3.029-4.375-4c-1.375-1.193-4.364-3.312-5.625-4.625c-1.328-1.385-3.676-4.458-4.625-6.125
		c-0.735-1.291-1.766-4.095-2.25-5.5c-0.486-1.412-1.228-4.31-1.625-5.75c-0.447-1.622-1.229-4.9-1.75-6.5
		c-0.404-1.242-1.204-3.754-1.875-4.875c-0.614-1.027-2.271-2.786-3.125-3.625c-1.044-1.027-3.283-2.936-4.5-3.75
		c-1.115-0.746-3.447-2.178-4.75-2.5c-1.062-0.262-3.285-0.096-4.375,0c-1.423,0.125-4.258,0.585-5.625,1
		c-1.861,0.565-5.37,2.286-7.125,3.125c-1.651,0.79-4.8,2.694-6.5,3.375c-2.599,1.041-8.008,2.566-10.75,3.125
		c-3.608,0.735-10.974,1.276-14.625,1.75c-2.91,0.377-8.724,1.187-11.625,1.625c-2.504,0.378-7.471,1.492-10,1.625
		c-2.219,0.116-6.661-0.689-8.875-0.5c-1.246,0.106-3.703,0.689-4.875,1.125c-1.192,0.443-3.581,1.496-4.5,2.375
		c-0.759,0.726-1.554,2.744-2.125,3.625c-0.585,0.902-1.752,2.728-2.5,3.5c-0.931,0.961-3.087,2.589-4.25,3.25
		c-0.878,0.499-2.759,1.309-3.75,1.5c-1.258,0.242-3.866-0.238-5.125,0c-0.759,0.143-2.293,0.618-2.875,1.125
		c-0.675,0.588-1.29,2.357-1.75,3.125c-0.686,1.146-1.945,3.542-2.875,4.5c-1.08,1.114-3.673,2.953-5.125,3.5
		c-1.679,0.633-5.331,0.816-7.125,0.875c-1.658,0.055-4.975-0.206-6.625-0.375c-1.478-0.151-4.48-0.365-5.875-0.875
		c-1.173-0.429-3.257-1.868-4.25-2.625c-0.95-0.724-2.473-2.641-3.5-3.25c-0.85-0.504-2.819-0.919-3.75-1.25
		c-1.165-0.414-3.447-1.373-4.625-1.75c-1.632-0.522-4.989-1.243-6.625-1.75c-1.331-0.413-3.92-1.458-5.25-1.875
		c-1.482-0.465-4.447-1.553-6-1.625c-1.458-0.067-4.364,0.544-5.75,1c-1.128,0.371-3.115,1.775-4.25,2.125
		c-1.115,0.344-3.459,0.659-4.625,0.625c-1.146-0.033-3.362-1.017-4.5-0.875c-1.165,0.145-3.154,1.577-4.25,2
		c-2.684,1.037-8.217,2.646-11,3.375c-3.125,0.818-9.504,1.917-12.625,2.75c-6.398,1.707-18.904,6.107-25.25,8
		c-3.887,1.16-11.74,3.207-15.625,4.375c-5.47,1.646-16.074,6.356-21.75,7c-1.091,0.124-3.312-0.104-4.375-0.375
		c-0.827-0.211-2.358-0.999-3.125-1.375c-1.117-0.548-3.344-1.678-4.375-2.375c-1.177-0.796-3.166-2.879-4.375-3.625
		c-1.19-0.735-3.786-1.844-5.125-2.25c-1.032-0.313-3.187-0.567-4.25-0.75c-0.562-0.096-1.701-0.221-2.25-0.375
		c-0.973-0.272-3.017-0.806-3.75-1.5c-0.7-0.664-1.169-2.65-1.625-3.5c-0.763-1.421-2.337-4.265-3.375-5.5
		c-0.456-0.542-1.475-1.595-2.125-1.875c-0.634-0.273-2.069-0.138-2.75-0.25c-0.92-0.152-2.822-0.401-3.625-0.875
		c-0.876-0.517-2.09-2.226-2.75-3c-0.751-0.88-2.088-2.777-2.875-3.625c-0.752-0.811-2.291-2.45-3.25-3
		c-1.021-0.585-3.362-1.077-4.5-1.375c-0.99-0.259-3.02-0.581-4-0.875c-1.251-0.375-3.787-1.153-4.875-1.875
		c-0.977-0.647-2.479-2.493-3.25-3.375c-0.762-0.871-2.002-2.866-2.875-3.625c-0.793-0.689-2.734-1.568-3.625-2.125
		c-1.528-0.956-4.518-2.975-6-4c-1.676-1.159-4.984-3.542-6.625-4.75c-1.293-0.953-3.836-2.917-5.125-3.875
		c-1.615-1.201-4.798-3.677-6.5-4.75c-1.562-0.984-4.745-2.929-6.5-3.5c-1.979-0.645-6.186-0.858-8.25-1.125
		c-2.81-0.363-8.433-1.077-11.25-1.375c-4.181-0.442-12.578-0.976-16.75-1.5c-2.324-0.292-7.193-0.378-9.25-1.5
		c-1.107-0.604-2.582-2.769-3.375-3.75c-0.703-0.87-1.947-2.735-2.625-3.625c-0.728-0.955-1.956-3.157-3-3.75
		c-0.987-0.562-3.367-0.547-4.5-0.625c-1.621-0.112-4.878-0.096-6.5,0c-1.854,0.109-5.697,0.079-7.375,0.875
		c-1.138,0.54-2.959,2.431-3.625,3.5c-0.486,0.78-0.843,2.625-1.125,3.5c-0.343,1.063-0.752,3.323-1.375,4.25
		c-0.433,0.644-1.66,1.698-2.375,2c-0.578,0.245-1.872,0.242-2.5,0.25c-1.253,0.016-3.758-0.207-5-0.375
		c-1.768-0.239-5.312-0.799-7-1.375c-1.389-0.474-4.041-1.794-5.25-2.625c-1.222-0.839-3.198-3.099-4.375-4
		c-0.971-0.743-2.957-2.266-4.125-2.625c-1.016-0.312-3.231-0.43-4.25-0.125c-1.097,0.328-2.832,1.942-3.75,2.625
		c-0.607,0.452-1.66,1.627-2.375,1.875c-0.856,0.297-2.74,0.195-3.625,0c-0.942-0.208-2.599-1.282-3.5-1.625
		c-1.525-0.579-4.718-1.314-6.25-1.875c-1.472-0.539-4.293-1.922-5.75-2.5c-1.204-0.477-3.889-0.911-4.875-1.75
		c-1.523-1.296-2.902-5.252-3.875-7c-0.592-1.063-1.325-3.634-2.375-4.25c-0.593-0.348-2.064-0.049-2.75,0
		c-1.322,0.094-3.971,0.401-5.25,0.75c-1.108,0.302-3.129,1.5-4.25,1.75c-1.862,0.417-5.718,0.305-7.625,0.375
		c-1.312,0.048-3.941,0.231-5.25,0.125c-1.014-0.082-3.015-0.495-4-0.75c-1.147-0.297-3.387-1.09-4.5-1.5
		c-1.645-0.605-4.779-2.291-6.5-2.625c-0.736-0.143-2.26-0.124-3,0c-1.043,0.174-3.042,0.927-4,1.375
		c-1.092,0.511-2.987,2.099-4.125,2.5c-0.892,0.314-2.814,0.637-3.75,0.5c-1.356-0.198-3.696-1.827-5-2.25
		c-1.609-0.522-4.975-1.005-6.625-1.375c-2.478-0.555-7.371-1.951-9.875-2.375c-1.857-0.315-5.659-1.154-7.5-0.75
		c-1.204,0.264-3.275,1.746-4.25,2.5c-0.419,0.325-1.213,1.054-1.5,1.5c-0.578,0.898-1.31,2.949-1.5,4
		c-0.184,1.015,0.27,3.129,0,4.125c-0.227,0.838-1.106,2.417-1.75,3c-0.611,0.554-2.181,1.276-3,1.375
		c-1.801,0.216-5.347-1.016-7.125-1.375c-1.784-0.36-5.392-0.944-7.125-1.5c-1.853-0.594-5.308-2.432-7.125-3.125
		c-1.505-0.574-4.55-1.663-6.125-2c-1.721-0.369-5.264-0.463-7-0.75c-1.549-0.256-4.618-0.938-6.125-1.375
		c-1.689-0.491-5.017-1.662-6.625-2.375c-1.942-0.861-5.785-2.745-7.5-4c-1.676-1.228-5.625-5.5-6-5.75s-5.226-4.237-6.75-5.875
		c-1.124-1.208-3.116-3.856-4-5.25c-0.943-1.487-2.694-4.579-3.25-6.25c-0.609-1.833-0.756-5.758-1.25-7.625
		c-0.529-1.998-1.961-5.896-2.875-7.75c-0.571-1.159-1.979-3.339-2.75-4.375c-0.992-1.332-3.132-3.898-4.375-5
		c-1.245-1.104-4.002-3.024-5.5-3.75c-1.503-0.729-4.734-1.687-6.375-2c-2.093-0.4-6.371-0.547-8.5-0.625
		c-2.03-0.075-6.119,0.32-8.125,0c-1.786-0.285-5.366-1.253-6.875-2.25c-1.108-0.733-2.611-3.012-3.5-4
		c-1.139-1.266-3.251-3.994-4.625-5c-1.421-1.041-4.615-2.92-6.375-3c-1.462-0.066-4.162,1.407-5.5,2
		c-1.712,0.759-5.129,2.373-6.625,3.5c-0.865,0.652-2.225,2.369-3,3.125c-1.029,1.003-3.048,3.086-4.25,3.875
		c-1.146,0.752-3.703,1.805-5,2.25c-1.125,0.386-3.475,0.819-4.625,1.125c-1.415,0.376-4.18,1.394-5.625,1.625
		c-1.698,0.272-5.16,0.122-6.875,0.25c-1.662,0.124-5.048,0.209-6.625,0.75c-1.42,0.486-4.033,2.095-5.125,3.125
		c-1.078,1.017-2.595,3.615-3.375,4.875c-0.751,1.213-2.261,3.66-2.75,5c-0.273,0.749-0.313,2.392-0.625,3.125
		c-0.386,0.91-1.517,2.588-2.25,3.25c-0.529,0.478-1.816,1.172-2.5,1.375c-1.231,0.365-3.842,0.312-5.125,0.375
		c-1.249,0.061-3.795-0.207-5,0.125c-1.106,0.305-2.938,1.817-4,2.25c-1.348,0.549-4.185,1.292-5.625,1.5
		c-1.145,0.166-3.473,0.025-4.625,0.125c-1.07,0.093-3.188,0.462-4.25,0.625c-0.782,0.12-2.432,0.12-3.125,0.5
		c-0.99,0.542-2.211,2.568-3,3.375c-0.835,0.854-2.652,2.409-3.5,3.25c-1.099,1.089-3.077,3.49-4.25,4.5
		c-1.327,1.143-4.281,3.047-5.75,4c-1.47,0.954-4.377,2.964-6,3.625c-1.902,0.775-6.003,1.396-8,1.875
		c-1.783,0.428-5.306,1.515-7.125,1.75c-1.86,0.241-5.625,0.109-7.5,0.125c-1.719,0.014-5.156,0-6.875,0c-1.5,0-4.534-0.316-6,0
		c-1.039,0.224-2.942,1.241-3.875,1.75c-1.111,0.606-3.219,2.016-4.25,2.75c-1.486,1.06-4.413,3.258-5.75,4.5
		c-1.361,1.265-3.883,4.015-5,5.5c-1.434,1.906-3.831,6.046-5,8.125c-0.74,1.315-2.256,3.949-2.75,5.375
		c-0.583,1.685-1.202,5.225-1.375,7c-0.291,2.986-0.292,9.014,0,12c0.204,2.092,1.001,6.242,1.625,8.25
		c0.888,2.861,3.724,8.186,4.75,11c0.782,2.146,1.805,6.619,2.625,8.75c0.969,2.518,3.909,7.149,4.625,9.75
		c0.792,2.875,0.984,8.896,1.125,11.875c0.109,2.31,0.243,6.95,0,9.25c-0.298,2.828-1.338,8.477-2.375,11.125
		c-0.915,2.335-3.487,6.726-5.125,8.625c-2.132,2.473-7.272,6.661-10.125,8.25c-2.34,1.303-7.481,3.071-10.125,3.5
		c-2.838,0.461-8.627-0.003-11.5-0.125c-2.536-0.107-7.612-0.396-10.125-0.75c-2.118-0.298-6.257-1.448-8.375-1.75
		c-2.389-0.341-7.212-0.791-9.625-0.75c-2.798,0.048-8.45,0.429-11.125,1.25c-1.991,0.611-5.629,2.739-7.375,3.875
		c-1.938,1.262-5.702,4.031-7.25,5.75c-1.561,1.733-3.9,5.819-5,7.875c-1.129,2.109-2.933,6.551-3.875,8.75
		c-1.158,2.705-3.611,8.07-4.5,10.875c-0.988,3.115-2.184,9.557-2.875,12.75c-0.716,3.307-2.17,9.917-2.75,13.25
		c-0.384,2.208-0.792,6.682-1.25,8.875c-0.404,1.937-1.381,5.792-2.125,7.625c-0.589,1.451-2.036,4.266-3,5.5
		c-0.994,1.272-3.515,3.335-4.75,4.375c-1.296,1.09-3.901,3.291-5.375,4.125c-2.222,1.258-7.006,3.201-9.5,3.75
		c-2.66,0.585-8.154,0.519-10.875,0.625c-3.061,0.119-9.217-0.179-12.25,0.25c-1.921,0.272-5.749,1.164-7.5,2
		c-1.292,0.617-3.625,2.351-4.625,3.375c-1.38,1.415-3.672,4.706-4.5,6.5c-0.664,1.438-1.42,4.554-1.625,6.125
		c-0.238,1.828-0.092,5.534,0,7.375c0.125,2.509,0.714,7.504,1,10c0.222,1.941,0.805,5.806,1,7.75c0.175,1.746,0.397,5.249,0.5,7
		c0.158,2.686,0.25,8.071,0.5,10.75c0.188,2.011,0.717,6.022,1.125,8c0.478,2.316,1.75,6.882,2.5,9.125
		c0.671,2.009,2.417,5.879,3.125,7.875c0.767,2.161,2.282,6.505,2.75,8.75c0.48,2.308,0.806,7.026,1,9.375
		c0.175,2.122,0.685,6.379,0.5,8.5c-0.165,1.888-1.252,5.546-1.75,7.375c-0.558,2.051-1.786,6.123-2.5,8.125
		c-0.975,2.733-3.026,8.181-4.375,10.75c-0.556,1.059-1.913,3.039-2.625,4c-1.163,1.569-3.629,4.61-5,6
		c-1.214,1.231-3.931,3.383-5.25,4.5c-1.523,1.291-4.458,4.026-6.125,5.125c-2.252,1.484-7.125,3.863-9.625,4.875
		c-2.547,1.031-7.942,2.245-10.5,3.25c-2.615,1.027-7.652,3.542-10.125,4.875c-2.566,1.384-7.616,4.322-10,6
		c-2.18,1.533-6.387,4.845-8.25,6.75c-1.525,1.56-4.033,5.155-5.375,6.875c-2.096,2.686-6.35,8.011-8.375,10.75
		c-1.748,2.363-5.144,7.164-6.75,9.625c-1.417,2.172-4.055,6.642-5.375,8.875c-0.955,1.615-2.63,4.995-3.75,6.5
		c-1.359,1.827-4.756,4.906-6.25,6.625c-1.312,1.51-3.511,4.914-5,6.25c-1.213,1.088-4.215,2.498-5.5,3.5
		c-1.255,0.979-3.438,3.315-4.625,4.375c-1.158,1.034-3.776,2.792-4.75,4c-1.176,1.458-2.804,4.886-3.5,6.625
		c-0.47,1.176-1.202,3.621-1.375,4.875c-0.206,1.486-0.187,4.512,0,6c0.205,1.632,1.305,4.762,1.625,6.375
		c0.301,1.517,0.809,4.58,0.875,6.125c0.071,1.657-0.162,4.98-0.375,6.625c-0.221,1.708-0.925,5.087-1.375,6.75
		c-0.457,1.688-1.698,4.965-2.25,6.625c-0.478,1.435-1.357,4.33-1.875,5.75c-0.543,1.488-1.619,4.483-2.375,5.875
		c-0.728,1.341-2.514,3.835-3.5,5c-1.557,1.838-5.085,5.138-6.875,6.75c-1.204,1.084-3.736,3.111-5,4.125
		c-1.546,1.24-4.514,3.92-6.25,4.875c-1.628,0.896-5.234,1.92-7,2.5c-1.86,0.611-5.614,1.724-7.5,2.25
		c-1.927,0.538-5.813,1.499-7.75,2c-2.407,0.623-7.307,1.601-9.625,2.5c-1.747,0.678-5.045,2.493-6.625,3.5
		c-1.918,1.223-5.599,3.935-7.25,5.5c-1.159,1.099-3.361,3.473-4.125,4.875c-0.923,1.692-1.767,5.509-2.25,7.375
		c-0.449,1.732-1.433,5.211-1.5,7c-0.086,2.301,0.938,6.844,1.25,9.125c0.282,2.062,0.922,6.178,1.125,8.25
		c0.153,1.558,0.355,4.685,0.375,6.25c0.035,2.72,0.217,8.22-0.375,10.875c-0.668,2.997-3.186,8.701-4.833,11.292
		c-1.948,3.063-6.913,8.468-9.667,10.833c-3.244,2.787-10.719,7.049-14.333,9.333c-3.099,1.958-9.123,6.241-12.5,7.667
		c-2.653,1.12-8.318,2.406-11.167,2.833c-2.517,0.377-7.636,0.77-10.167,0.5c-2.402-0.256-7.047-1.721-9.333-2.5
		c-2.051-0.699-6.09-2.311-8-3.333c-1.589-0.851-4.782-2.671-6-4c-1.701-1.856-3.708-6.582-4.833-8.833
		c-0.9-1.801-2.513-5.494-3.333-7.333c-1.186-2.658-3.603-7.958-4.667-10.667c-1.016-2.588-2.645-7.914-3.667-10.5
		c-0.871-2.203-2.629-6.626-3.833-8.667c-1.225-2.074-4.06-6.037-5.833-7.667c-1.6-1.471-5.358-3.761-7.333-4.667
		c-1.701-0.78-5.299-2.048-7.167-2.167c-2.995-0.189-8.97,1.104-11.833,2c-2.899,0.907-8.241,3.894-11,5.167
		c-2.202,1.015-6.667,2.912-8.833,4c-2.767,1.39-8.164,4.431-10.833,6c-2.243,1.318-6.796,3.883-8.833,5.5
		c-1.43,1.136-3.996,3.765-5.167,5.167c-1.593,1.907-4.605,5.92-5.667,8.167c-1.24,2.624-2.383,8.373-3.167,11.167
		c-0.631,2.248-1.749,6.789-2.5,9c-0.68,2-2.26,5.925-3.167,7.833c-0.816,1.718-2.439,5.213-3.667,6.667
		c-1.167,1.382-4.26,3.364-5.667,4.5c-1.636,1.32-4.583,4.47-6.5,5.333c-2.154,0.97-6.97,1.536-9.333,1.5
		c-2.207-0.034-6.543-1.069-8.667-1.667c-1.713-0.482-5.083-1.688-6.667-2.5c-1.471-0.753-4.238-2.6-5.5-3.667
		c-1.486-1.256-4.287-4.026-5.333-5.667c-0.965-1.513-2.005-4.998-2.667-6.667c-0.924-2.331-2.788-6.986-3.667-9.333
		c-1.132-3.024-3.275-9.116-4.333-12.167c-1.024-2.95-2.912-8.906-4-11.833c-1.003-2.698-3.176-8.031-4.333-10.667
		c-1.372-3.123-4.261-9.306-5.833-12.333c-1.479-2.849-4.737-8.383-6.333-11.167c-1.198-2.089-3.498-6.329-4.833-8.333
		c-2.062-3.092-6.612-8.985-9-11.833c-1.895-2.26-5.701-6.82-8-8.667c-1.805-1.45-5.921-3.648-8-4.667
		c-2.501-1.226-7.624-3.521-10.333-4.167c-2.888-0.688-8.888-1.378-11.833-1c-2.85,0.366-8.2,2.685-10.833,3.833
		c-2.802,1.221-8.235,4.057-10.833,5.667c-2.713,1.682-7.864,5.477-10.333,7.5c-1.71,1.402-4.896,4.478-6.5,6
		c-1.774,1.684-5.285,5.09-7,6.833c-2.212,2.248-6.438,6.936-8.667,9.167c-2.312,2.314-7.185,6.688-9.5,9
		c-2.44,2.437-6.852,7.791-9.5,10c-2.103,1.754-6.774,4.667-9.167,6c-3.094,1.724-9.532,4.718-12.833,6
		c-3.378,1.312-10.451,3.031-13.833,4.333c-2.697,1.039-8.013,3.361-10.5,4.833c-2.41,1.426-6.709,5.056-9,6.667
		c-2.212,1.555-6.837,4.376-9,6c-1.656,1.243-4.727,4.028-6.333,5.333c-2.465,2.002-7.45,5.941-10,7.833
		c-1.513,1.123-4.392,3.7-6.167,4.333c-2.164,0.772-6.87,0.668-9.167,0.667c-2.256-0.001-6.78-0.265-9-0.667
		c-1.751-0.318-5.176-1.35-6.833-2c-1.821-0.715-5.333-2.476-7-3.5c-1.37-0.842-3.881-2.867-5.167-3.833
		c-1.046-0.786-3.056-2.476-4.167-3.167c-1.503-0.936-4.671-2.558-6.333-3.167c-1.49-0.545-4.581-1.447-6.167-1.5
		c-1.944-0.064-5.793,0.81-7.667,1.333c-1.982,0.554-5.748,2.257-7.667,3c-1.956,0.757-5.784,2.555-7.833,3
		c-1.958,0.426-5.996,0.475-8,0.5c-2.251,0.028-6.754-0.172-9-0.333c-2.341-0.168-7.002-0.727-9.333-1
		c-1.961-0.23-5.895-0.625-7.833-1c-1.945-0.376-5.753-1.489-7.667-2c-2.295-0.612-6.849-1.98-9.167-2.5
		c-1.404-0.314-4.233-0.891-5.667-1c-1.787-0.136-5.427,0.598-7.167,0.167c-1.575-0.391-4.189-2.494-5.667-3.167
		c-1.571-0.715-4.836-1.871-6.5-2.333c-1.637-0.455-4.968-1.281-6.667-1.333c-1.85-0.057-5.507,0.703-7.333,1
		c-2.428,0.396-9.667,1.833-9.667,1.833l-12.167,2l-8.333,0.333l-11.5,0.167l-9.167-0.833h-7.667c0,0-5.532,2.561-7.333,3.5
		c-1.572,0.82-4.605,2.661-6.167,3.5c-2.429,1.306-7.404,3.695-9.833,5c-1.266,0.68-3.695,2.232-5,2.833
		c-1.892,0.871-5.835,2.246-7.833,2.833c-1.968,0.58-6.026,1.273-8,1.833c-2.117,0.601-6.25,2.125-8.333,2.833
		c-1.958,0.667-5.9,1.93-7.833,2.667c-2.494,0.951-7.363,3.154-9.833,4.167c-2.198,0.901-6.596,2.703-8.833,3.5
		c-2.594,0.924-7.765,3.009-10.5,3.333c-1.742,0.207-5.281-0.15-7-0.5c-1.511-0.308-4.439-1.342-5.833-2
		c-1.726-0.814-4.877-2.996-6.5-4c-1.544-0.955-4.606-2.906-6.167-3.833c-1.524-0.906-4.634-2.609-6.167-3.5
		c-1.971-1.146-5.757-3.727-7.833-4.667c-1.356-0.614-4.364-1.112-5.667-1.833c-1.19-0.659-3.091-2.667-4.167-3.5
		c-1.417-1.098-4.44-3.039-5.833-4.167c-1.536-1.243-4.497-3.878-5.833-5.333c-1.387-1.51-3.744-4.879-5-6.5
		c-1.037-1.337-3.222-3.93-4.167-5.333c-1.074-1.595-2.643-5.157-3.833-6.667c-0.639-0.81-2.141-2.263-3-2.833
		c-1.29-0.856-4.169-2.107-5.667-2.5c-1.661-0.435-5.117-0.666-6.833-0.667c-2.176-0.001-6.51,0.54-8.667,0.833
		c-2.138,0.291-6.374,1.132-8.5,1.5c-2.457,0.425-7.358,1.369-9.833,1.667c-2.903,0.349-8.743,0.818-11.667,0.833
		c-2.046,0.01-6.137-0.25-8.167-0.5c-3.155-0.39-9.411-1.584-12.5-2.333c-2.537-0.615-7.495-2.266-10-3
		c-2.038-0.597-6.109-1.808-8.167-2.333c-2.938-0.75-8.829-2.255-11.833-2.667c-4.877-0.668-14.746-0.853-19.667-1
		c-4.54-0.136-13.638-0.51-18.167-0.167c-2.862,0.217-8.5,1.378-11.333,1.833c-3.666,0.588-10.985,1.852-14.667,2.333
		c-3.239,0.424-9.769,0.849-13,1.333c-3.823,0.573-11.376,2.242-15.167,3c-3.501,0.701-10.519,2.04-14,2.833
		c-2.808,0.64-8.428,1.942-11.167,2.833c-2.347,0.764-6.918,2.649-9.167,3.667c-2.937,1.329-8.741,4.167-11.5,5.833
		c-2.712,1.638-7.821,5.403-10.333,7.333c-2.792,2.146-8.595,6.282-10.833,9c-2.596,3.152-6.202,10.589-7.833,14.333
		c-1.21,2.778-3.006,8.584-3.833,11.5c-0.993,3.5-2.54,10.616-3.333,14.167c-0.79,3.533-1.623,10.819-3,14.167
		c-1.376,3.345-5.406,9.485-7.833,12.167c-2.607,2.88-8.687,7.939-12.167,9.667c-3.313,1.645-10.654,3.292-14.333,3.667
		c-2.57,0.261-7.806-0.374-10.333,0.167c-2.483,0.53-7.041,2.909-9.333,4c-2.592,1.233-7.576,4.098-10.167,5.333
		c-2.089,0.997-6.289,2.982-8.5,3.667c-1.866,0.578-5.714,1.468-7.667,1.5c-2.87,0.047-8.486-1.474-11.333-1.833
		c-3.196-0.403-9.659-0.62-12.833-1.167c-1.822-0.314-5.34-1.542-7.167-1.833c-1.855-0.296-5.625-0.63-7.5-0.5
		c-2.038,0.142-6.118,0.872-8,1.667c-1.714,0.724-4.63,3.117-6.167,4.167c-2.3,1.572-7.14,4.422-9.167,6.333
		c-1.231,1.161-2.808,4.325-4.167,5.333c-1.112,0.826-3.794,1.812-5.167,2c-1.701,0.233-5.175-0.222-6.833-0.667
		c-1.459-0.391-4.08-1.985-5.5-2.5c-1.91-0.693-5.921-1.479-7.833-2.167c-1.632-0.587-4.807-2.009-6.333-2.833
		c-1.698-0.917-5.004-2.947-6.5-4.167c-1.758-1.434-4.74-4.885-6.333-6.5c-1.449-1.468-4.467-4.288-5.833-5.833
		c-1.435-1.623-3.907-5.202-5.333-6.833c-1.687-1.93-5.233-5.651-7.167-7.333c-1.483-1.291-4.631-3.681-6.333-4.667
		c-1.97-1.14-6.191-2.899-8.333-3.667c-2.322-0.832-7.068-2.255-9.5-2.667c-2.017-0.341-6.141-0.215-8.167-0.5
		c-2.663-0.375-7.994-1.358-10.5-2.333c-2.018-0.786-5.811-2.978-7.5-4.333c-1.587-1.274-4.056-4.567-5.5-6
		c-1.634-1.621-5.319-4.434-6.833-6.167c-1.263-1.444-3.022-4.933-4.333-6.333c-1.014-1.083-3.431-2.846-4.667-3.667
		c-1.787-1.187-5.641-3.098-7.5-4.167c-1.555-0.894-4.751-2.566-6.167-3.667c-1.628-1.266-4.44-4.312-5.833-5.833
		c-1.358-1.483-4.109-4.457-5.167-6.167c-1.099-1.777-2.139-5.952-3.333-7.667c-0.792-1.137-2.826-3.098-4-3.833
		c-1.318-0.826-4.398-1.566-5.833-2.167c-2.545-1.064-7.487-3.529-10-4.667c-2.363-1.069-7.269-2.845-9.5-4.167
		c-2.172-1.287-6.156-4.441-8-6.167c-2.069-1.937-5.621-6.378-7.5-8.5c-1.663-1.878-4.63-6.035-6.667-7.5
		c-2.5-1.799-8.294-4.331-11.333-4.833c-2.185-0.361-6.734-0.04-8.833,0.667c-1.599,0.539-4.404,2.547-5.667,3.667
		c-1.705,1.511-4.237,5.375-5.833,7c-1.698,1.728-5.375,4.906-7.333,6.333c-1.617,1.179-4.942,3.514-6.833,4.167
		c-2.022,0.698-6.36,1.004-8.5,1c-1.721-0.004-5.261-0.133-6.833-0.833c-1.564-0.697-4.083-3.173-5.167-4.5
		c-1.604-1.965-3.639-6.691-5-8.833c-0.85-1.336-2.645-3.957-3.667-5.167c-1.064-1.26-3.224-3.868-4.667-4.667
		c-1.795-0.993-5.961-1.603-8-1.833c-2.194-0.248-6.627-0.102-8.833,0c-2.257,0.104-6.77,0.472-9,0.833
		c-2.534,0.411-7.661,1.276-10,2.333c-1.633,0.738-4.559,2.907-5.833,4.167c-1.505,1.488-3.371,5.482-5,6.833
		c-1.635,1.356-5.785,2.681-7.667,3.667c-1.785,0.936-5.082,3.381-7,4c-1.515,0.489-4.774,0.989-6.333,0.667
		c-1.498-0.31-4.17-2.006-5.333-3c-1.736-1.483-4.259-5.368-5.667-7.167c-1.72-2.199-4.971-6.753-6.833-8.833
		c-1.199-1.339-3.901-3.723-5.167-5c-1.66-1.674-4.553-5.504-6.5-6.833c-1.821-1.243-6.075-2.636-8.167-3.333
		c-2.492-0.832-7.591-2.144-10.167-2.667c-2.847-0.578-8.595-1.644-11.5-1.667c-2.605-0.02-7.734,1.166-10.333,1.333
		c-2.246,0.145-6.755,0.156-9,0c-3.315-0.23-9.966-0.942-13.167-1.833c-3.057-0.852-8.882-3.478-11.667-5
		c-1.369-0.748-4.124-2.34-5.167-3.5c-1.482-1.649-3.278-5.801-4.167-7.833c-0.76-1.738-2.038-5.327-2.5-7.167
		c-0.586-2.332-1.458-7.096-1.5-9.5c-0.036-2.057,0.548-6.16,1-8.167c0.522-2.313,2.206-6.766,3-9
		c0.552-1.553,1.758-4.622,2.333-6.167c0.634-1.705,2.299-5.025,2.5-6.833c0.213-1.921-0.65-5.766-1-7.667
		c-0.357-1.938-1.03-5.867-1.833-7.667c-0.866-1.942-3.412-5.418-4.833-7c-1.323-1.473-4.302-4.148-6-5.167
		c-1.877-1.126-6.095-2.458-8.167-3.167c-2.633-0.899-8.048-2.229-10.667-3.167c-2.725-0.976-8.15-3.071-10.667-4.5
		c-2.203-1.251-6.406-4.178-8.167-6c-1.438-1.488-3.455-5.157-4.667-6.833c-1.045-1.445-3.556-4.062-4.333-5.667
		c-1.105-2.283-1.735-7.415-2.5-9.833c-0.848-2.678-2.87-7.928-4-10.5c-0.937-2.133-2.718-6.509-4.167-8.333
		c-1.38-1.738-4.936-4.516-6.833-5.667c-1.469-0.891-4.7-2.136-6.333-2.667c-1.913-0.622-6.052-0.899-7.833-1.833
		c-1.593-0.836-4.266-3.384-5.333-4.833c-1.525-2.072-3.49-6.903-4.333-9.333c-0.885-2.549-1.965-7.855-2.5-10.5
		c-0.452-2.236-0.529-6.936-1.5-9c-1.056-2.245-4.809-5.684-6.5-7.5c-1.927-2.07-6.093-5.911-8-8c-1.097-1.202-2.891-3.99-4.167-5
		c-1.68-1.331-5.634-3.157-7.667-3.833c-2.451-0.815-7.658-1.222-10.167-1.833c-2.33-0.568-6.874-2.128-9.167-2.833
		c-2.041-0.628-6.18-1.718-8.167-2.5c-1.595-0.628-4.629-2.242-6.167-3c-1.504-0.742-4.657-1.996-6-3
		c-1.322-0.989-3.293-3.706-4.5-4.833c-1.45-1.354-4.728-3.633-6.167-5c-1.219-1.158-3.659-3.543-4.5-5
		c-0.876-1.518-1.781-4.958-2.167-6.667c-0.426-1.885-0.435-5.818-1-7.667c-0.272-0.891-0.824-2.937-1.667-3.333
		c-0.503-0.237-1.67,0.25-2.167,0.5c-0.978,0.491-2.804,1.876-3.333,2.833c-0.836,1.51-0.759,5.124-1,6.833
		c-0.346,2.457-0.865,7.396-1.333,9.833c-0.356,1.856-1.024,5.625-1.833,7.333c-0.867,1.831-3.564,4.922-4.833,6.5
		c-1.314,1.634-4.174,4.708-5.5,6.333c-1.56,1.912-4.749,5.707-6,7.833c-1.06,1.801-2.487,5.756-3.333,7.667
		c-0.574,1.295-1.653,3.923-2.333,5.167c-0.954,1.744-3.052,5.147-4.333,6.667c-1.426,1.69-4.86,4.516-6.5,6
		c-2.189,1.98-6.604,5.898-8.833,7.833c-1.652,1.434-4.997,4.253-6.667,5.667c-1.726,1.461-5.232,4.324-6.917,5.833
		c-2.228,1.997-6.427,6.267-8.667,8.25c-3.091,2.738-9.596,7.835-12.75,10.5c-2.843,2.402-8.745,6.998-11.25,9.75
		c-2.171,2.386-5.776,7.773-7.5,10.5c-1.031,1.632-2.96,4.988-3.75,6.75c-1.164,2.597-3.104,7.978-3.75,10.75
		c-0.7,3.005-1.312,9.17-1.5,12.25c-0.16,2.62,0.17,7.88,0,10.5c-0.188,2.893-1.015,8.642-1.5,11.5
		c-0.459,2.707-1.853,8.033-2.25,10.75c-0.645,4.406-0.482,13.415-1.5,17.75c-0.737,3.141-3.454,9.045-4.75,12
		c-0.809,1.843-2.743,5.385-3.5,7.25c-0.521,1.282-1.528,3.884-1.75,5.25c-0.18,1.11,0,3.375,0,4.5s-0.195,3.392,0,4.5
		c0.381,2.161,2.118,6.24,3,8.25c0.764,1.741,2.556,5.1,3.5,6.75c1.576,2.755,5.179,7.993,6.75,10.75
		c1.218,2.137,3.526,6.491,4.5,8.75c0.893,2.069,2.045,6.459,3,8.5c0.985,2.107,3.391,6.112,4.75,8
		c1.062,1.474,3.394,4.291,4.75,5.5c1.242,1.108,4.051,2.932,5.5,3.75c1.437,0.812,4.582,1.906,6,2.75c2.148,1.278,6.158,4.309,8,6
		c1.728,1.586,4.506,5.43,6.25,7c1.431,1.288,4.798,3.235,6.25,4.5c1.366,1.191,3.559,4.15,5,5.25c1.467,1.12,4.996,2.431,6.5,3.5
		c0.829,0.589,2.228,2.088,3,2.75"/>
	<path fill="none" stroke="#E94E1B" stroke-width="18" stroke-miterlimit="10" stroke-opacity="0.5" d="M4967.75,2142.531
		c0-3.243-3.753-9.018-5.5-11.75c-1.673-2.616-6.042-7.09-8-9.5c-1.853-2.28-5.477-6.907-7.25-9.25c-1.215-1.604-3.408-5-4.75-6.5
		c-1.356-1.517-5.181-3.638-6-5.5c-0.378-0.858-0.238-2.844,0-3.75c0.42-1.597,3.01-4.116,3.25-5.75
		c0.289-1.965-1.054-5.89-1.75-7.75c-0.646-1.729-2.088-5.312-3.5-6.5c-1.664-1.399-6.15-2.187-8.25-2.75
		c-2.403-0.645-7.414-1.143-9.75-2c-2.074-0.762-6.001-2.899-7.75-4.25c-1.225-0.946-3.373-3.226-4.25-4.5
		c-1.062-1.543-2.495-5.036-3.25-6.75c-0.542-1.232-1.216-3.905-2-5c-0.671-0.938-2.54-2.362-3.5-3c-1.63-1.082-5.165-2.821-7-3.5
		c-1.691-0.626-5.281-1.201-7-1.75c-1.471-0.47-4.233-1.964-5.75-2.25c-1.658-0.312-5.062,0-6.75,0c-1.562,0-4.693,0.133-6.25,0
		c-2.211-0.188-6.539-1.312-8.75-1.5c-1.37-0.116-4.156,0.291-5.5,0c-1.477-0.319-4.271-1.623-5.5-2.5
		c-0.863-0.616-2.213-2.289-2.917-3.083c-0.628-0.709-1.802-2.195-2.416-2.917c-0.574-0.675-1.561-2.234-2.334-2.667
		c-0.978-0.547-3.352-0.399-4.416-0.75c-1.708-0.563-4.883-2.311-6.417-3.25c-1.869-1.145-5.48-3.671-7.083-5.166
		c-1.396-1.301-3.585-4.469-4.917-5.834c-1.381-1.416-4.447-3.927-5.917-5.25c-1.216-1.096-3.678-3.257-4.833-4.416
		c-1.968-1.974-5.52-6.288-7.5-8.25c-0.912-0.903-3.023-2.421-3.833-3.417c-0.789-0.971-2.066-3.161-2.5-4.334
		c-0.551-1.491-1.221-4.661-1.167-6.25c0.045-1.332,0.733-3.976,1.333-5.166c0.76-1.508,3.245-3.893,4.25-5.25
		c1.018-1.374,2.851-4.268,3.834-5.667c0.549-0.78,2.021-2.157,2.25-3.083c0.309-1.248-0.605-3.807-0.75-5.084
		c-0.089-0.788-0.346-2.378-0.25-3.166c0.111-0.915,0.923-2.609,1.166-3.499c0.208-0.761,0.674-2.296,0.667-3.084
		c-0.01-1.092-0.758-3.186-1-4.25c-0.303-1.331-0.821-4.013-1.167-5.333c-0.271-1.032-1.077-3.03-1.25-4.083
		c-0.115-0.699-0.123-2.127-0.083-2.834c0.058-1.029,0.52-3.054,0.583-4.083c0.065-1.061,0.049-3.195-0.083-4.25
		c-0.079-0.637-0.448-1.872-0.583-2.5c-0.204-0.954-0.712-2.857-0.75-3.833c-0.043-1.09,0.412-3.247,0.5-4.334
		c0.072-0.894,0.187-2.687,0.166-3.583c-0.027-1.213-0.416-4.5-0.416-4.833s0.042-3.988,0.416-5.25
		c0.188-0.634,0.801-1.848,1.25-2.333c0.42-0.454,1.562-1.004,2.084-1.334c0.655-0.414,2.416-1.5,2.666-1.583
		s1.961-1.152,2.584-1.583c0.748-0.517,2.128-1.715,2.916-2.167c0.648-0.371,2.072-0.854,2.75-1.167c0.635-0.293,1.82-1.09,2.5-1.25
		c0.852-0.201,2.625,0,3.5,0c0.854,0,2.589,0.212,3.417,0c0.713-0.183,1.928-1.081,2.583-1.416c0.523-0.268,1.751-0.834,2.084-1.084
		s0.037-1.206-0.084-1.583c-0.081-0.251-0.261-0.747-0.332-1.001c-0.301-1.07-0.796-3.24-1-4.333
		c-0.216-1.159-0.681-3.488-0.667-4.667c0.018-1.521,1.336-4.517,1-6c-0.225-0.991-1.89-2.418-2.333-3.333
		c-0.379-0.782-1.113-2.472-1-3.334c0.108-0.825,1.239-2.175,1.749-2.833c0.663-0.856,2.214-2.38,3-3.125
		c0.868-0.823,3.001-2.104,3.625-3.125c0.621-1.015,0.91-3.454,1.125-4.625c0.272-1.487,0.578-4.498,0.75-6
		c0.207-1.811,0.779-5.428,0.75-7.25c-0.022-1.388-0.507-4.134-0.75-5.5c-0.331-1.858-1.135-5.552-1.625-7.375
		c-0.188-0.696-0.784-2.034-0.875-2.75c-0.142-1.118,0.465-3.394,0.25-4.5c-0.112-0.576-0.673-1.638-1-2.125
		c-0.851-1.268-3.147-3.328-4.125-4.5c-0.729-0.873-2.246-2.605-2.75-3.625c-0.417-0.843-0.966-2.686-1-3.625
		c-0.052-1.434,0.911-4.207,1.125-5.625c0.183-1.211,0.529-3.65,0.5-4.875c-0.025-1.043-0.322-3.127-0.625-4.125
		c-0.32-1.057-1.471-2.973-1.875-4c-0.373-0.947-0.898-2.92-1.25-3.875c-0.338-0.921-1.183-2.697-1.5-3.625
		c-0.346-1.012-0.7-3.145-1.125-4.125c-0.569-1.313-1.862-4.007-3-4.875c-1.062-0.81-3.818-1.225-5.125-1.5
		c-1.172-0.247-3.637-0.185-4.75-0.625c-1.396-0.552-3.493-2.916-4.875-3.5c-1.638-0.691-5.223-1.208-7-1.25
		c-1.449-0.034-4.307,0.612-5.75,0.75c-1.559,0.148-4.69,0.506-6.25,0.375c-1.246-0.104-3.679-0.76-4.875-1.125
		c-1.504-0.459-4.4-1.703-5.875-2.25c-1.214-0.45-3.802-1.025-4.875-1.75c-1.284-0.866-3.069-3.491-4.125-4.625
		c-1.1-1.181-3.479-3.376-4.5-4.625c-0.598-0.731-1.875-2.75-2.125-3.125s-3.008-5.197-3.875-7c-0.983-2.045-2.626-6.281-3.5-8.375
		c-0.782-1.875-2.25-5.667-3.125-7.5c-0.566-1.187-1.814-3.504-2.5-4.625c-0.95-1.553-3.084-4.507-4.125-6
		c-0.897-1.287-2.528-4.003-3.625-5.125c-0.843-0.862-2.729-2.496-3.875-2.875c-1.691-0.559-5.352,0.169-7.125,0
		c-2.312-0.22-6.826-1.417-9.125-1.75c-2.206-0.319-6.727-0.281-8.875-0.875c-1.199-0.331-3.333-1.694-4.5-2.125
		c-1.337-0.494-4.163-1.006-5.5-1.5c-1.232-0.456-3.769-1.376-4.75-2.25c-1.321-1.176-2.72-4.562-3.75-6
		c-0.893-1.246-2.954-3.525-3.875-4.75c-0.891-1.185-2.392-3.766-3.375-4.875c-1.219-1.375-4.045-3.753-5.5-4.875
		c-1.071-0.825-3.396-2.219-4.5-3c-1.53-1.083-4.504-3.369-6-4.5c-1.316-0.995-3.932-3.008-5.25-4
		c-1.089-0.819-3.191-2.575-4.375-3.25c-0.913-0.521-2.832-1.502-3.875-1.625c-1.352-0.16-4.1,0.397-5.375,0.875
		c-0.999,0.374-2.614,1.91-3.625,2.25c-0.952,0.32-2.998,0.305-4,0.375c-1.311,0.093-4.037,0.756-5.25,0.25
		c-1.164-0.485-2.765-2.646-3.375-3.75c-0.551-0.995-0.629-3.422-1.25-4.375c-0.399-0.613-1.593-1.553-2.25-1.875
		c-0.92-0.45-3.071-0.444-4-0.875c-0.606-0.281-1.556-1.274-2.125-1.625c-0.916-0.564-2.826-1.635-3.875-1.875
		c-0.822-0.188-2.563-0.232-3.375,0c-1.134,0.325-2.903,2.067-4,2.5c-1.362,0.538-4.307,0.876-5.75,1.125
		c-0.623,0.107-1.879,0.489-2.5,0.375c-1.376-0.254-3.646-2.081-4.875-2.75c-1.302-0.708-3.908-2.121-5.25-2.75
		c-1.104-0.518-3.395-1.361-4.5-1.875c-1.115-0.519-3.284-1.683-4.375-2.25c-1.19-0.619-3.572-1.856-4.75-2.5
		c-0.945-0.517-2.84-1.549-3.75-2.125c-0.872-0.552-2.562-1.741-3.375-2.375c-1.398-1.09-4.034-3.465-5.375-4.625
		c-0.721-0.623-2.139-1.896-2.875-2.5c-0.947-0.777-2.945-2.202-3.875-3c-0.654-0.562-1.846-1.814-2.5-2.375
		c-1.049-0.898-3.318-2.485-4.375-3.375c-0.778-0.655-2.416-1.917-3-2.75c-0.7-0.998-1.308-3.422-1.875-4.5
		c-0.59-1.12-2.084-3.174-2.75-4.25c-0.84-1.358-2.43-4.13-3.25-5.5c-0.526-0.878-1.642-2.598-2.125-3.5
		c-0.542-1.012-1.875-4-2.25-4s-3.566-0.54-4.75-0.75c-1.188-0.211-3.548-0.766-4.75-0.875c-0.778-0.071-2.35-0.098-3.125,0
		c-1.12,0.142-3.338,0.679-4.375,1.125c-0.958,0.412-2.58,1.791-3.531,2.219c-1.069,0.48-3.343,1.13-4.5,1.312
		c-1.058,0.167-3.211,0.112-4.281,0.125c-1.453,0.018-4.368,0.126-5.812-0.031c-0.89-0.097-2.632-0.535-3.5-0.75
		c-1.229-0.305-3.727-0.841-4.875-1.375c-1.062-0.493-2.984-1.866-3.875-2.625c-1.145-0.975-3.319-3.105-4.125-4.375
		c-0.594-0.936-1.418-3.036-1.625-4.125c-0.373-1.965,0.134-6.005,0-8c-0.141-2.107-0.859-6.279-1.125-8.375
		c-0.266-2.092-0.655-6.295-1-8.375c-0.418-2.521-1.195-7.619-2.125-10c-0.713-1.827-2.865-5.15-4-6.75
		c-1.04-1.465-3.286-4.302-4.625-5.5c-1.512-1.353-5.059-3.381-6.75-4.5c-2.089-1.382-6.388-3.976-8.375-5.5
		c-1.826-1.401-5.021-4.762-6.875-6.125c-1.468-1.079-4.786-2.665-6.25-3.75c-2.133-1.581-5.96-5.285-7.875-7.125
		c-1.609-1.546-4.836-4.648-6.25-6.375c-1.269-1.549-3.487-4.897-4.5-6.625c-0.777-1.326-2.29-4.033-2.75-5.5
		c-0.586-1.868-0.984-5.797-1.125-7.75c-0.144-1.995,0-6,0-8c0-2.156-0.193-6.478,0-8.625c0.188-2.088,1.401-6.156,1.5-8.25
		c0.085-1.817-0.242-5.472-0.625-7.25c-0.377-1.749-1.579-5.148-2.375-6.75c-1.034-2.08-3.576-6.02-5.125-7.75
		c-1.303-1.455-4.339-3.975-6-5c-1.596-0.985-5.159-2.244-6.875-3c-1.69-0.744-4.974-2.494-6.75-3
		c-1.547-0.44-4.771-0.766-6.375-0.875c-1.466-0.1-4.43,0.259-5.875,0c-1.771-0.317-5.072-1.851-6.75-2.5
		c-1.478-0.572-4.475-1.635-5.875-2.375c-0.797-0.421-2.235-1.523-3-2c-0.951-0.592-3.077-1.464-3.875-2.25
		c-0.778-0.768-1.679-2.817-2.25-3.75c-0.462-0.754-1.516-2.191-1.875-3c-0.37-0.831-0.613-2.677-1-3.5
		c-0.306-0.651-1.188-1.804-1.625-2.375c-0.526-0.686-1.67-1.984-2.25-2.625c-0.685-0.757-2.625-2.75-2.625-3.125
		s-1.944-3.951-2.25-5.375c-0.321-1.497,0-4.594,0-6.125c0-1.625,0.316-4.906,0-6.5c-0.303-1.525-1.285-4.641-2.375-5.75
		c-0.549-0.56-2.107-1.091-2.875-1.25c-1.163-0.242-3.592,0.261-4.75,0c-1.282-0.288-3.609-1.598-4.75-2.25
		c-0.918-0.524-2.489-2.064-3.5-2.375c-1.105-0.34-3.476-0.126-4.625,0c-1.432,0.157-4.231,0.887-5.625,1.25
		c-1.263,0.329-3.738,1.167-5,1.5c-1.085,0.286-3.282,0.747-4.375,1c-0.938,0.217-2.796,1.006-3.75,0.875
		c-0.707-0.098-1.947-0.924-2.5-1.375c-0.636-0.519-1.595-1.874-2.125-2.5c-0.846-0.998-2.408-3.119-3.375-4
		c-0.647-0.59-2.04-1.738-2.875-2c-0.745-0.233-2.352-0.113-3.125,0c-0.969,0.143-2.795,0.912-3.75,1.125
		c-0.833,0.186-2.522,0.486-3.375,0.5"/>
	<path fill="none" stroke="#E94E1B" stroke-width="18" stroke-miterlimit="10" stroke-opacity="0.5" d="M426.109,741.94
		c0,0-2.722,6.262-3.942,8.174c-1.131,1.772-3.712,5.161-5.333,6.5c-1.279,1.057-4.325,2.476-5.833,3.167
		c-1.823,0.834-5.655,2.051-7.5,2.833c-2.248,0.953-6.584,3.216-8.833,4.167c-1.968,0.831-5.986,2.287-8,3
		c-2.236,0.792-6.727,2.323-9,3c-1.569,0.467-4.709,1.457-6.333,1.667c-2.19,0.283-6.626,0.072-8.833,0
		c-1.919-0.062-5.75-0.369-7.667-0.5c-2.334-0.159-7.014-0.366-9.333-0.667c-2.229-0.289-6.601-1.406-8.833-1.667
		c-1.823-0.212-5.498-0.292-7.333-0.333c-1.958-0.044-5.914-0.388-7.833,0c-2.836,0.574-7.99,3.4-10.667,4.5
		c-1.453,0.597-4.35,1.817-5.833,2.333c-2.34,0.815-7.1,2.216-9.5,2.833c-4.955,1.273-15.041,3.077-20,4.333
		c-2.313,0.586-6.904,1.906-9.167,2.667c-1.988,0.668-6.022,1.942-7.833,3c-1.354,0.791-3.673,2.944-4.833,4
		c-1.438,1.309-4.159,4.092-5.5,5.5c-1.241,1.303-3.611,4.013-4.833,5.333c-1.401,1.515-4.164,4.587-5.667,6
		c-0.949,0.892-3.039,2.456-4,3.333c-0.957,0.874-2.737,2.763-3.667,3.667c-1.479,1.438-4.584,4.166-6,5.667
		c-0.934,0.989-2.267,3.592-3.5,4.167c-0.623,0.291-2.095,0.21-2.75,0c-1.976-0.635-5.027-3.676-6.75-4.833
		c-2.145-1.44-6.506-4.219-8.75-5.5c-1.894-1.081-5.684-3.303-7.75-4c-2.044-0.69-6.351-1.312-8.5-1.5c-2.926-0.256-8.812,0-11.75,0
		c-2.188,0-8.75,0-8.75,0"/>
</g>
<g id="Entfernungen">
	<circle fill="#1D1D1B" cx="2848.014" cy="143.449" r="10"/>
	<circle fill="#1D1D1B" cx="2590.013" cy="129.449" r="10"/>
	<circle fill="#1D1D1B" cx="2451.347" cy="312.782" r="10"/>
	<circle fill="#1D1D1B" cx="2308.013" cy="559.449" r="10"/>
	<circle fill="#1D1D1B" cx="2165.347" cy="789.449" r="10"/>
	<circle fill="#1D1D1B" cx="1931.347" cy="809.449" r="10"/>
	<circle fill="#1D1D1B" cx="1722.014" cy="779.449" r="10"/>
	<circle fill="#1D1D1B" cx="1423.18" cy="804.949" r="10"/>
	<circle fill="#1D1D1B" cx="1138.18" cy="759.449" r="10"/>
	<circle fill="#1D1D1B" cx="881.544" cy="892.78" r="10"/>
	<circle fill="#1D1D1B" cx="638.877" cy="756.449" r="10"/>
	<circle fill="#1D1D1B" cx="384.543" cy="770.782" r="10"/>
	<circle fill="#1D1D1B" cx="391.543" cy="701.449" r="10"/>
	<circle fill="#1D1D1B" cx="212.876" cy="492.782" r="10"/>
	<circle fill="#1D1D1B" cx="85.876" cy="736.115" r="10"/>
	<circle fill="#1D1D1B" cx="150.876" cy="809.449" r="10"/>
	<circle fill="#1D1D1B" cx="170.876" cy="812.449" r="10"/>
	<text transform="matrix(1 0 0 1 2816.3779 179.4487)" font-family="'MyriadPro-Regular'" font-size="24">40 km</text>
	<circle fill="#1D1D1B" cx="3390.347" cy="207.782" r="10"/>
	<circle fill="#1D1D1B" cx="3117.681" cy="167.449" r="10"/>
	<circle fill="#1D1D1B" cx="3679.639" cy="322.073" r="10"/>
	<circle fill="#1D1D1B" cx="3795.833" cy="500.28" r="10"/>
	<circle fill="#1D1D1B" cx="3813.333" cy="738.28" r="10"/>
	<circle fill="#1D1D1B" cx="3952.333" cy="892.78" r="10"/>
	<text transform="matrix(1 0 0 1 3402.7109 233.7817)" font-family="'MyriadPro-Regular'" font-size="24">30 km</text>
	<text transform="matrix(1 0 0 1 3119.0449 146.7827)" font-family="'MyriadPro-Regular'" font-size="24">35 km</text>
	<text transform="matrix(1 0 0 1 2533.0449 110.7827)" font-family="'MyriadPro-Regular'" font-size="24">45 km</text>
	<text transform="matrix(1 0 0 1 2467.3789 321.1167)" font-family="'MyriadPro-Regular'" font-size="24">50 km</text>
	<text transform="matrix(1 0 0 1 2327.3789 573.4487)" font-family="'MyriadPro-Regular'" font-size="24">55 km</text>
	<text transform="matrix(1 0 0 1 2181.7119 814.1152)" font-family="'MyriadPro-Regular'" font-size="24">60 km</text>
	<text transform="matrix(1 0 0 1 1853.7119 836.7822)" font-family="'MyriadPro-Regular'" font-size="24">65 km</text>
	<text transform="matrix(1 0 0 1 1732.0137 814.1152)" font-family="'MyriadPro-Regular'" font-size="24">70 km</text>
	<text transform="matrix(1 0 0 1 1398.0137 845.1152)" font-family="'MyriadPro-Regular'" font-size="24">75 km</text>
	<text transform="matrix(1 0 0 1 1115.0137 799.4487)" font-family="'MyriadPro-Regular'" font-size="24">80 km</text>
	<text transform="matrix(1 0 0 1 881.543 930.7822)" font-family="'MyriadPro-Regular'" font-size="24">85 km</text>
	<text transform="matrix(1 0 0 1 615.543 736.1152)" font-family="'MyriadPro-Regular'" font-size="24">90 km</text>
	<text transform="matrix(1 0 0 1 321.877 755.1152)" font-family="'MyriadPro-Regular'" font-size="24">95 km</text>
	<text transform="matrix(1 0 0 1 406.877 709.1152)" font-family="'MyriadPro-Regular'" font-size="24">95 km</text>
	<text transform="matrix(1 0 0 1 229.543 491.1147)" font-family="'MyriadPro-Regular'" font-size="24">100 km</text>
	<text transform="matrix(1 0 0 1 7 767.4482)" font-family="'MyriadPro-Regular'" font-size="24">105 km</text>
	<text transform="matrix(1 0 0 1 57.875 837.4487)" font-family="'MyriadPro-Regular'" font-size="24">106,8 km</text>
	<text transform="matrix(1 0 0 1 170.876 793.4487)" font-family="'MyriadPro-Regular'" font-size="24">99 km</text>
	<text transform="matrix(1 0 0 1 3816.0439 509.2798)" font-family="'MyriadPro-Regular'" font-size="24">20 km</text>
	<text transform="matrix(1 0 0 1 3831.0439 744.2798)" font-family="'MyriadPro-Regular'" font-size="24">15 km</text>
	<text transform="matrix(1 0 0 1 3967.0439 882.7798)" font-family="'MyriadPro-Regular'" font-size="24">10 km</text>
	<circle fill="#1D1D1B" cx="4110.916" cy="1146.281" r="10"/>
	<circle fill="#1D1D1B" cx="4279.416" cy="1360.281" r="10"/>
	<circle fill="#1D1D1B" cx="4463.416" cy="1532.781" r="10"/>
	<circle fill="#1D1D1B" cx="4704.749" cy="1696.781" r="10"/>
	<text transform="matrix(1 0 0 1 4044.627 1167.2808)" font-family="'MyriadPro-Regular'" font-size="24">5 km</text>
	<text transform="matrix(1 0 0 1 4224.127 1391.7808)" font-family="'MyriadPro-Regular'" font-size="24">0 km</text>
	<text transform="matrix(1 0 0 1 4399.127 1555.7808)" font-family="'MyriadPro-Regular'" font-size="24">5 km</text>
	<text transform="matrix(1 0 0 1 4644.7939 1731.7808)" font-family="'MyriadPro-Regular'" font-size="24">10 km</text>
	<text transform="matrix(0.9999 0.0143 -0.0143 0.9999 3686.9766 308.6318)" font-family="'MyriadPro-Regular'" font-size="24">25 km</text>
	<circle fill="#1D1D1B" cx="4804.799" cy="1890.557" r="10"/>
	<circle fill="#1D1D1B" cx="4937.299" cy="2093.057" r="10"/>
	<circle fill="#1D1D1B" cx="4967.75" cy="2142.531" r="10"/>
	<text transform="matrix(1 0 0 1 4738.7939 1875.7808)" font-family="'MyriadPro-Regular'" font-size="24">15 km</text>
	<text transform="matrix(1 0 0 1 4858.7939 2106.7808)" font-family="'MyriadPro-Regular'" font-size="24">20 km</text>
	<text transform="matrix(1 0 0 1 4876.4609 2156.4468)" font-family="'MyriadPro-Regular'" font-size="24">20,5 km</text>
</g>
</svg>
