<?xml version="1.0" encoding="utf-8"?>
<!-- Generator: Adobe Illustrator 15.0.2, SVG Export Plug-In . SVG Version: 6.00 Build 0)  -->
<!DOCTYPE svg PUBLIC "-//W3C//DTD SVG 1.1//EN" "http://www.w3.org/Graphics/SVG/1.1/DTD/svg11.dtd">
<svg version="1.1" xmlns="http://www.w3.org/2000/svg" xmlns:xlink="http://www.w3.org/1999/xlink" x="0px" y="0px" width="760px"
	 height="475.5px" viewBox="0 0 760 475.5" enable-background="new 0 0 760 475.5" xml:space="preserve" preserveAspectRatio="none">
<g id="Zwolle_etc.">
	<path fill="none" stroke="#95C11F" stroke-width="14" stroke-miterlimit="10" stroke-opacity="0.5" d="M308,365.334
		c0.917-5.584,1.621-15.594,2.667-22.833c0.786-5.442,4.712-25.843-4.667-21.501c-13.5,6.25-20.357,14.081-35.75,18.25
		c-12,3.25-39.447,0.33-51.25,5.5c-15.823,6.931-35.442,40.582-52,45.5c-12.625,3.75-37.419,9.708-50.75,13.5"/>
	<path fill="none" stroke="#95C11F" stroke-width="14" stroke-miterlimit="10" stroke-opacity="0.5" d="M277.333,350.417
		c-0.5-0.791-2.917-3.208-3.583-5.583"/>
</g>
<g id="Bremerhaven_Amsterdam">
	<path fill="none" stroke="#36A9E1" stroke-width="14" stroke-miterlimit="10" stroke-opacity="0.5" d="M711.833,90.333
		c0-6.575-33.315-41.233-57.083-20.75C642.496,80.144,640.667,31,592.333,36C575.91,37.699,552,45.667,527,45.667
		c-16.5,0-42,9.833-60.5,22.333c-13.444,9.084-39.469,28.995-54.333,35.5c-13.618,5.96-42.957,12.357-57.667,14.5
		c-16.301,2.375-49.695-0.473-65.833,2.833c-14.094,2.888-42.056,12.071-53.833,20.333C221.674,150.399,197.667,168.5,193,190
		c-5.518,25.422-3.944,49.083-7.75,65c-5.5,23,7.5,48.5-2.25,69c-3.925,8.253-17.333,41.833-30.5,55.75
		c-7.469,7.895-24.675,21.062-36.25,24"/>
</g>
<g id="Bremen_Vegesack">
	<path fill="none" stroke="#FCEA10" stroke-width="14" stroke-miterlimit="10" stroke-opacity="0.5" d="M718.527,191.455
		c-2.86-0.873-8.587-3.21-11.277-4.705c-1.849-1.027-5.575-3.188-7-4.75c-1.395-1.529-3.483-5.246-4-7.25
		c-0.405-1.574,0-4.875,0-6.5c0-1.062,0-3.188,0-4.25c0-2.25,0.883-6.222,1.125-8.458c0.283-2.608,0.475-8.396,0.791-11
		c0.294-2.42,0.619-7.104,0.584-9.542c-0.05-3.44-0.656-10.302-0.75-13.742c-0.075-2.751-0.255-8.268,0-11.008
		c0.188-2.026,0.93-5.979,1.812-7.812c0.812-1.688,2.562-4.5,5.438-5.188c4.487-1.073,6.938-3.938,6.75-7.062"/>
	<path fill="none" stroke="#36A9E1" stroke-width="14" stroke-miterlimit="10" d="M716.583,190.898"/>
</g>
<g id="Amsterdam_Leiden">
	<path fill="none" stroke="#E6007E" stroke-width="14" stroke-miterlimit="10" stroke-opacity="0.5" d="M116.25,403.75
		c-9.707,2.535-40.008,8.919-40.75,10.875c-6.486,17.104-14.167,34.708-24,44.625"/>
</g>
<g id="Entfernungen">
	<line fill="none" stroke="#1D1D1B" stroke-width="3" stroke-miterlimit="10" x1="693.963" y1="91.892" x2="726.417" y2="89.135"/>
	<line fill="none" stroke="#1D1D1B" stroke-width="3" stroke-miterlimit="10" x1="714.541" y1="205.573" x2="724.65" y2="174.61"/>
	<text transform="matrix(1 0 0 1 729.417 91.9736)" font-family="'MyriadPro-Regular'" font-size="12">0 km</text>
	<text transform="matrix(1 0 0 1 724.1514 198.7539)" font-family="'MyriadPro-Regular'" font-size="12">67 km</text>
	<line fill="none" stroke="#1D1D1B" stroke-width="3" stroke-miterlimit="10" x1="653.08" y1="85.783" x2="656.421" y2="53.384"/>
	<text transform="matrix(1 0 0 1 643.833 48.25)" font-family="'MyriadPro-Regular'" font-size="12">20 km</text>
	<line fill="none" stroke="#1D1D1B" stroke-width="3" stroke-miterlimit="10" x1="591.85" y1="51.034" x2="592.317" y2="18.467"/>
	<text transform="matrix(1 0 0 1 576.9258 12.3711)" font-family="'MyriadPro-Regular'" font-size="12">40 km</text>
	<line fill="none" stroke="#1D1D1B" stroke-width="3" stroke-miterlimit="10" x1="529.431" y1="60.594" x2="525.695" y2="28.238"/>
	<line fill="none" stroke="#1D1D1B" stroke-width="3" stroke-miterlimit="10" x1="474.687" y1="82.759" x2="458.077" y2="54.741"/>
	<text transform="matrix(1 0 0 1 509.5928 23.0381)" font-family="'MyriadPro-Regular'" font-size="12">60 km</text>
	<text transform="matrix(1 0 0 1 437.5928 51.0342)" font-family="'MyriadPro-Regular'" font-size="12">80 km</text>
	<line fill="none" stroke="#1D1D1B" stroke-width="3" stroke-miterlimit="10" x1="419.862" y1="116.259" x2="403.253" y2="88.241"/>
	<line fill="none" stroke="#1D1D1B" stroke-width="3" stroke-miterlimit="10" x1="357.253" y1="134.574" x2="351.08" y2="102.593"/>
	<text transform="matrix(1 0 0 1 387.4258 83.7588)" font-family="'MyriadPro-Regular'" font-size="12">100 km</text>
	<text transform="matrix(1 0 0 1 333.2588 99.4253)" font-family="'MyriadPro-Regular'" font-size="12">120 km</text>
	<line fill="none" stroke="#1D1D1B" stroke-width="3" stroke-miterlimit="10" x1="292.57" y1="137.113" x2="285.121" y2="105.404"/>

		<line fill="none" stroke="#1D1D1B" stroke-width="3" stroke-miterlimit="10" x1="242.349" y1="153.926" x2="225.739" y2="125.908"/>
	<line fill="none" stroke="#1D1D1B" stroke-width="3" stroke-miterlimit="10" x1="174.513" y1="403.26" x2="157.903" y2="375.241"/>

		<line fill="none" stroke="#1D1D1B" stroke-width="3" stroke-miterlimit="10" x1="299.465" y1="334.349" x2="322.478" y2="311.298"/>
	<line fill="none" stroke="#1D1D1B" stroke-width="3" stroke-miterlimit="10" x1="207.408" y1="194.883" x2="176.56" y2="184.428"/>

		<line fill="none" stroke="#1D1D1B" stroke-width="3" stroke-miterlimit="10" x1="200.535" y1="257.081" x2="168.208" y2="253.097"/>

		<line fill="none" stroke="#1D1D1B" stroke-width="3" stroke-miterlimit="10" x1="120.679" y1="420.377" x2="111.511" y2="389.122"/>

		<line fill="none" stroke="#1D1D1B" stroke-width="3" stroke-miterlimit="10" x1="197.106" y1="328.176" x2="165.624" y2="319.824"/>
	<line fill="none" stroke="#1D1D1B" stroke-width="3" stroke-miterlimit="10" x1="324.453" y1="368.759" x2="292.38" y2="363.075"/>
	<line fill="none" stroke="#1D1D1B" stroke-width="3" stroke-miterlimit="10" x1="274.933" y1="353.682" x2="265.068" y2="322.64"/>

		<line fill="none" stroke="#1D1D1B" stroke-width="3" stroke-miterlimit="10" x1="227.224" y1="358.807" x2="210.776" y2="330.692"/>

		<line fill="none" stroke="#1D1D1B" stroke-width="3" stroke-miterlimit="10" x1="164.058" y1="388.073" x2="137.708" y2="368.927"/>
	<line fill="none" stroke="#1D1D1B" stroke-width="3" stroke-miterlimit="10" x1="87.558" y1="423.823" x2="61.208" y2="404.677"/>
	<line fill="none" stroke="#1D1D1B" stroke-width="3" stroke-miterlimit="10" x1="63.586" y1="470.311" x2="39.679" y2="448.189"/>
	<text transform="matrix(1 0 0 1 265.7588 101.4253)" font-family="'MyriadPro-Regular'" font-size="12">140 km</text>
	<text transform="matrix(1 0 0 1 205.2588 121.2583)" font-family="'MyriadPro-Regular'" font-size="12">160 km</text>
	<text transform="matrix(1 0 0 1 139.7588 180.7583)" font-family="'MyriadPro-Regular'" font-size="12">180 km</text>
	<text transform="matrix(1 0 0 1 128.2588 253.7505)" font-family="'MyriadPro-Regular'" font-size="12">200 km</text>
	<text transform="matrix(1 0 0 1 124.1338 320.3984)" font-family="'MyriadPro-Regular'" font-size="12">220 km</text>
	<text transform="matrix(1 0 0 1 101.1338 365.334)" font-family="'MyriadPro-Regular'" font-size="12">240 km</text>
	<text transform="matrix(1 0 0 1 160.25 414.875)" font-family="'MyriadPro-Regular'" font-size="12">47 km</text>
	<text transform="matrix(1 0 0 1 216.25 371.375)" font-family="'MyriadPro-Regular'" font-size="12">27 km</text>
	<text transform="matrix(1 0 0 1 315.25 307.375)" font-family="'MyriadPro-Regular'" font-size="12">0 km</text>
	<text transform="matrix(1 0 0 1 254 319.375)" font-family="'MyriadPro-Regular'" font-size="12">7 km</text>
	<text transform="matrix(1 0 0 1 326.5835 373.293)" font-family="'MyriadPro-Regular'" font-size="12">10 km</text>
	<text transform="matrix(1 0 0 1 89.1338 385.334)" font-family="'MyriadPro-Regular'" font-size="12">255 km</text>
	<text transform="matrix(1 0 0 1 28.7588 400.209)" font-family="'MyriadPro-Regular'" font-size="12">275 km</text>
	<text transform="matrix(1 0 0 1 5.3838 445.584)" font-family="'MyriadPro-Regular'" font-size="12">295 km</text>
	<text transform="matrix(1 0 0 1 108.8008 431.5)" font-family="'MyriadPro-Regular'" font-size="12">65 km</text>
</g>
</svg>
