<?xml version="1.0" encoding="utf-8"?>
<!-- Generator: Adobe Illustrator 15.0.2, SVG Export Plug-In . SVG Version: 6.00 Build 0)  -->
<!DOCTYPE svg PUBLIC "-//W3C//DTD SVG 1.1//EN" "http://www.w3.org/Graphics/SVG/1.1/DTD/svg11.dtd">
<svg version="1.1" xmlns="http://www.w3.org/2000/svg" xmlns:xlink="http://www.w3.org/1999/xlink" x="0px" y="0px"
	 width="702.89px" height="435.838px" viewBox="0 0 702.89 435.838" enable-background="new 0 0 702.89 435.838"
	 xml:space="preserve">
<g id="Zwolle_etc.">
	<path fill="none" stroke="#95C11F" stroke-width="10" stroke-miterlimit="10" stroke-opacity="0.5" d="M248.271,363.499
		c0.917-5.584,1.621-15.594,2.667-22.833c0.786-5.442,4.712-25.843-4.667-21.501c-13.5,6.25-20.357,14.081-35.75,18.25
		c-12,3.25-39.447,0.33-51.25,5.5c-15.823,6.931-35.442,40.582-52,45.5c-12.625,3.75-37.419,9.708-50.75,13.5"/>
	<path fill="none" stroke="#95C11F" stroke-width="10" stroke-miterlimit="10" stroke-opacity="0.5" d="M217.605,348.582
		c-0.5-0.791-4.333-5.292-5-7.667"/>
</g>
<g id="Bremerhaven_Amsterdam">
	<path fill="none" stroke="#36A9E1" stroke-width="10" stroke-miterlimit="10" stroke-opacity="0.5" d="M652.104,88.498
		c0-6.575-33.315-41.233-57.083-20.75c-12.254,10.56-14.083-38.583-62.417-33.583c-16.423,1.699-40.333,9.667-65.333,9.667
		c-16.5,0-42,9.833-60.5,22.333c-13.444,9.084-39.469,28.995-54.333,35.5c-13.618,5.96-42.957,12.357-57.667,14.5
		c-16.301,2.375-49.695-0.473-65.833,2.833c-14.094,2.888-42.056,12.071-53.833,20.333c-13.16,9.232-37.167,27.333-41.833,48.833
		c-5.518,25.422-3.944,49.083-7.75,65c-5.5,23,7.5,48.5-2.25,69c-3.925,8.253-17.333,41.833-30.5,55.75
		c-7.469,7.895-24.675,21.062-36.25,24"/>
</g>
<g id="Bremen_Vegesack">
	<path fill="none" stroke="#FCEA10" stroke-width="10" stroke-miterlimit="10" stroke-opacity="0.5" d="M658.799,189.62
		c-2.86-0.873-8.587-3.21-11.277-4.705c-1.849-1.027-5.575-3.188-7-4.75c-1.395-1.529-3.483-5.246-4-7.25
		c-0.405-1.574,0-4.875,0-6.5c0-1.062,0-3.188,0-4.25c0-2.25,0.883-6.222,1.125-8.458c0.283-2.608,0.475-8.396,0.791-11
		c0.294-2.42,0.619-7.104,0.584-9.542c-0.05-3.44-0.656-10.302-0.75-13.742c-0.075-2.751-0.255-8.268,0-11.008
		c0.188-2.026,0.93-5.979,1.812-7.812c0.812-1.688,2.562-4.5,5.438-5.188c4.487-1.073,6.938-3.938,6.75-7.062"/>
</g>
<g id="Entfernungen" display="none">
	
		<line display="inline" fill="none" stroke="#1D1D1B" stroke-width="3" stroke-miterlimit="10" x1="634.234" y1="90.057" x2="666.688" y2="87.3"/>
	
		<line display="inline" fill="none" stroke="#1D1D1B" stroke-width="3" stroke-miterlimit="10" x1="654.812" y1="203.738" x2="664.922" y2="172.775"/>
	<text transform="matrix(1 0 0 1 669.6885 90.1382)" display="inline" font-family="'MyriadPro-Regular'" font-size="12">0 km</text>
	<text transform="matrix(1 0 0 1 664.4229 196.9185)" display="inline" font-family="'MyriadPro-Regular'" font-size="12">67 km</text>
	
		<line display="inline" fill="none" stroke="#1D1D1B" stroke-width="3" stroke-miterlimit="10" x1="593.352" y1="83.947" x2="596.692" y2="51.549"/>
	<text transform="matrix(1 0 0 1 584.1045 46.4146)" display="inline" font-family="'MyriadPro-Regular'" font-size="12">20 km</text>
	
		<line display="inline" fill="none" stroke="#1D1D1B" stroke-width="3" stroke-miterlimit="10" x1="532.121" y1="49.199" x2="532.589" y2="16.631"/>
	<text transform="matrix(1 0 0 1 517.1973 10.5356)" display="inline" font-family="'MyriadPro-Regular'" font-size="12">40 km</text>
	
		<line display="inline" fill="none" stroke="#1D1D1B" stroke-width="3" stroke-miterlimit="10" x1="469.702" y1="58.759" x2="465.967" y2="26.403"/>
	
		<line display="inline" fill="none" stroke="#1D1D1B" stroke-width="3" stroke-miterlimit="10" x1="414.958" y1="80.923" x2="398.349" y2="52.905"/>
	<text transform="matrix(1 0 0 1 449.8643 21.2026)" display="inline" font-family="'MyriadPro-Regular'" font-size="12">60 km</text>
	<text transform="matrix(1 0 0 1 377.8643 49.1987)" display="inline" font-family="'MyriadPro-Regular'" font-size="12">80 km</text>
	
		<line display="inline" fill="none" stroke="#1D1D1B" stroke-width="3" stroke-miterlimit="10" x1="360.134" y1="114.423" x2="343.524" y2="86.405"/>
	
		<line display="inline" fill="none" stroke="#1D1D1B" stroke-width="3" stroke-miterlimit="10" x1="297.525" y1="132.738" x2="291.352" y2="100.757"/>
	<text transform="matrix(1 0 0 1 327.6973 81.9233)" display="inline" font-family="'MyriadPro-Regular'" font-size="12">100 km</text>
	<text transform="matrix(1 0 0 1 273.5303 97.5898)" display="inline" font-family="'MyriadPro-Regular'" font-size="12">120 km</text>
	
		<line display="inline" fill="none" stroke="#1D1D1B" stroke-width="3" stroke-miterlimit="10" x1="232.841" y1="135.277" x2="225.393" y2="103.569"/>
	
		<line display="inline" fill="none" stroke="#1D1D1B" stroke-width="3" stroke-miterlimit="10" x1="182.62" y1="152.09" x2="166.011" y2="124.072"/>
	
		<line display="inline" fill="none" stroke="#1D1D1B" stroke-width="3" stroke-miterlimit="10" x1="114.784" y1="401.424" x2="98.175" y2="373.406"/>
	
		<line display="inline" fill="none" stroke="#1D1D1B" stroke-width="3" stroke-miterlimit="10" x1="239.737" y1="332.513" x2="262.75" y2="309.462"/>
	
		<line display="inline" fill="none" stroke="#1D1D1B" stroke-width="3" stroke-miterlimit="10" x1="147.679" y1="193.047" x2="116.832" y2="182.592"/>
	
		<line display="inline" fill="none" stroke="#1D1D1B" stroke-width="3" stroke-miterlimit="10" x1="140.806" y1="255.246" x2="108.479" y2="251.261"/>
	
		<line display="inline" fill="none" stroke="#1D1D1B" stroke-width="3" stroke-miterlimit="10" x1="60.951" y1="418.542" x2="51.783" y2="387.287"/>
	
		<line display="inline" fill="none" stroke="#1D1D1B" stroke-width="3" stroke-miterlimit="10" x1="137.378" y1="326.34" x2="105.896" y2="317.989"/>
	
		<line display="inline" fill="none" stroke="#1D1D1B" stroke-width="3" stroke-miterlimit="10" x1="264.724" y1="366.923" x2="232.652" y2="361.24"/>
	
		<line display="inline" fill="none" stroke="#1D1D1B" stroke-width="3" stroke-miterlimit="10" x1="215.204" y1="351.846" x2="205.339" y2="320.804"/>
	
		<line display="inline" fill="none" stroke="#1D1D1B" stroke-width="3" stroke-miterlimit="10" x1="167.495" y1="356.971" x2="151.047" y2="328.857"/>
	
		<line display="inline" fill="none" stroke="#1D1D1B" stroke-width="3" stroke-miterlimit="10" x1="104.329" y1="386.238" x2="77.979" y2="367.091"/>
	<text transform="matrix(1 0 0 1 206.0303 99.5898)" display="inline" font-family="'MyriadPro-Regular'" font-size="12">140 km</text>
	<text transform="matrix(1 0 0 1 145.5303 119.4229)" display="inline" font-family="'MyriadPro-Regular'" font-size="12">160 km</text>
	<text transform="matrix(1 0 0 1 80.0303 178.9229)" display="inline" font-family="'MyriadPro-Regular'" font-size="12">180 km</text>
	<text transform="matrix(1 0 0 1 68.5303 251.9146)" display="inline" font-family="'MyriadPro-Regular'" font-size="12">200 km</text>
	<text transform="matrix(1 0 0 1 64.4053 318.563)" display="inline" font-family="'MyriadPro-Regular'" font-size="12">220 km</text>
	<text transform="matrix(1 0 0 1 41.4053 363.4985)" display="inline" font-family="'MyriadPro-Regular'" font-size="12">240 km</text>
	<text transform="matrix(1 0 0 1 100.5215 413.0396)" display="inline" font-family="'MyriadPro-Regular'" font-size="12">47 km</text>
	<text transform="matrix(1 0 0 1 156.5215 369.5396)" display="inline" font-family="'MyriadPro-Regular'" font-size="12">27 km</text>
	<text transform="matrix(1 0 0 1 255.5215 305.5396)" display="inline" font-family="'MyriadPro-Regular'" font-size="12">0 km</text>
	<text transform="matrix(1 0 0 1 194.2715 317.5396)" display="inline" font-family="'MyriadPro-Regular'" font-size="12">7 km</text>
	<text transform="matrix(1 0 0 1 266.855 371.4575)" display="inline" font-family="'MyriadPro-Regular'" font-size="12">10 km</text>
	<text transform="matrix(1 0 0 1 49.0723 429.6646)" display="inline" font-family="'MyriadPro-Regular'" font-size="12">65 km</text>
</g>
<g id="runde_Entfernungen">
	<text transform="matrix(1 0 0 1 660.6885 91.1382)" font-family="'MyriadPro-Regular'" font-size="12">0 km</text>
	<text transform="matrix(1 0 0 1 666.7559 193.2515)" font-family="'MyriadPro-Regular'" font-size="12">67 km</text>
	<text transform="matrix(1 0 0 1 589.1045 49.4146)" font-family="'MyriadPro-Regular'" font-size="12">20 km</text>
	<text transform="matrix(1 0 0 1 522.1973 20.5356)" font-family="'MyriadPro-Regular'" font-size="12">40 km</text>
	<text transform="matrix(1 0 0 1 451.8643 28.2026)" font-family="'MyriadPro-Regular'" font-size="12">60 km</text>
	<text transform="matrix(1 0 0 1 380.8643 49.1987)" font-family="'MyriadPro-Regular'" font-size="12">80 km</text>
	<text transform="matrix(1 0 0 1 325.6973 85.9233)" font-family="'MyriadPro-Regular'" font-size="12">100 km</text>
	<text transform="matrix(1 0 0 1 272.5303 98.5898)" font-family="'MyriadPro-Regular'" font-size="12">120 km</text>
	<text transform="matrix(1 0 0 1 208.0303 104.5898)" font-family="'MyriadPro-Regular'" font-size="12">140 km</text>
	<text transform="matrix(1 0 0 1 142.5303 124.4229)" font-family="'MyriadPro-Regular'" font-size="12">160 km</text>
	<text transform="matrix(1 0 0 1 83.0303 182.9229)" font-family="'MyriadPro-Regular'" font-size="12">180 km</text>
	<text transform="matrix(1 0 0 1 76.5303 251.9146)" font-family="'MyriadPro-Regular'" font-size="12">200 km</text>
	<text transform="matrix(1 0 0 1 75.4053 315.563)" font-family="'MyriadPro-Regular'" font-size="12">220 km</text>
	<text transform="matrix(1 0 0 1 47.4053 365.4985)" font-family="'MyriadPro-Regular'" font-size="12">240 km</text>
	<text transform="matrix(1 0 0 1 104.5215 407.0396)" font-family="'MyriadPro-Regular'" font-size="12">47 km</text>
	<text transform="matrix(1 0 0 1 156.5215 362.5396)" font-family="'MyriadPro-Regular'" font-size="12">27 km</text>
	<text transform="matrix(1 0 0 1 244.6885 308.4575)" font-family="'MyriadPro-Regular'" font-size="12">0 km</text>
	<text transform="matrix(1 0 0 1 189.2715 325.5396)" font-family="'MyriadPro-Regular'" font-size="12">7 km</text>
	<text transform="matrix(1 0 0 1 257.855 369.4575)" font-family="'MyriadPro-Regular'" font-size="12">10 km</text>
	<text transform="matrix(1 0 0 1 47.0723 423.6646)" font-family="'MyriadPro-Regular'" font-size="12">65 km</text>
	<circle cx="651.104" cy="87.352" r="6.334"/>
	<circle cx="594.021" cy="66.748" r="6.334"/>
	<circle cx="536.354" cy="31.915" r="6.334"/>
	<circle cx="471.021" cy="42.581" r="6.334"/>
	<circle cx="409.521" cy="62.915" r="6.334"/>
	<circle cx="356.188" cy="99.415" r="6.334"/>
	<circle cx="298.521" cy="113.915" r="6.334"/>
	<circle cx="232.688" cy="116.748" r="6.334"/>
	<circle cx="178.855" cy="137.082" r="6.334"/>
	<circle cx="134.021" cy="183.915" r="6.334"/>
	<circle cx="125.271" cy="250.915" r="6.334"/>
	<circle cx="122.271" cy="321.165" r="6.334"/>
	<circle cx="95.521" cy="373.665" r="6.334"/>
	<circle cx="56.521" cy="402.415" r="6.334"/>
	<circle cx="248.271" cy="363.499" r="6.334"/>
	<circle cx="244.271" cy="319.165" r="6.334"/>
	<circle cx="209.521" cy="337.415" r="6.334"/>
	<circle cx="159.271" cy="342.915" r="6.334"/>
	<circle cx="106.271" cy="387.415" r="6.334"/>
	<circle cx="657.799" cy="188.62" r="6.334"/>
	<text transform="matrix(1 0 0 1 7.7388 402.7485)" font-family="'MyriadPro-Regular'" font-size="12">255 km</text>
</g>
</svg>
